<?xml version="1.0" encoding="UTF-8" standalone="no"?>
<!DOCTYPE svg PUBLIC "-//W3C//DTD SVG 1.1//EN"
 "http://www.w3.org/Graphics/SVG/1.1/DTD/svg11.dtd">
<!-- Generated by graphviz version 2.49.3 (20211027.1534)
 -->
<!-- Title: com.tw.paintbots.GameSettings Pages: 1 -->
<svg width="383pt" height="117pt"
 viewBox="0.00 0.00 382.50 117.00" xmlns="http://www.w3.org/2000/svg" xmlns:xlink="http://www.w3.org/1999/xlink">
<g id="graph0" class="graph" transform="scale(1 1) rotate(0) translate(4 113)">
<title>com.tw.paintbots.GameSettings</title>
<polygon fill="white" stroke="transparent" points="-4,4 -4,-113 378.5,-113 378.5,4 -4,4"/>
<!-- Node1 -->
<g id="node1" class="node">
<title>Node1</title>
<g id="a_node1"><a xlink:title=" ">
<polygon fill="#bfbfbf" stroke="black" points="105.5,-0.5 105.5,-19.5 260.5,-19.5 260.5,-0.5 105.5,-0.5"/>
<text text-anchor="middle" x="183" y="-7.5" font-family="Helvetica,sans-Serif" font-size="10.00">com.tw.paintbots.GameSettings</text>
</a>
</g>
</g>
<!-- Node2 -->
<g id="node2" class="node">
<title>Node2</title>
<g id="a_node2"><a xlink:href="enumcom_1_1tw_1_1paintbots_1_1_player_type.xhtml" target="_top" xlink:title=" ">
<polygon fill="white" stroke="black" points="0,-84 0,-103 140,-103 140,-84 0,-84"/>
<text text-anchor="middle" x="70" y="-91" font-family="Helvetica,sans-Serif" font-size="10.00">com.tw.paintbots.PlayerType</text>
</a>
</g>
</g>
<!-- Node2&#45;&gt;Node1 -->
<g id="edge1" class="edge">
<title>Node2&#45;&gt;Node1</title>
<path fill="none" stroke="#9a32cd" stroke-dasharray="5,2" d="M83.08,-75.62C92.82,-63.9 107,-48.55 122,-38 132.9,-30.34 146.31,-24.11 157.78,-19.58"/>
<polygon fill="#9a32cd" stroke="#9a32cd" points="80.09,-73.75 76.54,-83.74 85.54,-78.14 80.09,-73.75"/>
<text text-anchor="middle" x="150.5" y="-46.5" font-family="Helvetica,sans-Serif" font-size="10.00"> player_types</text>
</g>
<!-- Node3 -->
<g id="node3" class="node">
<title>Node3</title>
<g id="a_node3"><a xlink:title=" ">
<polygon fill="white" stroke="#bfbfbf" points="158,-84 158,-103 208,-103 208,-84 158,-84"/>
<text text-anchor="middle" x="183" y="-91" font-family="Helvetica,sans-Serif" font-size="10.00">Vector2</text>
</a>
</g>
</g>
<!-- Node3&#45;&gt;Node1 -->
<g id="edge2" class="edge">
<title>Node3&#45;&gt;Node1</title>
<path fill="none" stroke="#9a32cd" stroke-dasharray="5,2" d="M183,-73.38C183,-56.4 183,-32.37 183,-19.66"/>
<polygon fill="#9a32cd" stroke="#9a32cd" points="179.5,-73.78 183,-83.78 186.5,-73.78 179.5,-73.78"/>
<text text-anchor="middle" x="218" y="-52" font-family="Helvetica,sans-Serif" font-size="10.00"> start_directions</text>
<text text-anchor="middle" x="218" y="-41" font-family="Helvetica,sans-Serif" font-size="10.00">start_positions</text>
</g>
<!-- Node4 -->
<g id="node4" class="node">
<title>Node4</title>
<g id="a_node4"><a xlink:title=" ">
<polygon fill="white" stroke="#bfbfbf" points="225.5,-78.5 225.5,-108.5 374.5,-108.5 374.5,-78.5 225.5,-78.5"/>
<text text-anchor="start" x="233.5" y="-96.5" font-family="Helvetica,sans-Serif" font-size="10.00">com.tw.paintbots.LevelLoader.</text>
<text text-anchor="middle" x="300" y="-85.5" font-family="Helvetica,sans-Serif" font-size="10.00">LevelInfo</text>
</a>
</g>
</g>
<!-- Node4&#45;&gt;Node1 -->
<g id="edge3" class="edge">
<title>Node4&#45;&gt;Node1</title>
<path fill="none" stroke="#9a32cd" stroke-dasharray="5,2" d="M286.17,-69.54C278.69,-58.72 268.6,-46.39 257,-38 245.59,-29.74 231.38,-23.76 218.47,-19.56"/>
<polygon fill="#9a32cd" stroke="#9a32cd" points="283.41,-71.7 291.82,-78.14 289.26,-67.86 283.41,-71.7"/>
<text text-anchor="middle" x="289.5" y="-46.5" font-family="Helvetica,sans-Serif" font-size="10.00"> level</text>
</g>
</g>
</svg>
