<?xml version="1.0" encoding="UTF-8" standalone="no"?>
<!DOCTYPE svg PUBLIC "-//W3C//DTD SVG 1.1//EN"
 "http://www.w3.org/Graphics/SVG/1.1/DTD/svg11.dtd">
<!-- Generated by graphviz version 2.49.3 (20211027.1534)
 -->
<!-- Title: com.tw.paintbots.Items.PowerUp Pages: 1 -->
<svg width="168pt" height="218pt"
 viewBox="0.00 0.00 168.00 218.00" xmlns="http://www.w3.org/2000/svg" xmlns:xlink="http://www.w3.org/1999/xlink">
<g id="graph0" class="graph" transform="scale(1 1) rotate(0) translate(4 214)">
<title>com.tw.paintbots.Items.PowerUp</title>
<polygon fill="white" stroke="transparent" points="-4,4 -4,-214 164,-214 164,4 -4,4"/>
<!-- Node1 -->
<g id="node1" class="node">
<title>Node1</title>
<g id="a_node1"><a xlink:title=" ">
<polygon fill="#bfbfbf" stroke="black" points="0,-0.5 0,-19.5 160,-19.5 160,-0.5 0,-0.5"/>
<text text-anchor="middle" x="80" y="-7.5" font-family="Helvetica,sans-Serif" font-size="10.00">com.tw.paintbots.Items.PowerUp</text>
</a>
</g>
</g>
<!-- Node2 -->
<g id="node2" class="node">
<title>Node2</title>
<g id="a_node2"><a xlink:href="classcom_1_1tw_1_1paintbots_1_1_renderables_1_1_texture_grid.xhtml" target="_top" xlink:title=" ">
<polygon fill="white" stroke="black" points="5.5,-56.5 5.5,-86.5 154.5,-86.5 154.5,-56.5 5.5,-56.5"/>
<text text-anchor="start" x="13.5" y="-74.5" font-family="Helvetica,sans-Serif" font-size="10.00">com.tw.paintbots.Renderables.</text>
<text text-anchor="middle" x="80" y="-63.5" font-family="Helvetica,sans-Serif" font-size="10.00">TextureGrid</text>
</a>
</g>
</g>
<!-- Node2&#45;&gt;Node1 -->
<g id="edge1" class="edge">
<title>Node2&#45;&gt;Node1</title>
<path fill="none" stroke="midnightblue" d="M80,-46.29C80,-36.86 80,-26.65 80,-19.66"/>
<polygon fill="midnightblue" stroke="midnightblue" points="76.5,-46.4 80,-56.4 83.5,-46.4 76.5,-46.4"/>
</g>
<!-- Node3 -->
<g id="node3" class="node">
<title>Node3</title>
<g id="a_node3"><a xlink:href="classcom_1_1tw_1_1paintbots_1_1_renderables_1_1_renderable.xhtml" target="_top" xlink:title=" ">
<polygon fill="white" stroke="black" points="5.5,-123.5 5.5,-153.5 154.5,-153.5 154.5,-123.5 5.5,-123.5"/>
<text text-anchor="start" x="13.5" y="-141.5" font-family="Helvetica,sans-Serif" font-size="10.00">com.tw.paintbots.Renderables.</text>
<text text-anchor="middle" x="80" y="-130.5" font-family="Helvetica,sans-Serif" font-size="10.00">Renderable</text>
</a>
</g>
</g>
<!-- Node3&#45;&gt;Node2 -->
<g id="edge2" class="edge">
<title>Node3&#45;&gt;Node2</title>
<path fill="none" stroke="midnightblue" d="M80,-113.11C80,-104.15 80,-94.32 80,-86.58"/>
<polygon fill="midnightblue" stroke="midnightblue" points="76.5,-113.4 80,-123.4 83.5,-113.4 76.5,-113.4"/>
</g>
<!-- Node4 -->
<g id="node4" class="node">
<title>Node4</title>
<g id="a_node4"><a xlink:href="classcom_1_1tw_1_1paintbots_1_1_entity.xhtml" target="_top" xlink:title=" ">
<polygon fill="white" stroke="black" points="22,-190.5 22,-209.5 138,-209.5 138,-190.5 22,-190.5"/>
<text text-anchor="middle" x="80" y="-197.5" font-family="Helvetica,sans-Serif" font-size="10.00">com.tw.paintbots.Entity</text>
</a>
</g>
</g>
<!-- Node4&#45;&gt;Node3 -->
<g id="edge3" class="edge">
<title>Node4&#45;&gt;Node3</title>
<path fill="none" stroke="midnightblue" d="M80,-180.23C80,-171.59 80,-161.5 80,-153.52"/>
<polygon fill="midnightblue" stroke="midnightblue" points="76.5,-180.48 80,-190.48 83.5,-180.48 76.5,-180.48"/>
</g>
</g>
</svg>
