<?xml version="1.0" encoding="UTF-8" standalone="no"?>
<!DOCTYPE svg PUBLIC "-//W3C//DTD SVG 1.1//EN"
 "http://www.w3.org/Graphics/SVG/1.1/DTD/svg11.dtd">
<!-- Generated by graphviz version 2.49.3 (20211027.1534)
 -->
<!-- Title: com.tw.paintbots.Renderables.TextureGrid Pages: 1 -->
<svg width="875pt" height="127pt"
 viewBox="0.00 0.00 875.00 126.50" xmlns="http://www.w3.org/2000/svg" xmlns:xlink="http://www.w3.org/1999/xlink">
<g id="graph0" class="graph" transform="scale(1 1) rotate(0) translate(4 122.5)">
<title>com.tw.paintbots.Renderables.TextureGrid</title>
<polygon fill="white" stroke="transparent" points="-4,4 -4,-122.5 871,-122.5 871,4 -4,4"/>
<!-- Node1 -->
<g id="node1" class="node">
<title>Node1</title>
<g id="a_node1"><a xlink:title=" ">
<polygon fill="#bfbfbf" stroke="black" points="337,-49.5 337,-79.5 486,-79.5 486,-49.5 337,-49.5"/>
<text text-anchor="start" x="345" y="-67.5" font-family="Helvetica,sans-Serif" font-size="10.00">com.tw.paintbots.Renderables.</text>
<text text-anchor="middle" x="411.5" y="-56.5" font-family="Helvetica,sans-Serif" font-size="10.00">TextureGrid</text>
</a>
</g>
</g>
<!-- Node4 -->
<g id="node4" class="node">
<title>Node4</title>
<g id="a_node4"><a xlink:href="classcom_1_1tw_1_1paintbots_1_1_items_1_1_power_up.xhtml" target="_top" xlink:title=" ">
<polygon fill="white" stroke="black" points="522,-99 522,-118 682,-118 682,-99 522,-99"/>
<text text-anchor="middle" x="602" y="-106" font-family="Helvetica,sans-Serif" font-size="10.00">com.tw.paintbots.Items.PowerUp</text>
</a>
</g>
</g>
<!-- Node1&#45;&gt;Node4 -->
<g id="edge3" class="edge">
<title>Node1&#45;&gt;Node4</title>
<path fill="none" stroke="midnightblue" d="M486.7,-81.82C511.74,-87.66 538.77,-93.97 560.25,-98.99"/>
<polygon fill="midnightblue" stroke="midnightblue" points="487.38,-78.38 476.84,-79.52 485.79,-85.2 487.38,-78.38"/>
</g>
<!-- Node5 -->
<g id="node5" class="node">
<title>Node5</title>
<g id="a_node5"><a xlink:href="classcom_1_1tw_1_1paintbots_1_1_renderables_1_1_u_i_color_bar.xhtml" target="_top" xlink:title=" ">
<polygon fill="white" stroke="black" points="527.5,-49.5 527.5,-79.5 676.5,-79.5 676.5,-49.5 527.5,-49.5"/>
<text text-anchor="start" x="535.5" y="-67.5" font-family="Helvetica,sans-Serif" font-size="10.00">com.tw.paintbots.Renderables.</text>
<text text-anchor="middle" x="602" y="-56.5" font-family="Helvetica,sans-Serif" font-size="10.00">UIColorBar</text>
</a>
</g>
</g>
<!-- Node1&#45;&gt;Node5 -->
<g id="edge4" class="edge">
<title>Node1&#45;&gt;Node5</title>
<path fill="none" stroke="midnightblue" d="M496.43,-64.5C506.74,-64.5 517.22,-64.5 527.36,-64.5"/>
<polygon fill="midnightblue" stroke="midnightblue" points="496.19,-61 486.19,-64.5 496.19,-68 496.19,-61"/>
</g>
<!-- Node6 -->
<g id="node6" class="node">
<title>Node6</title>
<g id="a_node6"><a xlink:href="classcom_1_1tw_1_1paintbots_1_1_renderables_1_1_u_i_digit.xhtml" target="_top" xlink:title=" ">
<polygon fill="white" stroke="black" points="527.5,-0.5 527.5,-30.5 676.5,-30.5 676.5,-0.5 527.5,-0.5"/>
<text text-anchor="start" x="535.5" y="-18.5" font-family="Helvetica,sans-Serif" font-size="10.00">com.tw.paintbots.Renderables.</text>
<text text-anchor="middle" x="602" y="-7.5" font-family="Helvetica,sans-Serif" font-size="10.00">UIDigit</text>
</a>
</g>
</g>
<!-- Node1&#45;&gt;Node6 -->
<g id="edge5" class="edge">
<title>Node1&#45;&gt;Node6</title>
<path fill="none" stroke="midnightblue" d="M480.29,-46.88C500.92,-41.52 523.38,-35.68 543.27,-30.51"/>
<polygon fill="midnightblue" stroke="midnightblue" points="479.14,-43.56 470.34,-49.47 480.9,-50.34 479.14,-43.56"/>
</g>
<!-- Node2 -->
<g id="node2" class="node">
<title>Node2</title>
<g id="a_node2"><a xlink:href="classcom_1_1tw_1_1paintbots_1_1_renderables_1_1_renderable.xhtml" target="_top" xlink:title=" ">
<polygon fill="white" stroke="black" points="152,-49.5 152,-79.5 301,-79.5 301,-49.5 152,-49.5"/>
<text text-anchor="start" x="160" y="-67.5" font-family="Helvetica,sans-Serif" font-size="10.00">com.tw.paintbots.Renderables.</text>
<text text-anchor="middle" x="226.5" y="-56.5" font-family="Helvetica,sans-Serif" font-size="10.00">Renderable</text>
</a>
</g>
</g>
<!-- Node2&#45;&gt;Node1 -->
<g id="edge1" class="edge">
<title>Node2&#45;&gt;Node1</title>
<path fill="none" stroke="midnightblue" d="M311.39,-64.5C319.84,-64.5 328.38,-64.5 336.71,-64.5"/>
<polygon fill="midnightblue" stroke="midnightblue" points="311.14,-61 301.14,-64.5 311.14,-68 311.14,-61"/>
</g>
<!-- Node3 -->
<g id="node3" class="node">
<title>Node3</title>
<g id="a_node3"><a xlink:href="classcom_1_1tw_1_1paintbots_1_1_entity.xhtml" target="_top" xlink:title=" ">
<polygon fill="white" stroke="black" points="0,-55 0,-74 116,-74 116,-55 0,-55"/>
<text text-anchor="middle" x="58" y="-62" font-family="Helvetica,sans-Serif" font-size="10.00">com.tw.paintbots.Entity</text>
</a>
</g>
</g>
<!-- Node3&#45;&gt;Node2 -->
<g id="edge2" class="edge">
<title>Node3&#45;&gt;Node2</title>
<path fill="none" stroke="midnightblue" d="M126.41,-64.5C134.81,-64.5 143.43,-64.5 151.92,-64.5"/>
<polygon fill="midnightblue" stroke="midnightblue" points="126.3,-61 116.3,-64.5 126.3,-68 126.3,-61"/>
</g>
<!-- Node7 -->
<g id="node7" class="node">
<title>Node7</title>
<g id="a_node7"><a xlink:href="classcom_1_1tw_1_1paintbots_1_1_renderables_1_1_start_timer.xhtml" target="_top" xlink:title=" ">
<polygon fill="white" stroke="black" points="718,-0.5 718,-30.5 867,-30.5 867,-0.5 718,-0.5"/>
<text text-anchor="start" x="726" y="-18.5" font-family="Helvetica,sans-Serif" font-size="10.00">com.tw.paintbots.Renderables.</text>
<text text-anchor="middle" x="792.5" y="-7.5" font-family="Helvetica,sans-Serif" font-size="10.00">StartTimer</text>
</a>
</g>
</g>
<!-- Node6&#45;&gt;Node7 -->
<g id="edge6" class="edge">
<title>Node6&#45;&gt;Node7</title>
<path fill="none" stroke="midnightblue" d="M686.93,-15.5C697.24,-15.5 707.72,-15.5 717.86,-15.5"/>
<polygon fill="midnightblue" stroke="midnightblue" points="686.69,-12 676.69,-15.5 686.69,-19 686.69,-12"/>
</g>
</g>
</svg>
