<?xml version="1.0" encoding="UTF-8" standalone="no"?>
<!DOCTYPE svg PUBLIC "-//W3C//DTD SVG 1.1//EN"
 "http://www.w3.org/Graphics/SVG/1.1/DTD/svg11.dtd">
<!-- Generated by graphviz version 2.49.3 (20211027.1534)
 -->
<!-- Title: com.tw.paintbots.Renderables.TextureGrid Pages: 1 -->
<svg width="243pt" height="174pt"
 viewBox="0.00 0.00 242.50 174.00" xmlns="http://www.w3.org/2000/svg" xmlns:xlink="http://www.w3.org/1999/xlink">
<g id="graph0" class="graph" transform="scale(1 1) rotate(0) translate(4 170)">
<title>com.tw.paintbots.Renderables.TextureGrid</title>
<polygon fill="white" stroke="transparent" points="-4,4 -4,-170 238.5,-170 238.5,4 -4,4"/>
<!-- Node1 -->
<g id="node1" class="node">
<title>Node1</title>
<g id="a_node1"><a xlink:title=" ">
<polygon fill="#bfbfbf" stroke="black" points="40.5,-0.5 40.5,-30.5 189.5,-30.5 189.5,-0.5 40.5,-0.5"/>
<text text-anchor="start" x="48.5" y="-18.5" font-family="Helvetica,sans-Serif" font-size="10.00">com.tw.paintbots.Renderables.</text>
<text text-anchor="middle" x="115" y="-7.5" font-family="Helvetica,sans-Serif" font-size="10.00">TextureGrid</text>
</a>
</g>
</g>
<!-- Node2 -->
<g id="node2" class="node">
<title>Node2</title>
<g id="a_node2"><a xlink:href="classcom_1_1tw_1_1paintbots_1_1_renderables_1_1_renderable.xhtml" target="_top" xlink:title=" ">
<polygon fill="white" stroke="black" points="40.5,-68.5 40.5,-98.5 189.5,-98.5 189.5,-68.5 40.5,-68.5"/>
<text text-anchor="start" x="48.5" y="-86.5" font-family="Helvetica,sans-Serif" font-size="10.00">com.tw.paintbots.Renderables.</text>
<text text-anchor="middle" x="115" y="-75.5" font-family="Helvetica,sans-Serif" font-size="10.00">Renderable</text>
</a>
</g>
</g>
<!-- Node2&#45;&gt;Node1 -->
<g id="edge1" class="edge">
<title>Node2&#45;&gt;Node1</title>
<path fill="none" stroke="midnightblue" d="M115,-58.03C115,-48.86 115,-38.74 115,-30.79"/>
<polygon fill="midnightblue" stroke="midnightblue" points="111.5,-58.18 115,-68.18 118.5,-58.18 111.5,-58.18"/>
</g>
<!-- Node2&#45;&gt;Node2 -->
<g id="edge3" class="edge">
<title>Node2&#45;&gt;Node2</title>
<path fill="none" stroke="#9a32cd" stroke-dasharray="5,2" d="M199.69,-87.84C204.58,-86.8 207.5,-85.35 207.5,-83.5 207.5,-80.61 200.38,-78.7 189.76,-77.78"/>
<polygon fill="#9a32cd" stroke="#9a32cd" points="199.19,-84.38 189.76,-89.22 200.15,-91.31 199.19,-84.38"/>
<text text-anchor="middle" x="221" y="-81" font-family="Helvetica,sans-Serif" font-size="10.00"> anker</text>
</g>
<!-- Node3 -->
<g id="node3" class="node">
<title>Node3</title>
<g id="a_node3"><a xlink:href="classcom_1_1tw_1_1paintbots_1_1_entity.xhtml" target="_top" xlink:title=" ">
<polygon fill="white" stroke="black" points="0,-146.5 0,-165.5 116,-165.5 116,-146.5 0,-146.5"/>
<text text-anchor="middle" x="58" y="-153.5" font-family="Helvetica,sans-Serif" font-size="10.00">com.tw.paintbots.Entity</text>
</a>
</g>
</g>
<!-- Node3&#45;&gt;Node2 -->
<g id="edge2" class="edge">
<title>Node3&#45;&gt;Node2</title>
<path fill="none" stroke="midnightblue" d="M71.43,-138.39C81.22,-126.28 94.34,-110.05 103.62,-98.58"/>
<polygon fill="midnightblue" stroke="midnightblue" points="68.55,-136.38 64.99,-146.36 74,-140.78 68.55,-136.38"/>
</g>
<!-- Node4 -->
<g id="node4" class="node">
<title>Node4</title>
<g id="a_node4"><a xlink:title=" ">
<polygon fill="white" stroke="#bfbfbf" points="133.5,-146.5 133.5,-165.5 212.5,-165.5 212.5,-146.5 133.5,-146.5"/>
<text text-anchor="middle" x="173" y="-153.5" font-family="Helvetica,sans-Serif" font-size="10.00">TextureRegion</text>
</a>
</g>
</g>
<!-- Node4&#45;&gt;Node2 -->
<g id="edge4" class="edge">
<title>Node4&#45;&gt;Node2</title>
<path fill="none" stroke="#9a32cd" stroke-dasharray="5,2" d="M159.34,-138.39C149.37,-126.28 136.02,-110.05 126.58,-98.58"/>
<polygon fill="#9a32cd" stroke="#9a32cd" points="156.83,-140.86 165.89,-146.36 162.24,-136.41 156.83,-140.86"/>
<text text-anchor="middle" x="181" y="-120" font-family="Helvetica,sans-Serif" font-size="10.00"> texture_region</text>
</g>
</g>
</svg>
