<?xml version="1.0" encoding="UTF-8" standalone="no"?>
<!DOCTYPE svg PUBLIC "-//W3C//DTD SVG 1.1//EN"
 "http://www.w3.org/Graphics/SVG/1.1/DTD/svg11.dtd">
<!-- Generated by graphviz version 2.49.3 (20211027.1534)
 -->
<!-- Title: com.tw.paintbots.Renderables.Renderable Pages: 1 -->
<svg width="864pt" height="431pt"
 viewBox="0.00 0.00 864.00 431.00" xmlns="http://www.w3.org/2000/svg" xmlns:xlink="http://www.w3.org/1999/xlink">
<g id="graph0" class="graph" transform="scale(1 1) rotate(0) translate(4 427)">
<title>com.tw.paintbots.Renderables.Renderable</title>
<polygon fill="white" stroke="transparent" points="-4,4 -4,-427 860,-427 860,4 -4,4"/>
<!-- Node1 -->
<g id="node1" class="node">
<title>Node1</title>
<g id="a_node1"><a xlink:title=" ">
<polygon fill="#bfbfbf" stroke="black" points="152,-244.5 152,-274.5 301,-274.5 301,-244.5 152,-244.5"/>
<text text-anchor="start" x="160" y="-262.5" font-family="Helvetica,sans-Serif" font-size="10.00">com.tw.paintbots.Renderables.</text>
<text text-anchor="middle" x="226.5" y="-251.5" font-family="Helvetica,sans-Serif" font-size="10.00">Renderable</text>
</a>
</g>
</g>
<!-- Node3 -->
<g id="node3" class="node">
<title>Node3</title>
<g id="a_node3"><a xlink:href="classcom_1_1tw_1_1paintbots_1_1_renderables_1_1_canvas.xhtml" target="_top" xlink:title=" ">
<polygon fill="white" stroke="black" points="337,-318.5 337,-348.5 486,-348.5 486,-318.5 337,-318.5"/>
<text text-anchor="start" x="345" y="-336.5" font-family="Helvetica,sans-Serif" font-size="10.00">com.tw.paintbots.Renderables.</text>
<text text-anchor="middle" x="411.5" y="-325.5" font-family="Helvetica,sans-Serif" font-size="10.00">Canvas</text>
</a>
</g>
</g>
<!-- Node1&#45;&gt;Node3 -->
<g id="edge2" class="edge">
<title>Node1&#45;&gt;Node3</title>
<path fill="none" stroke="midnightblue" d="M268.57,-278.97C288.96,-288.35 314.07,-299.49 337,-308.5 345.66,-311.9 354.99,-315.28 364,-318.41"/>
<polygon fill="midnightblue" stroke="midnightblue" points="269.81,-275.69 259.27,-274.66 266.87,-282.04 269.81,-275.69"/>
</g>
<!-- Node4 -->
<g id="node4" class="node">
<title>Node4</title>
<g id="a_node4"><a xlink:href="classcom_1_1tw_1_1paintbots_1_1_renderables_1_1_multi_layer_renderable.xhtml" target="_top" xlink:title=" ">
<polygon fill="white" stroke="black" points="337,-269.5 337,-299.5 486,-299.5 486,-269.5 337,-269.5"/>
<text text-anchor="start" x="345" y="-287.5" font-family="Helvetica,sans-Serif" font-size="10.00">com.tw.paintbots.Renderables.</text>
<text text-anchor="middle" x="411.5" y="-276.5" font-family="Helvetica,sans-Serif" font-size="10.00">MultiLayerRenderable</text>
</a>
</g>
</g>
<!-- Node1&#45;&gt;Node4 -->
<g id="edge3" class="edge">
<title>Node1&#45;&gt;Node4</title>
<path fill="none" stroke="midnightblue" d="M311.11,-270.92C319.65,-272.09 328.28,-273.27 336.71,-274.42"/>
<polygon fill="midnightblue" stroke="midnightblue" points="311.52,-267.45 301.14,-269.56 310.58,-274.38 311.52,-267.45"/>
</g>
<!-- Node5 -->
<g id="node5" class="node">
<title>Node5</title>
<g id="a_node5"><a xlink:href="classcom_1_1tw_1_1paintbots_1_1_renderables_1_1_simple_renderable.xhtml" target="_top" xlink:title=" ">
<polygon fill="white" stroke="black" points="337,-220.5 337,-250.5 486,-250.5 486,-220.5 337,-220.5"/>
<text text-anchor="start" x="345" y="-238.5" font-family="Helvetica,sans-Serif" font-size="10.00">com.tw.paintbots.Renderables.</text>
<text text-anchor="middle" x="411.5" y="-227.5" font-family="Helvetica,sans-Serif" font-size="10.00">SimpleRenderable</text>
</a>
</g>
</g>
<!-- Node1&#45;&gt;Node5 -->
<g id="edge4" class="edge">
<title>Node1&#45;&gt;Node5</title>
<path fill="none" stroke="midnightblue" d="M311.11,-248.53C319.65,-247.41 328.28,-246.28 336.71,-245.18"/>
<polygon fill="midnightblue" stroke="midnightblue" points="310.6,-245.07 301.14,-249.84 311.51,-252.01 310.6,-245.07"/>
</g>
<!-- Node16 -->
<g id="node16" class="node">
<title>Node16</title>
<g id="a_node16"><a xlink:href="classcom_1_1tw_1_1paintbots_1_1_renderables_1_1_texture_grid.xhtml" target="_top" xlink:title=" ">
<polygon fill="white" stroke="black" points="337,-49.5 337,-79.5 486,-79.5 486,-49.5 337,-49.5"/>
<text text-anchor="start" x="345" y="-67.5" font-family="Helvetica,sans-Serif" font-size="10.00">com.tw.paintbots.Renderables.</text>
<text text-anchor="middle" x="411.5" y="-56.5" font-family="Helvetica,sans-Serif" font-size="10.00">TextureGrid</text>
</a>
</g>
</g>
<!-- Node1&#45;&gt;Node16 -->
<g id="edge15" class="edge">
<title>Node1&#45;&gt;Node16</title>
<path fill="none" stroke="midnightblue" d="M248.86,-236.74C286.62,-196.51 364.2,-113.84 396.21,-79.73"/>
<polygon fill="midnightblue" stroke="midnightblue" points="246.15,-234.51 241.86,-244.2 251.26,-239.3 246.15,-234.51"/>
</g>
<!-- Node2 -->
<g id="node2" class="node">
<title>Node2</title>
<g id="a_node2"><a xlink:href="classcom_1_1tw_1_1paintbots_1_1_entity.xhtml" target="_top" xlink:title=" ">
<polygon fill="white" stroke="black" points="0,-250 0,-269 116,-269 116,-250 0,-250"/>
<text text-anchor="middle" x="58" y="-257" font-family="Helvetica,sans-Serif" font-size="10.00">com.tw.paintbots.Entity</text>
</a>
</g>
</g>
<!-- Node2&#45;&gt;Node1 -->
<g id="edge1" class="edge">
<title>Node2&#45;&gt;Node1</title>
<path fill="none" stroke="midnightblue" d="M126.41,-259.5C134.81,-259.5 143.43,-259.5 151.92,-259.5"/>
<polygon fill="midnightblue" stroke="midnightblue" points="126.3,-256 116.3,-259.5 126.3,-263 126.3,-256"/>
</g>
<!-- Node6 -->
<g id="node6" class="node">
<title>Node6</title>
<g id="a_node6"><a xlink:href="classcom_1_1tw_1_1paintbots_1_1_items_1_1_item.xhtml" target="_top" xlink:title=" ">
<polygon fill="white" stroke="black" points="527,-396 527,-415 666,-415 666,-396 527,-396"/>
<text text-anchor="middle" x="596.5" y="-403" font-family="Helvetica,sans-Serif" font-size="10.00">com.tw.paintbots.Items.Item</text>
</a>
</g>
</g>
<!-- Node5&#45;&gt;Node6 -->
<g id="edge5" class="edge">
<title>Node5&#45;&gt;Node6</title>
<path fill="none" stroke="midnightblue" d="M482.71,-256.39C483.85,-257.38 484.95,-258.41 486,-259.5 525.9,-300.74 481.59,-342.75 522,-383.5 527.25,-388.8 533.72,-392.83 540.63,-395.9"/>
<polygon fill="midnightblue" stroke="midnightblue" points="484.75,-253.55 474.6,-250.51 480.65,-259.22 484.75,-253.55"/>
</g>
<!-- Node8 -->
<g id="node8" class="node">
<title>Node8</title>
<g id="a_node8"><a xlink:href="classcom_1_1tw_1_1paintbots_1_1_renderables_1_1_animated_renderable.xhtml" target="_top" xlink:title=" ">
<polygon fill="white" stroke="black" points="522,-343.5 522,-373.5 671,-373.5 671,-343.5 522,-343.5"/>
<text text-anchor="start" x="530" y="-361.5" font-family="Helvetica,sans-Serif" font-size="10.00">com.tw.paintbots.Renderables.</text>
<text text-anchor="middle" x="596.5" y="-350.5" font-family="Helvetica,sans-Serif" font-size="10.00">AnimatedRenderable</text>
</a>
</g>
</g>
<!-- Node5&#45;&gt;Node8 -->
<g id="edge7" class="edge">
<title>Node5&#45;&gt;Node8</title>
<path fill="none" stroke="midnightblue" d="M481.77,-256.11C483.23,-257.19 484.65,-258.31 486,-259.5 513.81,-283.86 494.19,-310.14 522,-334.5 525.94,-337.95 530.38,-340.91 535.09,-343.44"/>
<polygon fill="midnightblue" stroke="midnightblue" points="483.25,-252.91 472.91,-250.56 479.53,-258.84 483.25,-252.91"/>
</g>
<!-- Node11 -->
<g id="node11" class="node">
<title>Node11</title>
<g id="a_node11"><a xlink:href="classcom_1_1tw_1_1paintbots_1_1_renderables_1_1_repeated_renderable.xhtml" target="_top" xlink:title=" ">
<polygon fill="white" stroke="black" points="522,-294.5 522,-324.5 671,-324.5 671,-294.5 522,-294.5"/>
<text text-anchor="start" x="530" y="-312.5" font-family="Helvetica,sans-Serif" font-size="10.00">com.tw.paintbots.Renderables.</text>
<text text-anchor="middle" x="596.5" y="-301.5" font-family="Helvetica,sans-Serif" font-size="10.00">RepeatedRenderable</text>
</a>
</g>
</g>
<!-- Node5&#45;&gt;Node11 -->
<g id="edge10" class="edge">
<title>Node5&#45;&gt;Node11</title>
<path fill="none" stroke="midnightblue" d="M474.42,-254.25C478.39,-255.9 482.28,-257.65 486,-259.5 503.44,-268.17 504.61,-275.72 522,-284.5 529.22,-288.14 537.09,-291.45 544.92,-294.38"/>
<polygon fill="midnightblue" stroke="midnightblue" points="475.64,-250.97 465.05,-250.58 473.08,-257.48 475.64,-250.97"/>
</g>
<!-- Node12 -->
<g id="node12" class="node">
<title>Node12</title>
<g id="a_node12"><a xlink:href="classcom_1_1tw_1_1paintbots_1_1_renderables_1_1_u_i_menu_item.xhtml" target="_top" xlink:title=" ">
<polygon fill="white" stroke="black" points="522,-245.5 522,-275.5 671,-275.5 671,-245.5 522,-245.5"/>
<text text-anchor="start" x="530" y="-263.5" font-family="Helvetica,sans-Serif" font-size="10.00">com.tw.paintbots.Renderables.</text>
<text text-anchor="middle" x="596.5" y="-252.5" font-family="Helvetica,sans-Serif" font-size="10.00">UIMenuItem</text>
</a>
</g>
</g>
<!-- Node5&#45;&gt;Node12 -->
<g id="edge11" class="edge">
<title>Node5&#45;&gt;Node12</title>
<path fill="none" stroke="midnightblue" d="M496.11,-246.92C504.65,-248.09 513.28,-249.27 521.71,-250.42"/>
<polygon fill="midnightblue" stroke="midnightblue" points="496.52,-243.45 486.14,-245.56 495.58,-250.38 496.52,-243.45"/>
</g>
<!-- Node13 -->
<g id="node13" class="node">
<title>Node13</title>
<g id="a_node13"><a xlink:href="classcom_1_1tw_1_1paintbots_1_1_renderables_1_1_u_i_player_board.xhtml" target="_top" xlink:title=" ">
<polygon fill="white" stroke="black" points="522,-196.5 522,-226.5 671,-226.5 671,-196.5 522,-196.5"/>
<text text-anchor="start" x="530" y="-214.5" font-family="Helvetica,sans-Serif" font-size="10.00">com.tw.paintbots.Renderables.</text>
<text text-anchor="middle" x="596.5" y="-203.5" font-family="Helvetica,sans-Serif" font-size="10.00">UIPlayerBoard</text>
</a>
</g>
</g>
<!-- Node5&#45;&gt;Node13 -->
<g id="edge12" class="edge">
<title>Node5&#45;&gt;Node13</title>
<path fill="none" stroke="midnightblue" d="M496.11,-224.53C504.65,-223.41 513.28,-222.28 521.71,-221.18"/>
<polygon fill="midnightblue" stroke="midnightblue" points="495.6,-221.07 486.14,-225.84 496.51,-228.01 495.6,-221.07"/>
</g>
<!-- Node14 -->
<g id="node14" class="node">
<title>Node14</title>
<g id="a_node14"><a xlink:href="classcom_1_1tw_1_1paintbots_1_1_renderables_1_1_u_i_result_board.xhtml" target="_top" xlink:title=" ">
<polygon fill="white" stroke="black" points="522,-147.5 522,-177.5 671,-177.5 671,-147.5 522,-147.5"/>
<text text-anchor="start" x="530" y="-165.5" font-family="Helvetica,sans-Serif" font-size="10.00">com.tw.paintbots.Renderables.</text>
<text text-anchor="middle" x="596.5" y="-154.5" font-family="Helvetica,sans-Serif" font-size="10.00">UIResultBoard</text>
</a>
</g>
</g>
<!-- Node5&#45;&gt;Node14 -->
<g id="edge13" class="edge">
<title>Node5&#45;&gt;Node14</title>
<path fill="none" stroke="midnightblue" d="M453.08,-216.12C473.53,-206.66 498.85,-195.43 522,-186.5 530.02,-183.41 538.62,-180.36 547.01,-177.53"/>
<polygon fill="midnightblue" stroke="midnightblue" points="451.34,-213.06 443.76,-220.46 454.3,-219.41 451.34,-213.06"/>
</g>
<!-- Node15 -->
<g id="node15" class="node">
<title>Node15</title>
<g id="a_node15"><a xlink:href="classcom_1_1tw_1_1paintbots_1_1_renderables_1_1_u_i_timer.xhtml" target="_top" xlink:title=" ">
<polygon fill="white" stroke="black" points="522,-98.5 522,-128.5 671,-128.5 671,-98.5 522,-98.5"/>
<text text-anchor="start" x="530" y="-116.5" font-family="Helvetica,sans-Serif" font-size="10.00">com.tw.paintbots.Renderables.</text>
<text text-anchor="middle" x="596.5" y="-105.5" font-family="Helvetica,sans-Serif" font-size="10.00">UITimer</text>
</a>
</g>
</g>
<!-- Node5&#45;&gt;Node15 -->
<g id="edge14" class="edge">
<title>Node5&#45;&gt;Node15</title>
<path fill="none" stroke="midnightblue" d="M432.45,-212.85C452.95,-190.83 486.76,-157.81 522,-137.5 527.82,-134.15 534.16,-131.19 540.61,-128.6"/>
<polygon fill="midnightblue" stroke="midnightblue" points="429.69,-210.68 425.52,-220.42 434.85,-215.41 429.69,-210.68"/>
</g>
<!-- Node7 -->
<g id="node7" class="node">
<title>Node7</title>
<g id="a_node7"><a xlink:href="classcom_1_1tw_1_1paintbots_1_1_items_1_1_refill_place_base.xhtml" target="_top" xlink:title=" ">
<polygon fill="white" stroke="black" points="711.5,-392.5 711.5,-422.5 851.5,-422.5 851.5,-392.5 711.5,-392.5"/>
<text text-anchor="start" x="719.5" y="-410.5" font-family="Helvetica,sans-Serif" font-size="10.00">com.tw.paintbots.Items.Refill</text>
<text text-anchor="middle" x="781.5" y="-399.5" font-family="Helvetica,sans-Serif" font-size="10.00">PlaceBase</text>
</a>
</g>
</g>
<!-- Node6&#45;&gt;Node7 -->
<g id="edge6" class="edge">
<title>Node6&#45;&gt;Node7</title>
<path fill="none" stroke="midnightblue" d="M676.34,-406.36C688.02,-406.49 699.99,-406.62 711.45,-406.75"/>
<polygon fill="midnightblue" stroke="midnightblue" points="676.2,-402.86 666.16,-406.25 676.12,-409.86 676.2,-402.86"/>
</g>
<!-- Node9 -->
<g id="node9" class="node">
<title>Node9</title>
<g id="a_node9"><a xlink:href="classcom_1_1tw_1_1paintbots_1_1_renderables_1_1_direction_indicator.xhtml" target="_top" xlink:title=" ">
<polygon fill="white" stroke="black" points="707,-343.5 707,-373.5 856,-373.5 856,-343.5 707,-343.5"/>
<text text-anchor="start" x="715" y="-361.5" font-family="Helvetica,sans-Serif" font-size="10.00">com.tw.paintbots.Renderables.</text>
<text text-anchor="middle" x="781.5" y="-350.5" font-family="Helvetica,sans-Serif" font-size="10.00">DirectionIndicator</text>
</a>
</g>
</g>
<!-- Node8&#45;&gt;Node9 -->
<g id="edge8" class="edge">
<title>Node8&#45;&gt;Node9</title>
<path fill="none" stroke="midnightblue" d="M681.39,-358.5C689.84,-358.5 698.38,-358.5 706.71,-358.5"/>
<polygon fill="midnightblue" stroke="midnightblue" points="681.14,-355 671.14,-358.5 681.14,-362 681.14,-355"/>
</g>
<!-- Node10 -->
<g id="node10" class="node">
<title>Node10</title>
<g id="a_node10"><a xlink:href="classcom_1_1tw_1_1paintbots_1_1_renderables_1_1_player_animation.xhtml" target="_top" xlink:title=" ">
<polygon fill="white" stroke="black" points="707,-294.5 707,-324.5 856,-324.5 856,-294.5 707,-294.5"/>
<text text-anchor="start" x="715" y="-312.5" font-family="Helvetica,sans-Serif" font-size="10.00">com.tw.paintbots.Renderables.</text>
<text text-anchor="middle" x="781.5" y="-301.5" font-family="Helvetica,sans-Serif" font-size="10.00">PlayerAnimation</text>
</a>
</g>
</g>
<!-- Node8&#45;&gt;Node10 -->
<g id="edge9" class="edge">
<title>Node8&#45;&gt;Node10</title>
<path fill="none" stroke="midnightblue" d="M663.79,-340.75C683.62,-335.44 705.17,-329.67 724.29,-324.55"/>
<polygon fill="midnightblue" stroke="midnightblue" points="662.65,-337.43 653.9,-343.4 664.46,-344.19 662.65,-337.43"/>
</g>
<!-- Node17 -->
<g id="node17" class="node">
<title>Node17</title>
<g id="a_node17"><a xlink:href="classcom_1_1tw_1_1paintbots_1_1_renderables_1_1_u_i_color_bar.xhtml" target="_top" xlink:title=" ">
<polygon fill="white" stroke="black" points="522,-49.5 522,-79.5 671,-79.5 671,-49.5 522,-49.5"/>
<text text-anchor="start" x="530" y="-67.5" font-family="Helvetica,sans-Serif" font-size="10.00">com.tw.paintbots.Renderables.</text>
<text text-anchor="middle" x="596.5" y="-56.5" font-family="Helvetica,sans-Serif" font-size="10.00">UIColorBar</text>
</a>
</g>
</g>
<!-- Node16&#45;&gt;Node17 -->
<g id="edge16" class="edge">
<title>Node16&#45;&gt;Node17</title>
<path fill="none" stroke="midnightblue" d="M496.39,-64.5C504.84,-64.5 513.38,-64.5 521.71,-64.5"/>
<polygon fill="midnightblue" stroke="midnightblue" points="496.14,-61 486.14,-64.5 496.14,-68 496.14,-61"/>
</g>
<!-- Node18 -->
<g id="node18" class="node">
<title>Node18</title>
<g id="a_node18"><a xlink:href="classcom_1_1tw_1_1paintbots_1_1_renderables_1_1_u_i_digit.xhtml" target="_top" xlink:title=" ">
<polygon fill="white" stroke="black" points="522,-0.5 522,-30.5 671,-30.5 671,-0.5 522,-0.5"/>
<text text-anchor="start" x="530" y="-18.5" font-family="Helvetica,sans-Serif" font-size="10.00">com.tw.paintbots.Renderables.</text>
<text text-anchor="middle" x="596.5" y="-7.5" font-family="Helvetica,sans-Serif" font-size="10.00">UIDigit</text>
</a>
</g>
</g>
<!-- Node16&#45;&gt;Node18 -->
<g id="edge17" class="edge">
<title>Node16&#45;&gt;Node18</title>
<path fill="none" stroke="midnightblue" d="M478.79,-46.75C498.62,-41.44 520.17,-35.67 539.29,-30.55"/>
<polygon fill="midnightblue" stroke="midnightblue" points="477.65,-43.43 468.9,-49.4 479.46,-50.19 477.65,-43.43"/>
</g>
<!-- Node19 -->
<g id="node19" class="node">
<title>Node19</title>
<g id="a_node19"><a xlink:href="classcom_1_1tw_1_1paintbots_1_1_renderables_1_1_start_timer.xhtml" target="_top" xlink:title=" ">
<polygon fill="white" stroke="black" points="707,-0.5 707,-30.5 856,-30.5 856,-0.5 707,-0.5"/>
<text text-anchor="start" x="715" y="-18.5" font-family="Helvetica,sans-Serif" font-size="10.00">com.tw.paintbots.Renderables.</text>
<text text-anchor="middle" x="781.5" y="-7.5" font-family="Helvetica,sans-Serif" font-size="10.00">StartTimer</text>
</a>
</g>
</g>
<!-- Node18&#45;&gt;Node19 -->
<g id="edge18" class="edge">
<title>Node18&#45;&gt;Node19</title>
<path fill="none" stroke="midnightblue" d="M681.39,-15.5C689.84,-15.5 698.38,-15.5 706.71,-15.5"/>
<polygon fill="midnightblue" stroke="midnightblue" points="681.14,-12 671.14,-15.5 681.14,-19 681.14,-12"/>
</g>
</g>
</svg>
