<?xml version="1.0" encoding="UTF-8" standalone="no"?>
<!DOCTYPE svg PUBLIC "-//W3C//DTD SVG 1.1//EN"
 "http://www.w3.org/Graphics/SVG/1.1/DTD/svg11.dtd">
<!-- Generated by graphviz version 2.49.3 (20211027.1534)
 -->
<!-- Title: com.tw.paintbots.Renderables.MultiLayerRenderable Pages: 1 -->
<svg width="375pt" height="184pt"
 viewBox="0.00 0.00 375.00 184.00" xmlns="http://www.w3.org/2000/svg" xmlns:xlink="http://www.w3.org/1999/xlink">
<g id="graph0" class="graph" transform="scale(1 1) rotate(0) translate(4 180)">
<title>com.tw.paintbots.Renderables.MultiLayerRenderable</title>
<polygon fill="white" stroke="transparent" points="-4,4 -4,-180 371,-180 371,4 -4,4"/>
<!-- Node1 -->
<g id="node1" class="node">
<title>Node1</title>
<g id="a_node1"><a xlink:title=" ">
<polygon fill="#bfbfbf" stroke="black" points="156,-0.5 156,-30.5 305,-30.5 305,-0.5 156,-0.5"/>
<text text-anchor="start" x="164" y="-18.5" font-family="Helvetica,sans-Serif" font-size="10.00">com.tw.paintbots.Renderables.</text>
<text text-anchor="middle" x="230.5" y="-7.5" font-family="Helvetica,sans-Serif" font-size="10.00">MultiLayerRenderable</text>
</a>
</g>
</g>
<!-- Node2 -->
<g id="node2" class="node">
<title>Node2</title>
<g id="a_node2"><a xlink:href="classcom_1_1tw_1_1paintbots_1_1_renderables_1_1_renderable.xhtml" target="_top" xlink:title=" ">
<polygon fill="white" stroke="black" points="0,-78.5 0,-108.5 149,-108.5 149,-78.5 0,-78.5"/>
<text text-anchor="start" x="8" y="-96.5" font-family="Helvetica,sans-Serif" font-size="10.00">com.tw.paintbots.Renderables.</text>
<text text-anchor="middle" x="74.5" y="-85.5" font-family="Helvetica,sans-Serif" font-size="10.00">Renderable</text>
</a>
</g>
</g>
<!-- Node2&#45;&gt;Node1 -->
<g id="edge1" class="edge">
<title>Node2&#45;&gt;Node1</title>
<path fill="none" stroke="midnightblue" d="M112.78,-73.85C140.24,-60.47 176.66,-42.73 201.68,-30.54"/>
<polygon fill="midnightblue" stroke="midnightblue" points="110.93,-70.86 103.48,-78.38 114,-77.15 110.93,-70.86"/>
</g>
<!-- Node2&#45;&gt;Node2 -->
<g id="edge3" class="edge">
<title>Node2&#45;&gt;Node2</title>
<path fill="none" stroke="#9a32cd" stroke-dasharray="5,2" d="M159.19,-98.35C164.08,-97.19 167,-95.57 167,-93.5 167,-90.27 159.88,-88.14 149.26,-87.11"/>
<polygon fill="#9a32cd" stroke="#9a32cd" points="158.61,-94.9 149.26,-99.89 159.68,-101.82 158.61,-94.9"/>
<text text-anchor="middle" x="180.5" y="-91" font-family="Helvetica,sans-Serif" font-size="10.00"> anker</text>
</g>
<!-- Node3 -->
<g id="node3" class="node">
<title>Node3</title>
<g id="a_node3"><a xlink:href="classcom_1_1tw_1_1paintbots_1_1_entity.xhtml" target="_top" xlink:title=" ">
<polygon fill="white" stroke="black" points="16.5,-156.5 16.5,-175.5 132.5,-175.5 132.5,-156.5 16.5,-156.5"/>
<text text-anchor="middle" x="74.5" y="-163.5" font-family="Helvetica,sans-Serif" font-size="10.00">com.tw.paintbots.Entity</text>
</a>
</g>
</g>
<!-- Node3&#45;&gt;Node2 -->
<g id="edge2" class="edge">
<title>Node3&#45;&gt;Node2</title>
<path fill="none" stroke="midnightblue" d="M74.5,-146.24C74.5,-134.41 74.5,-119.38 74.5,-108.58"/>
<polygon fill="midnightblue" stroke="midnightblue" points="71,-146.36 74.5,-156.36 78,-146.36 71,-146.36"/>
</g>
<!-- Node4 -->
<g id="node4" class="node">
<title>Node4</title>
<g id="a_node4"><a xlink:title=" ">
<polygon fill="white" stroke="#bfbfbf" points="171,-156.5 171,-175.5 250,-175.5 250,-156.5 171,-156.5"/>
<text text-anchor="middle" x="210.5" y="-163.5" font-family="Helvetica,sans-Serif" font-size="10.00">TextureRegion</text>
</a>
</g>
</g>
<!-- Node4&#45;&gt;Node1 -->
<g id="edge6" class="edge">
<title>Node4&#45;&gt;Node1</title>
<path fill="none" stroke="#9a32cd" stroke-dasharray="5,2" d="M214.95,-146.17C215.52,-143.44 216.05,-140.65 216.5,-138 222.98,-99.47 227.38,-53.56 229.34,-30.78"/>
<polygon fill="#9a32cd" stroke="#9a32cd" points="211.5,-145.52 212.74,-156.05 218.34,-147.05 211.5,-145.52"/>
<text text-anchor="middle" x="260" y="-91" font-family="Helvetica,sans-Serif" font-size="10.00"> texture_regions</text>
</g>
<!-- Node4&#45;&gt;Node2 -->
<g id="edge4" class="edge">
<title>Node4&#45;&gt;Node2</title>
<path fill="none" stroke="#9a32cd" stroke-dasharray="5,2" d="M181.9,-152.19C172.47,-147.83 161.97,-142.84 152.5,-138 134.27,-128.69 114.1,-117.42 98.84,-108.68"/>
<polygon fill="#9a32cd" stroke="#9a32cd" points="180.71,-155.49 191.26,-156.47 183.62,-149.13 180.71,-155.49"/>
<text text-anchor="middle" x="184.5" y="-130" font-family="Helvetica,sans-Serif" font-size="10.00"> texture_region</text>
</g>
<!-- Node5 -->
<g id="node5" class="node">
<title>Node5</title>
<g id="a_node5"><a xlink:title=" ">
<polygon fill="white" stroke="#bfbfbf" points="318,-84 318,-103 367,-103 367,-84 318,-84"/>
<text text-anchor="middle" x="342.5" y="-91" font-family="Helvetica,sans-Serif" font-size="10.00">Texture</text>
</a>
</g>
</g>
<!-- Node5&#45;&gt;Node1 -->
<g id="edge5" class="edge">
<title>Node5&#45;&gt;Node1</title>
<path fill="none" stroke="#9a32cd" stroke-dasharray="5,2" d="M321.17,-78.03C301.04,-64.37 271.07,-44.03 251.16,-30.52"/>
<polygon fill="#9a32cd" stroke="#9a32cd" points="319.41,-81.06 329.65,-83.78 323.34,-75.27 319.41,-81.06"/>
<text text-anchor="middle" x="311" y="-52" font-family="Helvetica,sans-Serif" font-size="10.00"> textures</text>
</g>
</g>
</svg>
