<?xml version="1.0" encoding="UTF-8" standalone="no"?>
<!DOCTYPE svg PUBLIC "-//W3C//DTD SVG 1.1//EN"
 "http://www.w3.org/Graphics/SVG/1.1/DTD/svg11.dtd">
<!-- Generated by graphviz version 2.49.3 (20211027.1534)
 -->
<!-- Title: com.tw.paintbots.PlayerState Pages: 1 -->
<svg width="372pt" height="117pt"
 viewBox="0.00 0.00 371.50 117.00" xmlns="http://www.w3.org/2000/svg" xmlns:xlink="http://www.w3.org/1999/xlink">
<g id="graph0" class="graph" transform="scale(1 1) rotate(0) translate(4 113)">
<title>com.tw.paintbots.PlayerState</title>
<polygon fill="white" stroke="transparent" points="-4,4 -4,-113 367.5,-113 367.5,4 -4,4"/>
<!-- Node1 -->
<g id="node1" class="node">
<title>Node1</title>
<g id="a_node1"><a xlink:title=" ">
<polygon fill="#bfbfbf" stroke="black" points="154,-0.5 154,-19.5 297,-19.5 297,-0.5 154,-0.5"/>
<text text-anchor="middle" x="225.5" y="-7.5" font-family="Helvetica,sans-Serif" font-size="10.00">com.tw.paintbots.PlayerState</text>
</a>
</g>
</g>
<!-- Node2 -->
<g id="node2" class="node">
<title>Node2</title>
<g id="a_node2"><a xlink:href="enumcom_1_1tw_1_1paintbots_1_1_paint_color.xhtml" target="_top" xlink:title=" ">
<polygon fill="white" stroke="black" points="0,-89.5 0,-108.5 137,-108.5 137,-89.5 0,-89.5"/>
<text text-anchor="middle" x="68.5" y="-96.5" font-family="Helvetica,sans-Serif" font-size="10.00">com.tw.paintbots.PaintColor</text>
</a>
</g>
</g>
<!-- Node2&#45;&gt;Node1 -->
<g id="edge1" class="edge">
<title>Node2&#45;&gt;Node1</title>
<path fill="none" stroke="#9a32cd" stroke-dasharray="5,2" d="M91.38,-84.11C112.09,-71.67 143.56,-53.1 171.5,-38 183.3,-31.62 196.8,-24.87 207.35,-19.72"/>
<polygon fill="#9a32cd" stroke="#9a32cd" points="89.42,-81.2 82.67,-89.36 93.04,-87.2 89.42,-81.2"/>
<text text-anchor="middle" x="196.5" y="-52" font-family="Helvetica,sans-Serif" font-size="10.00"> paint_color</text>
</g>
<!-- Node3 -->
<g id="node3" class="node">
<title>Node3</title>
<g id="a_node3"><a xlink:href="enumcom_1_1tw_1_1paintbots_1_1_player_type.xhtml" target="_top" xlink:title=" ">
<polygon fill="white" stroke="black" points="155.5,-89.5 155.5,-108.5 295.5,-108.5 295.5,-89.5 155.5,-89.5"/>
<text text-anchor="middle" x="225.5" y="-96.5" font-family="Helvetica,sans-Serif" font-size="10.00">com.tw.paintbots.PlayerType</text>
</a>
</g>
</g>
<!-- Node3&#45;&gt;Node1 -->
<g id="edge2" class="edge">
<title>Node3&#45;&gt;Node1</title>
<path fill="none" stroke="#9a32cd" stroke-dasharray="5,2" d="M225.5,-79.19C225.5,-60.74 225.5,-33.41 225.5,-19.62"/>
<polygon fill="#9a32cd" stroke="#9a32cd" points="222,-79.34 225.5,-89.34 229,-79.34 222,-79.34"/>
<text text-anchor="middle" x="236" y="-52" font-family="Helvetica,sans-Serif" font-size="10.00"> type</text>
</g>
<!-- Node4 -->
<g id="node4" class="node">
<title>Node4</title>
<g id="a_node4"><a xlink:title=" ">
<polygon fill="white" stroke="#bfbfbf" points="313.5,-89.5 313.5,-108.5 363.5,-108.5 363.5,-89.5 313.5,-89.5"/>
<text text-anchor="middle" x="338.5" y="-96.5" font-family="Helvetica,sans-Serif" font-size="10.00">Vector2</text>
</a>
</g>
</g>
<!-- Node4&#45;&gt;Node1 -->
<g id="edge3" class="edge">
<title>Node4&#45;&gt;Node1</title>
<path fill="none" stroke="#9a32cd" stroke-dasharray="5,2" d="M319.29,-83.21C295.56,-64.94 255.96,-34.45 236.7,-19.62"/>
<polygon fill="#9a32cd" stroke="#9a32cd" points="317.19,-86.01 327.25,-89.34 321.46,-80.47 317.19,-86.01"/>
<text text-anchor="middle" x="321.5" y="-63" font-family="Helvetica,sans-Serif" font-size="10.00"> dir</text>
<text text-anchor="middle" x="321.5" y="-52" font-family="Helvetica,sans-Serif" font-size="10.00">new_pos</text>
<text text-anchor="middle" x="321.5" y="-41" font-family="Helvetica,sans-Serif" font-size="10.00">old_pos</text>
</g>
</g>
</svg>
