<?xml version="1.0" encoding="UTF-8" standalone="no"?>
<!DOCTYPE svg PUBLIC "-//W3C//DTD SVG 1.1//EN"
 "http://www.w3.org/Graphics/SVG/1.1/DTD/svg11.dtd">
<!-- Generated by graphviz version 2.49.3 (20211027.1534)
 -->
<!-- Title: com.tw.paintbots.Items.Item Pages: 1 -->
<svg width="157pt" height="285pt"
 viewBox="0.00 0.00 157.00 285.00" xmlns="http://www.w3.org/2000/svg" xmlns:xlink="http://www.w3.org/1999/xlink">
<g id="graph0" class="graph" transform="scale(1 1) rotate(0) translate(4 281)">
<title>com.tw.paintbots.Items.Item</title>
<polygon fill="white" stroke="transparent" points="-4,4 -4,-281 153,-281 153,4 -4,4"/>
<!-- Node1 -->
<g id="node1" class="node">
<title>Node1</title>
<g id="a_node1"><a xlink:title=" ">
<polygon fill="#bfbfbf" stroke="black" points="5,-67.5 5,-86.5 144,-86.5 144,-67.5 5,-67.5"/>
<text text-anchor="middle" x="74.5" y="-74.5" font-family="Helvetica,sans-Serif" font-size="10.00">com.tw.paintbots.Items.Item</text>
</a>
</g>
</g>
<!-- Node5 -->
<g id="node5" class="node">
<title>Node5</title>
<g id="a_node5"><a xlink:href="classcom_1_1tw_1_1paintbots_1_1_items_1_1_refill_place_base.xhtml" target="_top" xlink:title=" ">
<polygon fill="white" stroke="black" points="4.5,-0.5 4.5,-30.5 144.5,-30.5 144.5,-0.5 4.5,-0.5"/>
<text text-anchor="start" x="12.5" y="-18.5" font-family="Helvetica,sans-Serif" font-size="10.00">com.tw.paintbots.Items.Refill</text>
<text text-anchor="middle" x="74.5" y="-7.5" font-family="Helvetica,sans-Serif" font-size="10.00">PlaceBase</text>
</a>
</g>
</g>
<!-- Node1&#45;&gt;Node5 -->
<g id="edge4" class="edge">
<title>Node1&#45;&gt;Node5</title>
<path fill="none" stroke="midnightblue" d="M74.5,-57.23C74.5,-48.59 74.5,-38.5 74.5,-30.52"/>
<polygon fill="midnightblue" stroke="midnightblue" points="71,-57.48 74.5,-67.48 78,-57.48 71,-57.48"/>
</g>
<!-- Node2 -->
<g id="node2" class="node">
<title>Node2</title>
<g id="a_node2"><a xlink:href="classcom_1_1tw_1_1paintbots_1_1_renderables_1_1_simple_renderable.xhtml" target="_top" xlink:title=" ">
<polygon fill="white" stroke="black" points="0,-123.5 0,-153.5 149,-153.5 149,-123.5 0,-123.5"/>
<text text-anchor="start" x="8" y="-141.5" font-family="Helvetica,sans-Serif" font-size="10.00">com.tw.paintbots.Renderables.</text>
<text text-anchor="middle" x="74.5" y="-130.5" font-family="Helvetica,sans-Serif" font-size="10.00">SimpleRenderable</text>
</a>
</g>
</g>
<!-- Node2&#45;&gt;Node1 -->
<g id="edge1" class="edge">
<title>Node2&#45;&gt;Node1</title>
<path fill="none" stroke="midnightblue" d="M74.5,-113.29C74.5,-103.86 74.5,-93.65 74.5,-86.66"/>
<polygon fill="midnightblue" stroke="midnightblue" points="71,-113.4 74.5,-123.4 78,-113.4 71,-113.4"/>
</g>
<!-- Node3 -->
<g id="node3" class="node">
<title>Node3</title>
<g id="a_node3"><a xlink:href="classcom_1_1tw_1_1paintbots_1_1_renderables_1_1_renderable.xhtml" target="_top" xlink:title=" ">
<polygon fill="white" stroke="black" points="0,-190.5 0,-220.5 149,-220.5 149,-190.5 0,-190.5"/>
<text text-anchor="start" x="8" y="-208.5" font-family="Helvetica,sans-Serif" font-size="10.00">com.tw.paintbots.Renderables.</text>
<text text-anchor="middle" x="74.5" y="-197.5" font-family="Helvetica,sans-Serif" font-size="10.00">Renderable</text>
</a>
</g>
</g>
<!-- Node3&#45;&gt;Node2 -->
<g id="edge2" class="edge">
<title>Node3&#45;&gt;Node2</title>
<path fill="none" stroke="midnightblue" d="M74.5,-180.11C74.5,-171.15 74.5,-161.32 74.5,-153.58"/>
<polygon fill="midnightblue" stroke="midnightblue" points="71,-180.4 74.5,-190.4 78,-180.4 71,-180.4"/>
</g>
<!-- Node4 -->
<g id="node4" class="node">
<title>Node4</title>
<g id="a_node4"><a xlink:href="classcom_1_1tw_1_1paintbots_1_1_entity.xhtml" target="_top" xlink:title=" ">
<polygon fill="white" stroke="black" points="16.5,-257.5 16.5,-276.5 132.5,-276.5 132.5,-257.5 16.5,-257.5"/>
<text text-anchor="middle" x="74.5" y="-264.5" font-family="Helvetica,sans-Serif" font-size="10.00">com.tw.paintbots.Entity</text>
</a>
</g>
</g>
<!-- Node4&#45;&gt;Node3 -->
<g id="edge3" class="edge">
<title>Node4&#45;&gt;Node3</title>
<path fill="none" stroke="midnightblue" d="M74.5,-247.23C74.5,-238.59 74.5,-228.5 74.5,-220.52"/>
<polygon fill="midnightblue" stroke="midnightblue" points="71,-247.48 74.5,-257.48 78,-247.48 71,-247.48"/>
</g>
</g>
</svg>
