<?xml version="1.0" encoding="UTF-8" standalone="no"?>
<!DOCTYPE svg PUBLIC "-//W3C//DTD SVG 1.1//EN"
 "http://www.w3.org/Graphics/SVG/1.1/DTD/svg11.dtd">
<!-- Generated by graphviz version 2.49.3 (20211027.1534)
 -->
<!-- Title: com.tw.paintbots.GameSettings Pages: 1 -->
<svg width="251pt" height="106pt"
 viewBox="0.00 0.00 251.00 106.00" xmlns="http://www.w3.org/2000/svg" xmlns:xlink="http://www.w3.org/1999/xlink">
<g id="graph0" class="graph" transform="scale(1 1) rotate(0) translate(4 102)">
<title>com.tw.paintbots.GameSettings</title>
<polygon fill="white" stroke="transparent" points="-4,4 -4,-102 247,-102 247,4 -4,4"/>
<!-- Node1 -->
<g id="node1" class="node">
<title>Node1</title>
<g id="a_node1"><a xlink:title=" ">
<polygon fill="#bfbfbf" stroke="black" points="48.5,-0.5 48.5,-19.5 203.5,-19.5 203.5,-0.5 48.5,-0.5"/>
<text text-anchor="middle" x="126" y="-7.5" font-family="Helvetica,sans-Serif" font-size="10.00">com.tw.paintbots.GameSettings</text>
</a>
</g>
</g>
<!-- Node2 -->
<g id="node2" class="node">
<title>Node2</title>
<g id="a_node2"><a xlink:href="enumcom_1_1tw_1_1paintbots_1_1_player_type.xhtml" target="_top" xlink:title=" ">
<polygon fill="white" stroke="black" points="0,-78.5 0,-97.5 140,-97.5 140,-78.5 0,-78.5"/>
<text text-anchor="middle" x="70" y="-85.5" font-family="Helvetica,sans-Serif" font-size="10.00">com.tw.paintbots.PlayerType</text>
</a>
</g>
</g>
<!-- Node2&#45;&gt;Node1 -->
<g id="edge1" class="edge">
<title>Node2&#45;&gt;Node1</title>
<path fill="none" stroke="#9a32cd" stroke-dasharray="5,2" d="M81.56,-69.65C87.99,-60.17 96.25,-48.3 104,-38 108.65,-31.82 114.15,-25.07 118.49,-19.86"/>
<polygon fill="#9a32cd" stroke="#9a32cd" points="78.5,-67.93 75.82,-78.18 84.31,-71.84 78.5,-67.93"/>
<text text-anchor="middle" x="132.5" y="-46.5" font-family="Helvetica,sans-Serif" font-size="10.00"> player_types</text>
</g>
<!-- Node3 -->
<g id="node3" class="node">
<title>Node3</title>
<g id="a_node3"><a xlink:title=" ">
<polygon fill="white" stroke="#bfbfbf" points="158,-78.5 158,-97.5 208,-97.5 208,-78.5 158,-78.5"/>
<text text-anchor="middle" x="183" y="-85.5" font-family="Helvetica,sans-Serif" font-size="10.00">Vector2</text>
</a>
</g>
</g>
<!-- Node3&#45;&gt;Node1 -->
<g id="edge2" class="edge">
<title>Node3&#45;&gt;Node1</title>
<path fill="none" stroke="#9a32cd" stroke-dasharray="5,2" d="M177.27,-68.79C173.62,-59.02 168.21,-47.14 161,-38 155.3,-30.77 147.25,-24.38 140.31,-19.64"/>
<polygon fill="#9a32cd" stroke="#9a32cd" points="173.99,-70.02 180.54,-78.34 180.61,-67.75 173.99,-70.02"/>
<text text-anchor="middle" x="208" y="-52" font-family="Helvetica,sans-Serif" font-size="10.00"> start_directions</text>
<text text-anchor="middle" x="208" y="-41" font-family="Helvetica,sans-Serif" font-size="10.00">start_positions</text>
</g>
</g>
</svg>
