<?xml version="1.0" encoding="UTF-8" standalone="no"?>
<!DOCTYPE svg PUBLIC "-//W3C//DTD SVG 1.1//EN"
 "http://www.w3.org/Graphics/SVG/1.1/DTD/svg11.dtd">
<!-- Generated by graphviz version 2.49.3 (20211027.1534)
 -->
<!-- Title: com.tw.paintbots.Items.PowerUp Pages: 1 -->
<svg width="363pt" height="241pt"
 viewBox="0.00 0.00 362.50 241.00" xmlns="http://www.w3.org/2000/svg" xmlns:xlink="http://www.w3.org/1999/xlink">
<g id="graph0" class="graph" transform="scale(1 1) rotate(0) translate(4 237)">
<title>com.tw.paintbots.Items.PowerUp</title>
<polygon fill="white" stroke="transparent" points="-4,4 -4,-237 358.5,-237 358.5,4 -4,4"/>
<!-- Node1 -->
<g id="node1" class="node">
<title>Node1</title>
<g id="a_node1"><a xlink:title=" ">
<polygon fill="#bfbfbf" stroke="black" points="159,-0.5 159,-19.5 319,-19.5 319,-0.5 159,-0.5"/>
<text text-anchor="middle" x="239" y="-7.5" font-family="Helvetica,sans-Serif" font-size="10.00">com.tw.paintbots.Items.PowerUp</text>
</a>
</g>
</g>
<!-- Node2 -->
<g id="node2" class="node">
<title>Node2</title>
<g id="a_node2"><a xlink:href="classcom_1_1tw_1_1paintbots_1_1_renderables_1_1_texture_grid.xhtml" target="_top" xlink:title=" ">
<polygon fill="white" stroke="black" points="40.5,-67.5 40.5,-97.5 189.5,-97.5 189.5,-67.5 40.5,-67.5"/>
<text text-anchor="start" x="48.5" y="-85.5" font-family="Helvetica,sans-Serif" font-size="10.00">com.tw.paintbots.Renderables.</text>
<text text-anchor="middle" x="115" y="-74.5" font-family="Helvetica,sans-Serif" font-size="10.00">TextureGrid</text>
</a>
</g>
</g>
<!-- Node2&#45;&gt;Node1 -->
<g id="edge1" class="edge">
<title>Node2&#45;&gt;Node1</title>
<path fill="none" stroke="midnightblue" d="M148.8,-62.28C173.37,-48.31 205.46,-30.07 223.99,-19.53"/>
<polygon fill="midnightblue" stroke="midnightblue" points="146.76,-59.42 139.8,-67.4 150.22,-65.5 146.76,-59.42"/>
</g>
<!-- Node3 -->
<g id="node3" class="node">
<title>Node3</title>
<g id="a_node3"><a xlink:href="classcom_1_1tw_1_1paintbots_1_1_renderables_1_1_renderable.xhtml" target="_top" xlink:title=" ">
<polygon fill="white" stroke="black" points="40.5,-135.5 40.5,-165.5 189.5,-165.5 189.5,-135.5 40.5,-135.5"/>
<text text-anchor="start" x="48.5" y="-153.5" font-family="Helvetica,sans-Serif" font-size="10.00">com.tw.paintbots.Renderables.</text>
<text text-anchor="middle" x="115" y="-142.5" font-family="Helvetica,sans-Serif" font-size="10.00">Renderable</text>
</a>
</g>
</g>
<!-- Node3&#45;&gt;Node2 -->
<g id="edge2" class="edge">
<title>Node3&#45;&gt;Node2</title>
<path fill="none" stroke="midnightblue" d="M115,-125.03C115,-115.86 115,-105.74 115,-97.79"/>
<polygon fill="midnightblue" stroke="midnightblue" points="111.5,-125.18 115,-135.18 118.5,-125.18 111.5,-125.18"/>
</g>
<!-- Node3&#45;&gt;Node3 -->
<g id="edge4" class="edge">
<title>Node3&#45;&gt;Node3</title>
<path fill="none" stroke="#9a32cd" stroke-dasharray="5,2" d="M199.69,-154.84C204.58,-153.8 207.5,-152.35 207.5,-150.5 207.5,-147.61 200.38,-145.7 189.76,-144.78"/>
<polygon fill="#9a32cd" stroke="#9a32cd" points="199.19,-151.38 189.76,-156.22 200.15,-158.31 199.19,-151.38"/>
<text text-anchor="middle" x="221" y="-148" font-family="Helvetica,sans-Serif" font-size="10.00"> anker</text>
</g>
<!-- Node4 -->
<g id="node4" class="node">
<title>Node4</title>
<g id="a_node4"><a xlink:href="classcom_1_1tw_1_1paintbots_1_1_entity.xhtml" target="_top" xlink:title=" ">
<polygon fill="white" stroke="black" points="0,-213.5 0,-232.5 116,-232.5 116,-213.5 0,-213.5"/>
<text text-anchor="middle" x="58" y="-220.5" font-family="Helvetica,sans-Serif" font-size="10.00">com.tw.paintbots.Entity</text>
</a>
</g>
</g>
<!-- Node4&#45;&gt;Node3 -->
<g id="edge3" class="edge">
<title>Node4&#45;&gt;Node3</title>
<path fill="none" stroke="midnightblue" d="M71.43,-205.39C81.22,-193.28 94.34,-177.05 103.62,-165.58"/>
<polygon fill="midnightblue" stroke="midnightblue" points="68.55,-203.38 64.99,-213.36 74,-207.78 68.55,-203.38"/>
</g>
<!-- Node5 -->
<g id="node5" class="node">
<title>Node5</title>
<g id="a_node5"><a xlink:title=" ">
<polygon fill="white" stroke="#bfbfbf" points="133.5,-213.5 133.5,-232.5 212.5,-232.5 212.5,-213.5 133.5,-213.5"/>
<text text-anchor="middle" x="173" y="-220.5" font-family="Helvetica,sans-Serif" font-size="10.00">TextureRegion</text>
</a>
</g>
</g>
<!-- Node5&#45;&gt;Node3 -->
<g id="edge5" class="edge">
<title>Node5&#45;&gt;Node3</title>
<path fill="none" stroke="#9a32cd" stroke-dasharray="5,2" d="M159.34,-205.39C149.37,-193.28 136.02,-177.05 126.58,-165.58"/>
<polygon fill="#9a32cd" stroke="#9a32cd" points="156.83,-207.86 165.89,-213.36 162.24,-203.41 156.83,-207.86"/>
<text text-anchor="middle" x="182" y="-187" font-family="Helvetica,sans-Serif" font-size="10.00"> texture_region</text>
</g>
<!-- Node6 -->
<g id="node6" class="node">
<title>Node6</title>
<g id="a_node6"><a xlink:href="enumcom_1_1tw_1_1paintbots_1_1_items_1_1_power_up_type.xhtml" target="_top" xlink:title=" ">
<polygon fill="white" stroke="black" points="207.5,-67.5 207.5,-97.5 354.5,-97.5 354.5,-67.5 207.5,-67.5"/>
<text text-anchor="start" x="215.5" y="-85.5" font-family="Helvetica,sans-Serif" font-size="10.00">com.tw.paintbots.Items.Power</text>
<text text-anchor="middle" x="281" y="-74.5" font-family="Helvetica,sans-Serif" font-size="10.00">UpType</text>
</a>
</g>
</g>
<!-- Node6&#45;&gt;Node1 -->
<g id="edge6" class="edge">
<title>Node6&#45;&gt;Node1</title>
<path fill="none" stroke="#9a32cd" stroke-dasharray="5,2" d="M267.37,-58.63C259.51,-45.42 250.06,-29.57 244.3,-19.89"/>
<polygon fill="#9a32cd" stroke="#9a32cd" points="264.38,-60.43 272.5,-67.23 270.39,-56.85 264.38,-60.43"/>
<text text-anchor="middle" x="271.5" y="-41" font-family="Helvetica,sans-Serif" font-size="10.00"> type</text>
</g>
</g>
</svg>
