<?xml version="1.0" encoding="UTF-8" standalone="no"?>
<!DOCTYPE svg PUBLIC "-//W3C//DTD SVG 1.1//EN"
 "http://www.w3.org/Graphics/SVG/1.1/DTD/svg11.dtd">
<!-- Generated by graphviz version 2.49.3 (20211027.1534)
 -->
<!-- Title: com.tw.paintbots.Renderables.UIResultBoard Pages: 1 -->
<svg width="310pt" height="252pt"
 viewBox="0.00 0.00 309.50 252.00" xmlns="http://www.w3.org/2000/svg" xmlns:xlink="http://www.w3.org/1999/xlink">
<g id="graph0" class="graph" transform="scale(1 1) rotate(0) translate(4 248)">
<title>com.tw.paintbots.Renderables.UIResultBoard</title>
<polygon fill="white" stroke="transparent" points="-4,4 -4,-248 305.5,-248 305.5,4 -4,4"/>
<!-- Node1 -->
<g id="node1" class="node">
<title>Node1</title>
<g id="a_node1"><a xlink:title=" ">
<polygon fill="#bfbfbf" stroke="black" points="121.5,-0.5 121.5,-30.5 270.5,-30.5 270.5,-0.5 121.5,-0.5"/>
<text text-anchor="start" x="129.5" y="-18.5" font-family="Helvetica,sans-Serif" font-size="10.00">com.tw.paintbots.Renderables.</text>
<text text-anchor="middle" x="196" y="-7.5" font-family="Helvetica,sans-Serif" font-size="10.00">UIResultBoard</text>
</a>
</g>
</g>
<!-- Node2 -->
<g id="node2" class="node">
<title>Node2</title>
<g id="a_node2"><a xlink:href="classcom_1_1tw_1_1paintbots_1_1_renderables_1_1_simple_renderable.xhtml" target="_top" xlink:title=" ">
<polygon fill="white" stroke="black" points="121.5,-68.5 121.5,-98.5 270.5,-98.5 270.5,-68.5 121.5,-68.5"/>
<text text-anchor="start" x="129.5" y="-86.5" font-family="Helvetica,sans-Serif" font-size="10.00">com.tw.paintbots.Renderables.</text>
<text text-anchor="middle" x="196" y="-75.5" font-family="Helvetica,sans-Serif" font-size="10.00">SimpleRenderable</text>
</a>
</g>
</g>
<!-- Node2&#45;&gt;Node1 -->
<g id="edge1" class="edge">
<title>Node2&#45;&gt;Node1</title>
<path fill="none" stroke="midnightblue" d="M196,-58.03C196,-48.86 196,-38.74 196,-30.79"/>
<polygon fill="midnightblue" stroke="midnightblue" points="192.5,-58.18 196,-68.18 199.5,-58.18 192.5,-58.18"/>
</g>
<!-- Node3 -->
<g id="node3" class="node">
<title>Node3</title>
<g id="a_node3"><a xlink:href="classcom_1_1tw_1_1paintbots_1_1_renderables_1_1_renderable.xhtml" target="_top" xlink:title=" ">
<polygon fill="white" stroke="black" points="40.5,-146.5 40.5,-176.5 189.5,-176.5 189.5,-146.5 40.5,-146.5"/>
<text text-anchor="start" x="48.5" y="-164.5" font-family="Helvetica,sans-Serif" font-size="10.00">com.tw.paintbots.Renderables.</text>
<text text-anchor="middle" x="115" y="-153.5" font-family="Helvetica,sans-Serif" font-size="10.00">Renderable</text>
</a>
</g>
</g>
<!-- Node3&#45;&gt;Node2 -->
<g id="edge2" class="edge">
<title>Node3&#45;&gt;Node2</title>
<path fill="none" stroke="midnightblue" d="M137.88,-139.03C151.63,-126.13 168.75,-110.07 180.83,-98.73"/>
<polygon fill="midnightblue" stroke="midnightblue" points="135.13,-136.81 130.24,-146.2 139.92,-141.91 135.13,-136.81"/>
</g>
<!-- Node3&#45;&gt;Node3 -->
<g id="edge4" class="edge">
<title>Node3&#45;&gt;Node3</title>
<path fill="none" stroke="#9a32cd" stroke-dasharray="5,2" d="M199.69,-166.35C204.58,-165.19 207.5,-163.57 207.5,-161.5 207.5,-158.27 200.38,-156.14 189.76,-155.11"/>
<polygon fill="#9a32cd" stroke="#9a32cd" points="199.11,-162.9 189.76,-167.89 200.18,-169.82 199.11,-162.9"/>
<text text-anchor="middle" x="221" y="-159" font-family="Helvetica,sans-Serif" font-size="10.00"> anker</text>
</g>
<!-- Node4 -->
<g id="node4" class="node">
<title>Node4</title>
<g id="a_node4"><a xlink:href="classcom_1_1tw_1_1paintbots_1_1_entity.xhtml" target="_top" xlink:title=" ">
<polygon fill="white" stroke="black" points="0,-224.5 0,-243.5 116,-243.5 116,-224.5 0,-224.5"/>
<text text-anchor="middle" x="58" y="-231.5" font-family="Helvetica,sans-Serif" font-size="10.00">com.tw.paintbots.Entity</text>
</a>
</g>
</g>
<!-- Node4&#45;&gt;Node3 -->
<g id="edge3" class="edge">
<title>Node4&#45;&gt;Node3</title>
<path fill="none" stroke="midnightblue" d="M71.43,-216.39C81.22,-204.28 94.34,-188.05 103.62,-176.58"/>
<polygon fill="midnightblue" stroke="midnightblue" points="68.55,-214.38 64.99,-224.36 74,-218.78 68.55,-214.38"/>
</g>
<!-- Node5 -->
<g id="node5" class="node">
<title>Node5</title>
<g id="a_node5"><a xlink:title=" ">
<polygon fill="white" stroke="#bfbfbf" points="133.5,-224.5 133.5,-243.5 212.5,-243.5 212.5,-224.5 133.5,-224.5"/>
<text text-anchor="middle" x="173" y="-231.5" font-family="Helvetica,sans-Serif" font-size="10.00">TextureRegion</text>
</a>
</g>
</g>
<!-- Node5&#45;&gt;Node3 -->
<g id="edge5" class="edge">
<title>Node5&#45;&gt;Node3</title>
<path fill="none" stroke="#9a32cd" stroke-dasharray="5,2" d="M159.34,-216.39C149.37,-204.28 136.02,-188.05 126.58,-176.58"/>
<polygon fill="#9a32cd" stroke="#9a32cd" points="156.83,-218.86 165.89,-224.36 162.24,-214.41 156.83,-218.86"/>
<text text-anchor="middle" x="182" y="-198" font-family="Helvetica,sans-Serif" font-size="10.00"> texture_region</text>
</g>
<!-- Node6 -->
<g id="node6" class="node">
<title>Node6</title>
<g id="a_node6"><a xlink:title=" ">
<polygon fill="white" stroke="#bfbfbf" points="252.5,-152 252.5,-171 301.5,-171 301.5,-152 252.5,-152"/>
<text text-anchor="middle" x="277" y="-159" font-family="Helvetica,sans-Serif" font-size="10.00">Texture</text>
</a>
</g>
</g>
<!-- Node6&#45;&gt;Node2 -->
<g id="edge6" class="edge">
<title>Node6&#45;&gt;Node2</title>
<path fill="none" stroke="#9a32cd" stroke-dasharray="5,2" d="M260.38,-144.9C245.85,-131.27 224.95,-111.66 210.94,-98.52"/>
<polygon fill="#9a32cd" stroke="#9a32cd" points="258.02,-147.49 267.71,-151.78 262.81,-142.39 258.02,-147.49"/>
<text text-anchor="middle" x="258" y="-120" font-family="Helvetica,sans-Serif" font-size="10.00"> texture</text>
</g>
</g>
</svg>
