<?xml version="1.0" encoding="UTF-8" standalone="no"?>
<!DOCTYPE svg PUBLIC "-//W3C//DTD SVG 1.1//EN"
 "http://www.w3.org/Graphics/SVG/1.1/DTD/svg11.dtd">
<!-- Generated by graphviz version 2.49.3 (20211027.1534)
 -->
<!-- Title: com.tw.paintbots.Entity Pages: 1 -->
<svg width="866pt" height="478pt"
 viewBox="0.00 0.00 866.00 477.50" xmlns="http://www.w3.org/2000/svg" xmlns:xlink="http://www.w3.org/1999/xlink">
<g id="graph0" class="graph" transform="scale(1 1) rotate(0) translate(4 473.5)">
<title>com.tw.paintbots.Entity</title>
<polygon fill="white" stroke="transparent" points="-4,4 -4,-473.5 862,-473.5 862,4 -4,4"/>
<!-- Node1 -->
<g id="node1" class="node">
<title>Node1</title>
<g id="a_node1"><a xlink:title=" ">
<polygon fill="#bfbfbf" stroke="black" points="0,-327 0,-346 116,-346 116,-327 0,-327"/>
<text text-anchor="middle" x="58" y="-334" font-family="Helvetica,sans-Serif" font-size="10.00">com.tw.paintbots.Entity</text>
</a>
</g>
</g>
<!-- Node2 -->
<g id="node2" class="node">
<title>Node2</title>
<g id="a_node2"><a xlink:href="classcom_1_1tw_1_1paintbots_1_1_player.xhtml" target="_top" xlink:title=" ">
<polygon fill="white" stroke="black" points="167,-393 167,-412 286,-412 286,-393 167,-393"/>
<text text-anchor="middle" x="226.5" y="-400" font-family="Helvetica,sans-Serif" font-size="10.00">com.tw.paintbots.Player</text>
</a>
</g>
</g>
<!-- Node1&#45;&gt;Node2 -->
<g id="edge1" class="edge">
<title>Node1&#45;&gt;Node2</title>
<path fill="none" stroke="midnightblue" d="M92.69,-349.86C125,-362.66 172.95,-381.67 201.53,-393"/>
<polygon fill="midnightblue" stroke="midnightblue" points="93.8,-346.53 83.21,-346.1 91.22,-353.04 93.8,-346.53"/>
</g>
<!-- Node7 -->
<g id="node7" class="node">
<title>Node7</title>
<g id="a_node7"><a xlink:href="classcom_1_1tw_1_1paintbots_1_1_renderables_1_1_renderable.xhtml" target="_top" xlink:title=" ">
<polygon fill="white" stroke="black" points="152,-275.5 152,-305.5 301,-305.5 301,-275.5 152,-275.5"/>
<text text-anchor="start" x="160" y="-293.5" font-family="Helvetica,sans-Serif" font-size="10.00">com.tw.paintbots.Renderables.</text>
<text text-anchor="middle" x="226.5" y="-282.5" font-family="Helvetica,sans-Serif" font-size="10.00">Renderable</text>
</a>
</g>
</g>
<!-- Node1&#45;&gt;Node7 -->
<g id="edge6" class="edge">
<title>Node1&#45;&gt;Node7</title>
<path fill="none" stroke="midnightblue" d="M103.34,-324.25C124.14,-318.5 149.12,-311.6 171.05,-305.54"/>
<polygon fill="midnightblue" stroke="midnightblue" points="102.21,-320.93 93.5,-326.97 104.07,-327.68 102.21,-320.93"/>
</g>
<!-- Node3 -->
<g id="node3" class="node">
<title>Node3</title>
<g id="a_node3"><a xlink:href="classcom_1_1tw_1_1paintbots_1_1_a_i_player.xhtml" target="_top" xlink:title=" ">
<polygon fill="white" stroke="black" points="348,-450 348,-469 477,-469 477,-450 348,-450"/>
<text text-anchor="middle" x="412.5" y="-457" font-family="Helvetica,sans-Serif" font-size="10.00">com.tw.paintbots.AIPlayer</text>
</a>
</g>
</g>
<!-- Node2&#45;&gt;Node3 -->
<g id="edge2" class="edge">
<title>Node2&#45;&gt;Node3</title>
<path fill="none" stroke="midnightblue" d="M262.58,-415.52C283.95,-423.24 311.88,-432.95 337,-440.5 348.12,-443.84 360.29,-447.11 371.51,-449.96"/>
<polygon fill="midnightblue" stroke="midnightblue" points="263.56,-412.15 252.97,-412.02 261.17,-418.73 263.56,-412.15"/>
</g>
<!-- Node5 -->
<g id="node5" class="node">
<title>Node5</title>
<g id="a_node5"><a xlink:href="classcom_1_1tw_1_1paintbots_1_1_human_player.xhtml" target="_top" xlink:title=" ">
<polygon fill="white" stroke="black" points="337,-412 337,-431 488,-431 488,-412 337,-412"/>
<text text-anchor="middle" x="412.5" y="-419" font-family="Helvetica,sans-Serif" font-size="10.00">com.tw.paintbots.HumanPlayer</text>
</a>
</g>
</g>
<!-- Node2&#45;&gt;Node5 -->
<g id="edge4" class="edge">
<title>Node2&#45;&gt;Node5</title>
<path fill="none" stroke="midnightblue" d="M296.2,-409.59C309.46,-410.96 323.4,-412.4 336.83,-413.79"/>
<polygon fill="midnightblue" stroke="midnightblue" points="296.53,-406.11 286.22,-408.56 295.81,-413.07 296.53,-406.11"/>
</g>
<!-- Node6 -->
<g id="node6" class="node">
<title>Node6</title>
<g id="a_node6"><a xlink:href="classcom_1_1tw_1_1paintbots_1_1_none_player.xhtml" target="_top" xlink:title=" ">
<polygon fill="white" stroke="black" points="341,-374 341,-393 484,-393 484,-374 341,-374"/>
<text text-anchor="middle" x="412.5" y="-381" font-family="Helvetica,sans-Serif" font-size="10.00">com.tw.paintbots.NonePlayer</text>
</a>
</g>
</g>
<!-- Node2&#45;&gt;Node6 -->
<g id="edge5" class="edge">
<title>Node2&#45;&gt;Node6</title>
<path fill="none" stroke="midnightblue" d="M296.58,-395.37C311.03,-393.88 326.28,-392.3 340.78,-390.8"/>
<polygon fill="midnightblue" stroke="midnightblue" points="295.81,-391.93 286.22,-396.44 296.53,-398.89 295.81,-391.93"/>
</g>
<!-- Node4 -->
<g id="node4" class="node">
<title>Node4</title>
<g id="a_node4"><a xlink:title=" ">
<polygon fill="white" stroke="#bfbfbf" points="527,-450 527,-469 670,-469 670,-450 527,-450"/>
<text text-anchor="middle" x="598.5" y="-457" font-family="Helvetica,sans-Serif" font-size="10.00">com.tw.paintbots.RandomBot</text>
</a>
</g>
</g>
<!-- Node3&#45;&gt;Node4 -->
<g id="edge3" class="edge">
<title>Node3&#45;&gt;Node4</title>
<path fill="none" stroke="midnightblue" d="M487.42,-459.5C500.47,-459.5 514.03,-459.5 526.99,-459.5"/>
<polygon fill="midnightblue" stroke="midnightblue" points="487.08,-456 477.08,-459.5 487.08,-463 487.08,-456"/>
</g>
<!-- Node8 -->
<g id="node8" class="node">
<title>Node8</title>
<g id="a_node8"><a xlink:href="classcom_1_1tw_1_1paintbots_1_1_renderables_1_1_canvas.xhtml" target="_top" xlink:title=" ">
<polygon fill="white" stroke="black" points="338,-324.5 338,-354.5 487,-354.5 487,-324.5 338,-324.5"/>
<text text-anchor="start" x="346" y="-342.5" font-family="Helvetica,sans-Serif" font-size="10.00">com.tw.paintbots.Renderables.</text>
<text text-anchor="middle" x="412.5" y="-331.5" font-family="Helvetica,sans-Serif" font-size="10.00">Canvas</text>
</a>
</g>
</g>
<!-- Node7&#45;&gt;Node8 -->
<g id="edge7" class="edge">
<title>Node7&#45;&gt;Node8</title>
<path fill="none" stroke="midnightblue" d="M293.68,-308.12C313.81,-313.48 335.73,-319.32 355.15,-324.49"/>
<polygon fill="midnightblue" stroke="midnightblue" points="294.52,-304.73 283.96,-305.53 292.72,-311.49 294.52,-304.73"/>
</g>
<!-- Node9 -->
<g id="node9" class="node">
<title>Node9</title>
<g id="a_node9"><a xlink:href="classcom_1_1tw_1_1paintbots_1_1_renderables_1_1_multi_layer_renderable.xhtml" target="_top" xlink:title=" ">
<polygon fill="white" stroke="black" points="338,-275.5 338,-305.5 487,-305.5 487,-275.5 338,-275.5"/>
<text text-anchor="start" x="346" y="-293.5" font-family="Helvetica,sans-Serif" font-size="10.00">com.tw.paintbots.Renderables.</text>
<text text-anchor="middle" x="412.5" y="-282.5" font-family="Helvetica,sans-Serif" font-size="10.00">MultiLayerRenderable</text>
</a>
</g>
</g>
<!-- Node7&#45;&gt;Node9 -->
<g id="edge8" class="edge">
<title>Node7&#45;&gt;Node9</title>
<path fill="none" stroke="midnightblue" d="M311.03,-290.5C319.96,-290.5 329,-290.5 337.8,-290.5"/>
<polygon fill="midnightblue" stroke="midnightblue" points="311.01,-287 301.01,-290.5 311.01,-294 311.01,-287"/>
</g>
<!-- Node10 -->
<g id="node10" class="node">
<title>Node10</title>
<g id="a_node10"><a xlink:href="classcom_1_1tw_1_1paintbots_1_1_renderables_1_1_simple_renderable.xhtml" target="_top" xlink:title=" ">
<polygon fill="white" stroke="black" points="338,-226.5 338,-256.5 487,-256.5 487,-226.5 338,-226.5"/>
<text text-anchor="start" x="346" y="-244.5" font-family="Helvetica,sans-Serif" font-size="10.00">com.tw.paintbots.Renderables.</text>
<text text-anchor="middle" x="412.5" y="-233.5" font-family="Helvetica,sans-Serif" font-size="10.00">SimpleRenderable</text>
</a>
</g>
</g>
<!-- Node7&#45;&gt;Node10 -->
<g id="edge9" class="edge">
<title>Node7&#45;&gt;Node10</title>
<path fill="none" stroke="midnightblue" d="M293.68,-272.88C313.81,-267.52 335.73,-261.68 355.15,-256.51"/>
<polygon fill="midnightblue" stroke="midnightblue" points="292.72,-269.51 283.96,-275.47 294.52,-276.27 292.72,-269.51"/>
</g>
<!-- Node21 -->
<g id="node21" class="node">
<title>Node21</title>
<g id="a_node21"><a xlink:href="classcom_1_1tw_1_1paintbots_1_1_renderables_1_1_texture_grid.xhtml" target="_top" xlink:title=" ">
<polygon fill="white" stroke="black" points="338,-49.5 338,-79.5 487,-79.5 487,-49.5 338,-49.5"/>
<text text-anchor="start" x="346" y="-67.5" font-family="Helvetica,sans-Serif" font-size="10.00">com.tw.paintbots.Renderables.</text>
<text text-anchor="middle" x="412.5" y="-56.5" font-family="Helvetica,sans-Serif" font-size="10.00">TextureGrid</text>
</a>
</g>
</g>
<!-- Node7&#45;&gt;Node21 -->
<g id="edge20" class="edge">
<title>Node7&#45;&gt;Node21</title>
<path fill="none" stroke="midnightblue" d="M246.33,-267.37C284,-221.1 367.7,-118.3 399.2,-79.61"/>
<polygon fill="midnightblue" stroke="midnightblue" points="243.46,-265.36 239.86,-275.32 248.89,-269.78 243.46,-265.36"/>
</g>
<!-- Node11 -->
<g id="node11" class="node">
<title>Node11</title>
<g id="a_node11"><a xlink:href="classcom_1_1tw_1_1paintbots_1_1_items_1_1_item.xhtml" target="_top" xlink:title=" ">
<polygon fill="white" stroke="black" points="529,-396 529,-415 668,-415 668,-396 529,-396"/>
<text text-anchor="middle" x="598.5" y="-403" font-family="Helvetica,sans-Serif" font-size="10.00">com.tw.paintbots.Items.Item</text>
</a>
</g>
</g>
<!-- Node10&#45;&gt;Node11 -->
<g id="edge10" class="edge">
<title>Node10&#45;&gt;Node11</title>
<path fill="none" stroke="midnightblue" d="M483.46,-262.36C485.05,-263.66 486.57,-265.03 488,-266.5 525.98,-305.45 485.38,-345.18 524,-383.5 529.39,-388.85 536.02,-392.91 543.08,-395.98"/>
<polygon fill="midnightblue" stroke="midnightblue" points="485.2,-259.3 474.98,-256.51 481.23,-265.07 485.2,-259.3"/>
</g>
<!-- Node13 -->
<g id="node13" class="node">
<title>Node13</title>
<g id="a_node13"><a xlink:href="classcom_1_1tw_1_1paintbots_1_1_renderables_1_1_animated_renderable.xhtml" target="_top" xlink:title=" ">
<polygon fill="white" stroke="black" points="524,-343.5 524,-373.5 673,-373.5 673,-343.5 524,-343.5"/>
<text text-anchor="start" x="532" y="-361.5" font-family="Helvetica,sans-Serif" font-size="10.00">com.tw.paintbots.Renderables.</text>
<text text-anchor="middle" x="598.5" y="-350.5" font-family="Helvetica,sans-Serif" font-size="10.00">AnimatedRenderable</text>
</a>
</g>
</g>
<!-- Node10&#45;&gt;Node13 -->
<g id="edge12" class="edge">
<title>Node10&#45;&gt;Node13</title>
<path fill="none" stroke="midnightblue" d="M481.66,-261.74C483.88,-263.22 486,-264.8 488,-266.5 514.07,-288.63 497.84,-312.48 524,-334.5 528.11,-337.96 532.73,-340.92 537.6,-343.46"/>
<polygon fill="midnightblue" stroke="midnightblue" points="483.14,-258.55 472.74,-256.55 479.62,-264.6 483.14,-258.55"/>
</g>
<!-- Node16 -->
<g id="node16" class="node">
<title>Node16</title>
<g id="a_node16"><a xlink:href="classcom_1_1tw_1_1paintbots_1_1_renderables_1_1_repeated_renderable.xhtml" target="_top" xlink:title=" ">
<polygon fill="white" stroke="black" points="524,-294.5 524,-324.5 673,-324.5 673,-294.5 524,-294.5"/>
<text text-anchor="start" x="532" y="-312.5" font-family="Helvetica,sans-Serif" font-size="10.00">com.tw.paintbots.Renderables.</text>
<text text-anchor="middle" x="598.5" y="-301.5" font-family="Helvetica,sans-Serif" font-size="10.00">RepeatedRenderable</text>
</a>
</g>
</g>
<!-- Node10&#45;&gt;Node16 -->
<g id="edge15" class="edge">
<title>Node10&#45;&gt;Node16</title>
<path fill="none" stroke="midnightblue" d="M471.49,-259.93C477.11,-262.03 482.7,-264.23 488,-266.5 504.63,-273.62 507.34,-278.44 524,-285.5 531.54,-288.69 539.66,-291.73 547.66,-294.5"/>
<polygon fill="midnightblue" stroke="midnightblue" points="472.61,-256.62 462.02,-256.51 470.24,-263.2 472.61,-256.62"/>
</g>
<!-- Node17 -->
<g id="node17" class="node">
<title>Node17</title>
<g id="a_node17"><a xlink:href="classcom_1_1tw_1_1paintbots_1_1_renderables_1_1_u_i_menu_item.xhtml" target="_top" xlink:title=" ">
<polygon fill="white" stroke="black" points="524,-245.5 524,-275.5 673,-275.5 673,-245.5 524,-245.5"/>
<text text-anchor="start" x="532" y="-263.5" font-family="Helvetica,sans-Serif" font-size="10.00">com.tw.paintbots.Renderables.</text>
<text text-anchor="middle" x="598.5" y="-252.5" font-family="Helvetica,sans-Serif" font-size="10.00">UIMenuItem</text>
</a>
</g>
</g>
<!-- Node10&#45;&gt;Node17 -->
<g id="edge16" class="edge">
<title>Node10&#45;&gt;Node17</title>
<path fill="none" stroke="midnightblue" d="M497.03,-250.13C505.96,-251.05 515,-251.98 523.8,-252.89"/>
<polygon fill="midnightblue" stroke="midnightblue" points="497.32,-246.64 487.01,-249.09 496.6,-253.6 497.32,-246.64"/>
</g>
<!-- Node18 -->
<g id="node18" class="node">
<title>Node18</title>
<g id="a_node18"><a xlink:href="classcom_1_1tw_1_1paintbots_1_1_renderables_1_1_u_i_player_board.xhtml" target="_top" xlink:title=" ">
<polygon fill="white" stroke="black" points="524,-196.5 524,-226.5 673,-226.5 673,-196.5 524,-196.5"/>
<text text-anchor="start" x="532" y="-214.5" font-family="Helvetica,sans-Serif" font-size="10.00">com.tw.paintbots.Renderables.</text>
<text text-anchor="middle" x="598.5" y="-203.5" font-family="Helvetica,sans-Serif" font-size="10.00">UIPlayerBoard</text>
</a>
</g>
</g>
<!-- Node10&#45;&gt;Node18 -->
<g id="edge17" class="edge">
<title>Node10&#45;&gt;Node18</title>
<path fill="none" stroke="midnightblue" d="M497.03,-227.88C505.96,-226.42 515,-224.95 523.8,-223.52"/>
<polygon fill="midnightblue" stroke="midnightblue" points="496.32,-224.45 487.01,-229.51 497.45,-231.36 496.32,-224.45"/>
</g>
<!-- Node19 -->
<g id="node19" class="node">
<title>Node19</title>
<g id="a_node19"><a xlink:href="classcom_1_1tw_1_1paintbots_1_1_renderables_1_1_u_i_result_board.xhtml" target="_top" xlink:title=" ">
<polygon fill="white" stroke="black" points="524,-147.5 524,-177.5 673,-177.5 673,-147.5 524,-147.5"/>
<text text-anchor="start" x="532" y="-165.5" font-family="Helvetica,sans-Serif" font-size="10.00">com.tw.paintbots.Renderables.</text>
<text text-anchor="middle" x="598.5" y="-154.5" font-family="Helvetica,sans-Serif" font-size="10.00">UIResultBoard</text>
</a>
</g>
</g>
<!-- Node10&#45;&gt;Node19 -->
<g id="edge18" class="edge">
<title>Node10&#45;&gt;Node19</title>
<path fill="none" stroke="midnightblue" d="M451.09,-221.66C472.21,-210.88 499.24,-197.71 524,-187.5 532.35,-184.06 541.36,-180.7 550.12,-177.63"/>
<polygon fill="midnightblue" stroke="midnightblue" points="449.42,-218.58 442.12,-226.27 452.62,-224.81 449.42,-218.58"/>
</g>
<!-- Node20 -->
<g id="node20" class="node">
<title>Node20</title>
<g id="a_node20"><a xlink:href="classcom_1_1tw_1_1paintbots_1_1_renderables_1_1_u_i_timer.xhtml" target="_top" xlink:title=" ">
<polygon fill="white" stroke="black" points="524,-98.5 524,-128.5 673,-128.5 673,-98.5 524,-98.5"/>
<text text-anchor="start" x="532" y="-116.5" font-family="Helvetica,sans-Serif" font-size="10.00">com.tw.paintbots.Renderables.</text>
<text text-anchor="middle" x="598.5" y="-105.5" font-family="Helvetica,sans-Serif" font-size="10.00">UITimer</text>
</a>
</g>
</g>
<!-- Node10&#45;&gt;Node20 -->
<g id="edge19" class="edge">
<title>Node10&#45;&gt;Node20</title>
<path fill="none" stroke="midnightblue" d="M432.54,-218.82C453.01,-195.72 487.56,-160.3 524,-138.5 530.25,-134.76 537.13,-131.49 544.1,-128.65"/>
<polygon fill="midnightblue" stroke="midnightblue" points="429.84,-216.59 425.91,-226.43 435.11,-221.19 429.84,-216.59"/>
</g>
<!-- Node12 -->
<g id="node12" class="node">
<title>Node12</title>
<g id="a_node12"><a xlink:href="classcom_1_1tw_1_1paintbots_1_1_items_1_1_refill_place_base.xhtml" target="_top" xlink:title=" ">
<polygon fill="white" stroke="black" points="713.5,-392.5 713.5,-422.5 853.5,-422.5 853.5,-392.5 713.5,-392.5"/>
<text text-anchor="start" x="721.5" y="-410.5" font-family="Helvetica,sans-Serif" font-size="10.00">com.tw.paintbots.Items.Refill</text>
<text text-anchor="middle" x="783.5" y="-399.5" font-family="Helvetica,sans-Serif" font-size="10.00">PlaceBase</text>
</a>
</g>
</g>
<!-- Node11&#45;&gt;Node12 -->
<g id="edge11" class="edge">
<title>Node11&#45;&gt;Node12</title>
<path fill="none" stroke="midnightblue" d="M678.34,-406.36C690.02,-406.49 701.99,-406.62 713.45,-406.75"/>
<polygon fill="midnightblue" stroke="midnightblue" points="678.2,-402.86 668.16,-406.25 678.12,-409.86 678.2,-402.86"/>
</g>
<!-- Node14 -->
<g id="node14" class="node">
<title>Node14</title>
<g id="a_node14"><a xlink:href="classcom_1_1tw_1_1paintbots_1_1_renderables_1_1_direction_indicator.xhtml" target="_top" xlink:title=" ">
<polygon fill="white" stroke="black" points="709,-343.5 709,-373.5 858,-373.5 858,-343.5 709,-343.5"/>
<text text-anchor="start" x="717" y="-361.5" font-family="Helvetica,sans-Serif" font-size="10.00">com.tw.paintbots.Renderables.</text>
<text text-anchor="middle" x="783.5" y="-350.5" font-family="Helvetica,sans-Serif" font-size="10.00">DirectionIndicator</text>
</a>
</g>
</g>
<!-- Node13&#45;&gt;Node14 -->
<g id="edge13" class="edge">
<title>Node13&#45;&gt;Node14</title>
<path fill="none" stroke="midnightblue" d="M683.39,-358.5C691.84,-358.5 700.38,-358.5 708.71,-358.5"/>
<polygon fill="midnightblue" stroke="midnightblue" points="683.14,-355 673.14,-358.5 683.14,-362 683.14,-355"/>
</g>
<!-- Node15 -->
<g id="node15" class="node">
<title>Node15</title>
<g id="a_node15"><a xlink:href="classcom_1_1tw_1_1paintbots_1_1_renderables_1_1_player_animation.xhtml" target="_top" xlink:title=" ">
<polygon fill="white" stroke="black" points="709,-294.5 709,-324.5 858,-324.5 858,-294.5 709,-294.5"/>
<text text-anchor="start" x="717" y="-312.5" font-family="Helvetica,sans-Serif" font-size="10.00">com.tw.paintbots.Renderables.</text>
<text text-anchor="middle" x="783.5" y="-301.5" font-family="Helvetica,sans-Serif" font-size="10.00">PlayerAnimation</text>
</a>
</g>
</g>
<!-- Node13&#45;&gt;Node15 -->
<g id="edge14" class="edge">
<title>Node13&#45;&gt;Node15</title>
<path fill="none" stroke="midnightblue" d="M665.79,-340.75C685.62,-335.44 707.17,-329.67 726.29,-324.55"/>
<polygon fill="midnightblue" stroke="midnightblue" points="664.65,-337.43 655.9,-343.4 666.46,-344.19 664.65,-337.43"/>
</g>
<!-- Node22 -->
<g id="node22" class="node">
<title>Node22</title>
<g id="a_node22"><a xlink:href="classcom_1_1tw_1_1paintbots_1_1_renderables_1_1_u_i_color_bar.xhtml" target="_top" xlink:title=" ">
<polygon fill="white" stroke="black" points="524,-49.5 524,-79.5 673,-79.5 673,-49.5 524,-49.5"/>
<text text-anchor="start" x="532" y="-67.5" font-family="Helvetica,sans-Serif" font-size="10.00">com.tw.paintbots.Renderables.</text>
<text text-anchor="middle" x="598.5" y="-56.5" font-family="Helvetica,sans-Serif" font-size="10.00">UIColorBar</text>
</a>
</g>
</g>
<!-- Node21&#45;&gt;Node22 -->
<g id="edge21" class="edge">
<title>Node21&#45;&gt;Node22</title>
<path fill="none" stroke="midnightblue" d="M497.03,-64.5C505.96,-64.5 515,-64.5 523.8,-64.5"/>
<polygon fill="midnightblue" stroke="midnightblue" points="497.01,-61 487.01,-64.5 497.01,-68 497.01,-61"/>
</g>
<!-- Node23 -->
<g id="node23" class="node">
<title>Node23</title>
<g id="a_node23"><a xlink:href="classcom_1_1tw_1_1paintbots_1_1_renderables_1_1_u_i_digit.xhtml" target="_top" xlink:title=" ">
<polygon fill="white" stroke="black" points="524,-0.5 524,-30.5 673,-30.5 673,-0.5 524,-0.5"/>
<text text-anchor="start" x="532" y="-18.5" font-family="Helvetica,sans-Serif" font-size="10.00">com.tw.paintbots.Renderables.</text>
<text text-anchor="middle" x="598.5" y="-7.5" font-family="Helvetica,sans-Serif" font-size="10.00">UIDigit</text>
</a>
</g>
</g>
<!-- Node21&#45;&gt;Node23 -->
<g id="edge22" class="edge">
<title>Node21&#45;&gt;Node23</title>
<path fill="none" stroke="midnightblue" d="M479.68,-46.88C499.81,-41.52 521.73,-35.68 541.15,-30.51"/>
<polygon fill="midnightblue" stroke="midnightblue" points="478.72,-43.51 469.96,-49.47 480.52,-50.27 478.72,-43.51"/>
</g>
<!-- Node24 -->
<g id="node24" class="node">
<title>Node24</title>
<g id="a_node24"><a xlink:href="classcom_1_1tw_1_1paintbots_1_1_renderables_1_1_start_timer.xhtml" target="_top" xlink:title=" ">
<polygon fill="white" stroke="black" points="709,-0.5 709,-30.5 858,-30.5 858,-0.5 709,-0.5"/>
<text text-anchor="start" x="717" y="-18.5" font-family="Helvetica,sans-Serif" font-size="10.00">com.tw.paintbots.Renderables.</text>
<text text-anchor="middle" x="783.5" y="-7.5" font-family="Helvetica,sans-Serif" font-size="10.00">StartTimer</text>
</a>
</g>
</g>
<!-- Node23&#45;&gt;Node24 -->
<g id="edge23" class="edge">
<title>Node23&#45;&gt;Node24</title>
<path fill="none" stroke="midnightblue" d="M683.39,-15.5C691.84,-15.5 700.38,-15.5 708.71,-15.5"/>
<polygon fill="midnightblue" stroke="midnightblue" points="683.14,-12 673.14,-15.5 683.14,-19 683.14,-12"/>
</g>
</g>
</svg>
