<?xml version="1.0" encoding="UTF-8" standalone="no"?>
<!DOCTYPE svg PUBLIC "-//W3C//DTD SVG 1.1//EN"
 "http://www.w3.org/Graphics/SVG/1.1/DTD/svg11.dtd">
<!-- Generated by graphviz version 2.49.3 (20211027.1534)
 -->
<!-- Title: com.tw.paintbots.PlayerState Pages: 1 -->
<svg width="372pt" height="106pt"
 viewBox="0.00 0.00 371.50 106.00" xmlns="http://www.w3.org/2000/svg" xmlns:xlink="http://www.w3.org/1999/xlink">
<g id="graph0" class="graph" transform="scale(1 1) rotate(0) translate(4 102)">
<title>com.tw.paintbots.PlayerState</title>
<polygon fill="white" stroke="transparent" points="-4,4 -4,-102 367.5,-102 367.5,4 -4,4"/>
<!-- Node1 -->
<g id="node1" class="node">
<title>Node1</title>
<g id="a_node1"><a xlink:title=" ">
<polygon fill="#bfbfbf" stroke="black" points="154,-0.5 154,-19.5 297,-19.5 297,-0.5 154,-0.5"/>
<text text-anchor="middle" x="225.5" y="-7.5" font-family="Helvetica,sans-Serif" font-size="10.00">com.tw.paintbots.PlayerState</text>
</a>
</g>
</g>
<!-- Node2 -->
<g id="node2" class="node">
<title>Node2</title>
<g id="a_node2"><a xlink:href="enumcom_1_1tw_1_1paintbots_1_1_paint_color.xhtml" target="_top" xlink:title=" ">
<polygon fill="white" stroke="black" points="0,-78.5 0,-97.5 137,-97.5 137,-78.5 0,-78.5"/>
<text text-anchor="middle" x="68.5" y="-85.5" font-family="Helvetica,sans-Serif" font-size="10.00">com.tw.paintbots.PaintColor</text>
</a>
</g>
</g>
<!-- Node2&#45;&gt;Node1 -->
<g id="edge1" class="edge">
<title>Node2&#45;&gt;Node1</title>
<path fill="none" stroke="#9a32cd" stroke-dasharray="5,2" d="M95.45,-73.96C127.52,-58.43 180.18,-32.94 207.62,-19.66"/>
<polygon fill="#9a32cd" stroke="#9a32cd" points="93.68,-70.92 86.2,-78.43 96.73,-77.22 93.68,-70.92"/>
<text text-anchor="middle" x="191.5" y="-46.5" font-family="Helvetica,sans-Serif" font-size="10.00"> paint_color</text>
</g>
<!-- Node3 -->
<g id="node3" class="node">
<title>Node3</title>
<g id="a_node3"><a xlink:href="enumcom_1_1tw_1_1paintbots_1_1_player_type.xhtml" target="_top" xlink:title=" ">
<polygon fill="white" stroke="black" points="155.5,-78.5 155.5,-97.5 295.5,-97.5 295.5,-78.5 155.5,-78.5"/>
<text text-anchor="middle" x="225.5" y="-85.5" font-family="Helvetica,sans-Serif" font-size="10.00">com.tw.paintbots.PlayerType</text>
</a>
</g>
</g>
<!-- Node3&#45;&gt;Node1 -->
<g id="edge2" class="edge">
<title>Node3&#45;&gt;Node1</title>
<path fill="none" stroke="#9a32cd" stroke-dasharray="5,2" d="M225.5,-68.22C225.5,-52.7 225.5,-31.36 225.5,-19.62"/>
<polygon fill="#9a32cd" stroke="#9a32cd" points="222,-68.28 225.5,-78.28 229,-68.28 222,-68.28"/>
<text text-anchor="middle" x="236" y="-46.5" font-family="Helvetica,sans-Serif" font-size="10.00"> type</text>
</g>
<!-- Node4 -->
<g id="node4" class="node">
<title>Node4</title>
<g id="a_node4"><a xlink:title=" ">
<polygon fill="white" stroke="#bfbfbf" points="313.5,-78.5 313.5,-97.5 363.5,-97.5 363.5,-78.5 313.5,-78.5"/>
<text text-anchor="middle" x="338.5" y="-85.5" font-family="Helvetica,sans-Serif" font-size="10.00">Vector2</text>
</a>
</g>
</g>
<!-- Node4&#45;&gt;Node1 -->
<g id="edge3" class="edge">
<title>Node4&#45;&gt;Node1</title>
<path fill="none" stroke="#9a32cd" stroke-dasharray="5,2" d="M317.04,-72.57C293.79,-56.93 257.46,-32.5 238.31,-19.62"/>
<polygon fill="#9a32cd" stroke="#9a32cd" points="315.29,-75.61 325.54,-78.28 319.19,-69.8 315.29,-75.61"/>
<text text-anchor="middle" x="302.5" y="-52" font-family="Helvetica,sans-Serif" font-size="10.00"> dir</text>
<text text-anchor="middle" x="302.5" y="-41" font-family="Helvetica,sans-Serif" font-size="10.00">pos</text>
</g>
</g>
</svg>
