<?xml version="1.0" encoding="UTF-8" standalone="no"?>
<!DOCTYPE svg PUBLIC "-//W3C//DTD SVG 1.1//EN"
 "http://www.w3.org/Graphics/SVG/1.1/DTD/svg11.dtd">
<!-- Generated by graphviz version 2.49.3 (20211027.1534)
 -->
<!-- Title: com.tw.paintbots.Renderables.SimpleRenderable Pages: 1 -->
<svg width="864pt" height="333pt"
 viewBox="0.00 0.00 864.00 333.00" xmlns="http://www.w3.org/2000/svg" xmlns:xlink="http://www.w3.org/1999/xlink">
<g id="graph0" class="graph" transform="scale(1 1) rotate(0) translate(4 329)">
<title>com.tw.paintbots.Renderables.SimpleRenderable</title>
<polygon fill="white" stroke="transparent" points="-4,4 -4,-329 860,-329 860,4 -4,4"/>
<!-- Node1 -->
<g id="node1" class="node">
<title>Node1</title>
<g id="a_node1"><a xlink:title=" ">
<polygon fill="#bfbfbf" stroke="black" points="337,-147.5 337,-177.5 486,-177.5 486,-147.5 337,-147.5"/>
<text text-anchor="start" x="345" y="-165.5" font-family="Helvetica,sans-Serif" font-size="10.00">com.tw.paintbots.Renderables.</text>
<text text-anchor="middle" x="411.5" y="-154.5" font-family="Helvetica,sans-Serif" font-size="10.00">SimpleRenderable</text>
</a>
</g>
</g>
<!-- Node4 -->
<g id="node4" class="node">
<title>Node4</title>
<g id="a_node4"><a xlink:href="classcom_1_1tw_1_1paintbots_1_1_items_1_1_item.xhtml" target="_top" xlink:title=" ">
<polygon fill="white" stroke="black" points="527,-298 527,-317 666,-317 666,-298 527,-298"/>
<text text-anchor="middle" x="596.5" y="-305" font-family="Helvetica,sans-Serif" font-size="10.00">com.tw.paintbots.Items.Item</text>
</a>
</g>
</g>
<!-- Node1&#45;&gt;Node4 -->
<g id="edge3" class="edge">
<title>Node1&#45;&gt;Node4</title>
<path fill="none" stroke="midnightblue" d="M427.86,-186.23C446.82,-213.7 481.56,-258.51 522,-284.5 530.89,-290.21 541.29,-294.59 551.42,-297.91"/>
<polygon fill="midnightblue" stroke="midnightblue" points="430.54,-183.95 422.05,-177.63 424.74,-187.87 430.54,-183.95"/>
</g>
<!-- Node6 -->
<g id="node6" class="node">
<title>Node6</title>
<g id="a_node6"><a xlink:href="classcom_1_1tw_1_1paintbots_1_1_renderables_1_1_animated_renderable.xhtml" target="_top" xlink:title=" ">
<polygon fill="white" stroke="black" points="522,-245.5 522,-275.5 671,-275.5 671,-245.5 522,-245.5"/>
<text text-anchor="start" x="530" y="-263.5" font-family="Helvetica,sans-Serif" font-size="10.00">com.tw.paintbots.Renderables.</text>
<text text-anchor="middle" x="596.5" y="-252.5" font-family="Helvetica,sans-Serif" font-size="10.00">AnimatedRenderable</text>
</a>
</g>
</g>
<!-- Node1&#45;&gt;Node6 -->
<g id="edge5" class="edge">
<title>Node1&#45;&gt;Node6</title>
<path fill="none" stroke="midnightblue" d="M440.03,-183.79C461.47,-199.63 492.46,-220.94 522,-235.5 529.37,-239.13 537.41,-242.46 545.37,-245.41"/>
<polygon fill="midnightblue" stroke="midnightblue" points="441.84,-180.78 431.74,-177.59 437.65,-186.38 441.84,-180.78"/>
</g>
<!-- Node9 -->
<g id="node9" class="node">
<title>Node9</title>
<g id="a_node9"><a xlink:href="classcom_1_1tw_1_1paintbots_1_1_renderables_1_1_repeated_renderable.xhtml" target="_top" xlink:title=" ">
<polygon fill="white" stroke="black" points="522,-196.5 522,-226.5 671,-226.5 671,-196.5 522,-196.5"/>
<text text-anchor="start" x="530" y="-214.5" font-family="Helvetica,sans-Serif" font-size="10.00">com.tw.paintbots.Renderables.</text>
<text text-anchor="middle" x="596.5" y="-203.5" font-family="Helvetica,sans-Serif" font-size="10.00">RepeatedRenderable</text>
</a>
</g>
</g>
<!-- Node1&#45;&gt;Node9 -->
<g id="edge8" class="edge">
<title>Node1&#45;&gt;Node9</title>
<path fill="none" stroke="midnightblue" d="M478.79,-180.25C498.62,-185.56 520.17,-191.33 539.29,-196.45"/>
<polygon fill="midnightblue" stroke="midnightblue" points="479.46,-176.81 468.9,-177.6 477.65,-183.57 479.46,-176.81"/>
</g>
<!-- Node10 -->
<g id="node10" class="node">
<title>Node10</title>
<g id="a_node10"><a xlink:href="classcom_1_1tw_1_1paintbots_1_1_renderables_1_1_u_i_menu_item.xhtml" target="_top" xlink:title=" ">
<polygon fill="white" stroke="black" points="522,-147.5 522,-177.5 671,-177.5 671,-147.5 522,-147.5"/>
<text text-anchor="start" x="530" y="-165.5" font-family="Helvetica,sans-Serif" font-size="10.00">com.tw.paintbots.Renderables.</text>
<text text-anchor="middle" x="596.5" y="-154.5" font-family="Helvetica,sans-Serif" font-size="10.00">UIMenuItem</text>
</a>
</g>
</g>
<!-- Node1&#45;&gt;Node10 -->
<g id="edge9" class="edge">
<title>Node1&#45;&gt;Node10</title>
<path fill="none" stroke="midnightblue" d="M496.39,-162.5C504.84,-162.5 513.38,-162.5 521.71,-162.5"/>
<polygon fill="midnightblue" stroke="midnightblue" points="496.14,-159 486.14,-162.5 496.14,-166 496.14,-159"/>
</g>
<!-- Node11 -->
<g id="node11" class="node">
<title>Node11</title>
<g id="a_node11"><a xlink:href="classcom_1_1tw_1_1paintbots_1_1_renderables_1_1_u_i_player_board.xhtml" target="_top" xlink:title=" ">
<polygon fill="white" stroke="black" points="522,-98.5 522,-128.5 671,-128.5 671,-98.5 522,-98.5"/>
<text text-anchor="start" x="530" y="-116.5" font-family="Helvetica,sans-Serif" font-size="10.00">com.tw.paintbots.Renderables.</text>
<text text-anchor="middle" x="596.5" y="-105.5" font-family="Helvetica,sans-Serif" font-size="10.00">UIPlayerBoard</text>
</a>
</g>
</g>
<!-- Node1&#45;&gt;Node11 -->
<g id="edge10" class="edge">
<title>Node1&#45;&gt;Node11</title>
<path fill="none" stroke="midnightblue" d="M478.79,-144.75C498.62,-139.44 520.17,-133.67 539.29,-128.55"/>
<polygon fill="midnightblue" stroke="midnightblue" points="477.65,-141.43 468.9,-147.4 479.46,-148.19 477.65,-141.43"/>
</g>
<!-- Node12 -->
<g id="node12" class="node">
<title>Node12</title>
<g id="a_node12"><a xlink:href="classcom_1_1tw_1_1paintbots_1_1_renderables_1_1_u_i_result_board.xhtml" target="_top" xlink:title=" ">
<polygon fill="white" stroke="black" points="522,-49.5 522,-79.5 671,-79.5 671,-49.5 522,-49.5"/>
<text text-anchor="start" x="530" y="-67.5" font-family="Helvetica,sans-Serif" font-size="10.00">com.tw.paintbots.Renderables.</text>
<text text-anchor="middle" x="596.5" y="-56.5" font-family="Helvetica,sans-Serif" font-size="10.00">UIResultBoard</text>
</a>
</g>
</g>
<!-- Node1&#45;&gt;Node12 -->
<g id="edge11" class="edge">
<title>Node1&#45;&gt;Node12</title>
<path fill="none" stroke="midnightblue" d="M439.26,-141.29C460.67,-125.12 491.98,-103.19 522,-88.5 528.75,-85.2 536.07,-82.19 543.38,-79.51"/>
<polygon fill="midnightblue" stroke="midnightblue" points="437.09,-138.54 431.28,-147.4 441.35,-144.1 437.09,-138.54"/>
</g>
<!-- Node13 -->
<g id="node13" class="node">
<title>Node13</title>
<g id="a_node13"><a xlink:href="classcom_1_1tw_1_1paintbots_1_1_renderables_1_1_u_i_timer.xhtml" target="_top" xlink:title=" ">
<polygon fill="white" stroke="black" points="522,-0.5 522,-30.5 671,-30.5 671,-0.5 522,-0.5"/>
<text text-anchor="start" x="530" y="-18.5" font-family="Helvetica,sans-Serif" font-size="10.00">com.tw.paintbots.Renderables.</text>
<text text-anchor="middle" x="596.5" y="-7.5" font-family="Helvetica,sans-Serif" font-size="10.00">UITimer</text>
</a>
</g>
</g>
<!-- Node1&#45;&gt;Node13 -->
<g id="edge12" class="edge">
<title>Node1&#45;&gt;Node13</title>
<path fill="none" stroke="midnightblue" d="M427.87,-138.66C446.84,-111.04 481.59,-65.94 522,-39.5 527.17,-36.12 532.85,-33.18 538.7,-30.63"/>
<polygon fill="midnightblue" stroke="midnightblue" points="424.73,-137.05 422.05,-147.31 430.54,-140.96 424.73,-137.05"/>
</g>
<!-- Node2 -->
<g id="node2" class="node">
<title>Node2</title>
<g id="a_node2"><a xlink:href="classcom_1_1tw_1_1paintbots_1_1_renderables_1_1_renderable.xhtml" target="_top" xlink:title=" ">
<polygon fill="white" stroke="black" points="152,-147.5 152,-177.5 301,-177.5 301,-147.5 152,-147.5"/>
<text text-anchor="start" x="160" y="-165.5" font-family="Helvetica,sans-Serif" font-size="10.00">com.tw.paintbots.Renderables.</text>
<text text-anchor="middle" x="226.5" y="-154.5" font-family="Helvetica,sans-Serif" font-size="10.00">Renderable</text>
</a>
</g>
</g>
<!-- Node2&#45;&gt;Node1 -->
<g id="edge1" class="edge">
<title>Node2&#45;&gt;Node1</title>
<path fill="none" stroke="midnightblue" d="M311.39,-162.5C319.84,-162.5 328.38,-162.5 336.71,-162.5"/>
<polygon fill="midnightblue" stroke="midnightblue" points="311.14,-159 301.14,-162.5 311.14,-166 311.14,-159"/>
</g>
<!-- Node3 -->
<g id="node3" class="node">
<title>Node3</title>
<g id="a_node3"><a xlink:href="classcom_1_1tw_1_1paintbots_1_1_entity.xhtml" target="_top" xlink:title=" ">
<polygon fill="white" stroke="black" points="0,-153 0,-172 116,-172 116,-153 0,-153"/>
<text text-anchor="middle" x="58" y="-160" font-family="Helvetica,sans-Serif" font-size="10.00">com.tw.paintbots.Entity</text>
</a>
</g>
</g>
<!-- Node3&#45;&gt;Node2 -->
<g id="edge2" class="edge">
<title>Node3&#45;&gt;Node2</title>
<path fill="none" stroke="midnightblue" d="M126.41,-162.5C134.81,-162.5 143.43,-162.5 151.92,-162.5"/>
<polygon fill="midnightblue" stroke="midnightblue" points="126.3,-159 116.3,-162.5 126.3,-166 126.3,-159"/>
</g>
<!-- Node5 -->
<g id="node5" class="node">
<title>Node5</title>
<g id="a_node5"><a xlink:href="classcom_1_1tw_1_1paintbots_1_1_items_1_1_refill_place_base.xhtml" target="_top" xlink:title=" ">
<polygon fill="white" stroke="black" points="711.5,-294.5 711.5,-324.5 851.5,-324.5 851.5,-294.5 711.5,-294.5"/>
<text text-anchor="start" x="719.5" y="-312.5" font-family="Helvetica,sans-Serif" font-size="10.00">com.tw.paintbots.Items.Refill</text>
<text text-anchor="middle" x="781.5" y="-301.5" font-family="Helvetica,sans-Serif" font-size="10.00">PlaceBase</text>
</a>
</g>
</g>
<!-- Node4&#45;&gt;Node5 -->
<g id="edge4" class="edge">
<title>Node4&#45;&gt;Node5</title>
<path fill="none" stroke="midnightblue" d="M676.34,-308.36C688.02,-308.49 699.99,-308.62 711.45,-308.75"/>
<polygon fill="midnightblue" stroke="midnightblue" points="676.2,-304.86 666.16,-308.25 676.12,-311.86 676.2,-304.86"/>
</g>
<!-- Node7 -->
<g id="node7" class="node">
<title>Node7</title>
<g id="a_node7"><a xlink:href="classcom_1_1tw_1_1paintbots_1_1_renderables_1_1_direction_indicator.xhtml" target="_top" xlink:title=" ">
<polygon fill="white" stroke="black" points="707,-245.5 707,-275.5 856,-275.5 856,-245.5 707,-245.5"/>
<text text-anchor="start" x="715" y="-263.5" font-family="Helvetica,sans-Serif" font-size="10.00">com.tw.paintbots.Renderables.</text>
<text text-anchor="middle" x="781.5" y="-252.5" font-family="Helvetica,sans-Serif" font-size="10.00">DirectionIndicator</text>
</a>
</g>
</g>
<!-- Node6&#45;&gt;Node7 -->
<g id="edge6" class="edge">
<title>Node6&#45;&gt;Node7</title>
<path fill="none" stroke="midnightblue" d="M681.39,-260.5C689.84,-260.5 698.38,-260.5 706.71,-260.5"/>
<polygon fill="midnightblue" stroke="midnightblue" points="681.14,-257 671.14,-260.5 681.14,-264 681.14,-257"/>
</g>
<!-- Node8 -->
<g id="node8" class="node">
<title>Node8</title>
<g id="a_node8"><a xlink:href="classcom_1_1tw_1_1paintbots_1_1_renderables_1_1_player_animation.xhtml" target="_top" xlink:title=" ">
<polygon fill="white" stroke="black" points="707,-196.5 707,-226.5 856,-226.5 856,-196.5 707,-196.5"/>
<text text-anchor="start" x="715" y="-214.5" font-family="Helvetica,sans-Serif" font-size="10.00">com.tw.paintbots.Renderables.</text>
<text text-anchor="middle" x="781.5" y="-203.5" font-family="Helvetica,sans-Serif" font-size="10.00">PlayerAnimation</text>
</a>
</g>
</g>
<!-- Node6&#45;&gt;Node8 -->
<g id="edge7" class="edge">
<title>Node6&#45;&gt;Node8</title>
<path fill="none" stroke="midnightblue" d="M663.79,-242.75C683.62,-237.44 705.17,-231.67 724.29,-226.55"/>
<polygon fill="midnightblue" stroke="midnightblue" points="662.65,-239.43 653.9,-245.4 664.46,-246.19 662.65,-239.43"/>
</g>
</g>
</svg>
