<?xml version="1.0" encoding="UTF-8" standalone="no"?>
<!DOCTYPE svg PUBLIC "-//W3C//DTD SVG 1.1//EN"
 "http://www.w3.org/Graphics/SVG/1.1/DTD/svg11.dtd">
<!-- Generated by graphviz version 2.49.3 (20211027.1534)
 -->
<!-- Title: com.tw.paintbots.Renderables.Renderable Pages: 1 -->
<svg width="335pt" height="184pt"
 viewBox="0.00 0.00 335.00 184.00" xmlns="http://www.w3.org/2000/svg" xmlns:xlink="http://www.w3.org/1999/xlink">
<g id="graph0" class="graph" transform="scale(1 1) rotate(0) translate(4 180)">
<title>com.tw.paintbots.Renderables.Renderable</title>
<polygon fill="white" stroke="transparent" points="-4,4 -4,-180 331,-180 331,4 -4,4"/>
<!-- Node1 -->
<g id="node1" class="node">
<title>Node1</title>
<g id="a_node1"><a xlink:title=" ">
<polygon fill="#bfbfbf" stroke="black" points="51.5,-0.5 51.5,-30.5 200.5,-30.5 200.5,-0.5 51.5,-0.5"/>
<text text-anchor="start" x="59.5" y="-18.5" font-family="Helvetica,sans-Serif" font-size="10.00">com.tw.paintbots.Renderables.</text>
<text text-anchor="middle" x="126" y="-7.5" font-family="Helvetica,sans-Serif" font-size="10.00">Renderable</text>
</a>
</g>
</g>
<!-- Node2 -->
<g id="node2" class="node">
<title>Node2</title>
<g id="a_node2"><a xlink:href="classcom_1_1tw_1_1paintbots_1_1_entity.xhtml" target="_top" xlink:title=" ">
<polygon fill="white" stroke="black" points="0,-156.5 0,-175.5 116,-175.5 116,-156.5 0,-156.5"/>
<text text-anchor="middle" x="58" y="-163.5" font-family="Helvetica,sans-Serif" font-size="10.00">com.tw.paintbots.Entity</text>
</a>
</g>
</g>
<!-- Node2&#45;&gt;Node1 -->
<g id="edge1" class="edge">
<title>Node2&#45;&gt;Node1</title>
<path fill="none" stroke="midnightblue" d="M48.44,-147.14C40.06,-128.87 30.8,-100.09 42,-78 52.87,-56.56 75.12,-40.8 93.99,-30.6"/>
<polygon fill="midnightblue" stroke="midnightblue" points="45.42,-148.93 53,-156.34 51.69,-145.82 45.42,-148.93"/>
</g>
<!-- Node3 -->
<g id="node3" class="node">
<title>Node3</title>
<g id="a_node3"><a xlink:href="classcom_1_1tw_1_1paintbots_1_1_renderables_1_1_renderable.xhtml" target="_top" xlink:title=" ">
<polygon fill="white" stroke="black" points="51.5,-78.5 51.5,-108.5 200.5,-108.5 200.5,-78.5 51.5,-78.5"/>
<text text-anchor="start" x="59.5" y="-96.5" font-family="Helvetica,sans-Serif" font-size="10.00">com.tw.paintbots.Renderables.</text>
<text text-anchor="middle" x="126" y="-85.5" font-family="Helvetica,sans-Serif" font-size="10.00">Renderable</text>
</a>
</g>
</g>
<!-- Node2&#45;&gt;Node3 -->
<g id="edge3" class="edge">
<title>Node2&#45;&gt;Node3</title>
<path fill="none" stroke="midnightblue" d="M73.34,-149.09C85.09,-136.91 101.14,-120.27 112.42,-108.58"/>
<polygon fill="midnightblue" stroke="midnightblue" points="70.76,-146.73 66.34,-156.36 75.8,-151.59 70.76,-146.73"/>
</g>
<!-- Node3&#45;&gt;Node1 -->
<g id="edge2" class="edge">
<title>Node3&#45;&gt;Node1</title>
<path fill="none" stroke="#9a32cd" stroke-dasharray="5,2" d="M126,-68.09C126,-55.76 126,-41.22 126,-30.73"/>
<polygon fill="#9a32cd" stroke="#9a32cd" points="122.5,-68.2 126,-78.2 129.5,-68.21 122.5,-68.2"/>
<text text-anchor="middle" x="139.5" y="-52" font-family="Helvetica,sans-Serif" font-size="10.00"> anker</text>
</g>
<!-- Node3&#45;&gt;Node3 -->
<g id="edge4" class="edge">
<title>Node3&#45;&gt;Node3</title>
<path fill="none" stroke="#9a32cd" stroke-dasharray="5,2" d="M210.69,-98.35C215.58,-97.19 218.5,-95.57 218.5,-93.5 218.5,-90.27 211.38,-88.14 200.76,-87.11"/>
<polygon fill="#9a32cd" stroke="#9a32cd" points="210.11,-94.9 200.76,-99.89 211.18,-101.82 210.11,-94.9"/>
<text text-anchor="middle" x="232" y="-91" font-family="Helvetica,sans-Serif" font-size="10.00"> anker</text>
</g>
<!-- Node4 -->
<g id="node4" class="node">
<title>Node4</title>
<g id="a_node4"><a xlink:title=" ">
<polygon fill="white" stroke="#bfbfbf" points="187.5,-156.5 187.5,-175.5 266.5,-175.5 266.5,-156.5 187.5,-156.5"/>
<text text-anchor="middle" x="227" y="-163.5" font-family="Helvetica,sans-Serif" font-size="10.00">TextureRegion</text>
</a>
</g>
</g>
<!-- Node4&#45;&gt;Node1 -->
<g id="edge6" class="edge">
<title>Node4&#45;&gt;Node1</title>
<path fill="none" stroke="#9a32cd" stroke-dasharray="5,2" d="M246.57,-149.37C249.6,-145.97 252.29,-142.13 254,-138 264.2,-113.36 268.2,-100.57 254,-78 239.17,-54.42 212.49,-39.67 187.31,-30.56"/>
<polygon fill="#9a32cd" stroke="#9a32cd" points="243.98,-147.01 239.19,-156.46 248.82,-152.06 243.98,-147.01"/>
<text text-anchor="middle" x="295" y="-91" font-family="Helvetica,sans-Serif" font-size="10.00"> texture_region</text>
</g>
<!-- Node4&#45;&gt;Node3 -->
<g id="edge5" class="edge">
<title>Node4&#45;&gt;Node3</title>
<path fill="none" stroke="#9a32cd" stroke-dasharray="5,2" d="M206.18,-150.47C188.59,-138.19 163.56,-120.72 146.17,-108.58"/>
<polygon fill="#9a32cd" stroke="#9a32cd" points="204.41,-153.5 214.62,-156.36 208.42,-147.76 204.41,-153.5"/>
<text text-anchor="middle" x="218" y="-130" font-family="Helvetica,sans-Serif" font-size="10.00"> texture_region</text>
</g>
</g>
</svg>
