<?xml version="1.0" encoding="UTF-8" standalone="no"?>
<!DOCTYPE svg PUBLIC "-//W3C//DTD SVG 1.1//EN"
 "http://www.w3.org/Graphics/SVG/1.1/DTD/svg11.dtd">
<!-- Generated by graphviz version 2.49.3 (20211027.1534)
 -->
<!-- Title: com.tw.paintbots.Renderables.Renderable Pages: 1 -->
<svg width="875pt" height="470pt"
 viewBox="0.00 0.00 875.00 470.00" xmlns="http://www.w3.org/2000/svg" xmlns:xlink="http://www.w3.org/1999/xlink">
<g id="graph0" class="graph" transform="scale(1 1) rotate(0) translate(4 466)">
<title>com.tw.paintbots.Renderables.Renderable</title>
<polygon fill="white" stroke="transparent" points="-4,4 -4,-466 871,-466 871,4 -4,4"/>
<!-- Node1 -->
<g id="node1" class="node">
<title>Node1</title>
<g id="a_node1"><a xlink:title=" ">
<polygon fill="#bfbfbf" stroke="black" points="152,-283.5 152,-313.5 301,-313.5 301,-283.5 152,-283.5"/>
<text text-anchor="start" x="160" y="-301.5" font-family="Helvetica,sans-Serif" font-size="10.00">com.tw.paintbots.Renderables.</text>
<text text-anchor="middle" x="226.5" y="-290.5" font-family="Helvetica,sans-Serif" font-size="10.00">Renderable</text>
</a>
</g>
</g>
<!-- Node3 -->
<g id="node3" class="node">
<title>Node3</title>
<g id="a_node3"><a xlink:href="classcom_1_1tw_1_1paintbots_1_1_renderables_1_1_canvas.xhtml" target="_top" xlink:title=" ">
<polygon fill="white" stroke="black" points="337,-357.5 337,-387.5 486,-387.5 486,-357.5 337,-357.5"/>
<text text-anchor="start" x="345" y="-375.5" font-family="Helvetica,sans-Serif" font-size="10.00">com.tw.paintbots.Renderables.</text>
<text text-anchor="middle" x="411.5" y="-364.5" font-family="Helvetica,sans-Serif" font-size="10.00">Canvas</text>
</a>
</g>
</g>
<!-- Node1&#45;&gt;Node3 -->
<g id="edge2" class="edge">
<title>Node1&#45;&gt;Node3</title>
<path fill="none" stroke="midnightblue" d="M268.57,-317.97C288.96,-327.35 314.07,-338.49 337,-347.5 345.66,-350.9 354.99,-354.28 364,-357.41"/>
<polygon fill="midnightblue" stroke="midnightblue" points="269.81,-314.69 259.27,-313.66 266.87,-321.04 269.81,-314.69"/>
</g>
<!-- Node4 -->
<g id="node4" class="node">
<title>Node4</title>
<g id="a_node4"><a xlink:href="classcom_1_1tw_1_1paintbots_1_1_renderables_1_1_multi_layer_renderable.xhtml" target="_top" xlink:title=" ">
<polygon fill="white" stroke="black" points="337,-308.5 337,-338.5 486,-338.5 486,-308.5 337,-308.5"/>
<text text-anchor="start" x="345" y="-326.5" font-family="Helvetica,sans-Serif" font-size="10.00">com.tw.paintbots.Renderables.</text>
<text text-anchor="middle" x="411.5" y="-315.5" font-family="Helvetica,sans-Serif" font-size="10.00">MultiLayerRenderable</text>
</a>
</g>
</g>
<!-- Node1&#45;&gt;Node4 -->
<g id="edge3" class="edge">
<title>Node1&#45;&gt;Node4</title>
<path fill="none" stroke="midnightblue" d="M311.11,-309.92C319.65,-311.09 328.28,-312.27 336.71,-313.42"/>
<polygon fill="midnightblue" stroke="midnightblue" points="311.52,-306.45 301.14,-308.56 310.58,-313.38 311.52,-306.45"/>
</g>
<!-- Node5 -->
<g id="node5" class="node">
<title>Node5</title>
<g id="a_node5"><a xlink:href="classcom_1_1tw_1_1paintbots_1_1_renderables_1_1_simple_renderable.xhtml" target="_top" xlink:title=" ">
<polygon fill="white" stroke="black" points="337,-259.5 337,-289.5 486,-289.5 486,-259.5 337,-259.5"/>
<text text-anchor="start" x="345" y="-277.5" font-family="Helvetica,sans-Serif" font-size="10.00">com.tw.paintbots.Renderables.</text>
<text text-anchor="middle" x="411.5" y="-266.5" font-family="Helvetica,sans-Serif" font-size="10.00">SimpleRenderable</text>
</a>
</g>
</g>
<!-- Node1&#45;&gt;Node5 -->
<g id="edge4" class="edge">
<title>Node1&#45;&gt;Node5</title>
<path fill="none" stroke="midnightblue" d="M311.11,-287.53C319.65,-286.41 328.28,-285.28 336.71,-284.18"/>
<polygon fill="midnightblue" stroke="midnightblue" points="310.6,-284.07 301.14,-288.84 311.51,-291.01 310.6,-284.07"/>
</g>
<!-- Node16 -->
<g id="node16" class="node">
<title>Node16</title>
<g id="a_node16"><a xlink:href="classcom_1_1tw_1_1paintbots_1_1_renderables_1_1_texture_grid.xhtml" target="_top" xlink:title=" ">
<polygon fill="white" stroke="black" points="337,-71.5 337,-101.5 486,-101.5 486,-71.5 337,-71.5"/>
<text text-anchor="start" x="345" y="-89.5" font-family="Helvetica,sans-Serif" font-size="10.00">com.tw.paintbots.Renderables.</text>
<text text-anchor="middle" x="411.5" y="-78.5" font-family="Helvetica,sans-Serif" font-size="10.00">TextureGrid</text>
</a>
</g>
</g>
<!-- Node1&#45;&gt;Node16 -->
<g id="edge15" class="edge">
<title>Node1&#45;&gt;Node16</title>
<path fill="none" stroke="midnightblue" d="M247.38,-275.47C285.05,-231.83 365.86,-138.21 397.46,-101.61"/>
<polygon fill="midnightblue" stroke="midnightblue" points="244.55,-273.4 240.66,-283.25 249.84,-277.97 244.55,-273.4"/>
</g>
<!-- Node2 -->
<g id="node2" class="node">
<title>Node2</title>
<g id="a_node2"><a xlink:href="classcom_1_1tw_1_1paintbots_1_1_entity.xhtml" target="_top" xlink:title=" ">
<polygon fill="white" stroke="black" points="0,-289 0,-308 116,-308 116,-289 0,-289"/>
<text text-anchor="middle" x="58" y="-296" font-family="Helvetica,sans-Serif" font-size="10.00">com.tw.paintbots.Entity</text>
</a>
</g>
</g>
<!-- Node2&#45;&gt;Node1 -->
<g id="edge1" class="edge">
<title>Node2&#45;&gt;Node1</title>
<path fill="none" stroke="midnightblue" d="M126.41,-298.5C134.81,-298.5 143.43,-298.5 151.92,-298.5"/>
<polygon fill="midnightblue" stroke="midnightblue" points="126.3,-295 116.3,-298.5 126.3,-302 126.3,-295"/>
</g>
<!-- Node6 -->
<g id="node6" class="node">
<title>Node6</title>
<g id="a_node6"><a xlink:href="classcom_1_1tw_1_1paintbots_1_1_items_1_1_item.xhtml" target="_top" xlink:title=" ">
<polygon fill="white" stroke="black" points="532.5,-435 532.5,-454 671.5,-454 671.5,-435 532.5,-435"/>
<text text-anchor="middle" x="602" y="-442" font-family="Helvetica,sans-Serif" font-size="10.00">com.tw.paintbots.Items.Item</text>
</a>
</g>
</g>
<!-- Node5&#45;&gt;Node6 -->
<g id="edge5" class="edge">
<title>Node5&#45;&gt;Node6</title>
<path fill="none" stroke="midnightblue" d="M482.71,-295.39C483.85,-296.38 484.95,-297.41 486,-298.5 525.9,-339.74 481.2,-382.14 522,-422.5 527.36,-427.81 533.89,-431.86 540.88,-434.95"/>
<polygon fill="midnightblue" stroke="midnightblue" points="484.75,-292.55 474.6,-289.51 480.65,-298.22 484.75,-292.55"/>
</g>
<!-- Node8 -->
<g id="node8" class="node">
<title>Node8</title>
<g id="a_node8"><a xlink:href="classcom_1_1tw_1_1paintbots_1_1_renderables_1_1_animated_renderable.xhtml" target="_top" xlink:title=" ">
<polygon fill="white" stroke="black" points="527.5,-382.5 527.5,-412.5 676.5,-412.5 676.5,-382.5 527.5,-382.5"/>
<text text-anchor="start" x="535.5" y="-400.5" font-family="Helvetica,sans-Serif" font-size="10.00">com.tw.paintbots.Renderables.</text>
<text text-anchor="middle" x="602" y="-389.5" font-family="Helvetica,sans-Serif" font-size="10.00">AnimatedRenderable</text>
</a>
</g>
</g>
<!-- Node5&#45;&gt;Node8 -->
<g id="edge7" class="edge">
<title>Node5&#45;&gt;Node8</title>
<path fill="none" stroke="midnightblue" d="M481.77,-295.11C483.23,-296.19 484.65,-297.31 486,-298.5 513.81,-322.86 493.94,-349.42 522,-373.5 526.03,-376.95 530.54,-379.91 535.31,-382.44"/>
<polygon fill="midnightblue" stroke="midnightblue" points="483.25,-291.91 472.91,-289.56 479.53,-297.84 483.25,-291.91"/>
</g>
<!-- Node11 -->
<g id="node11" class="node">
<title>Node11</title>
<g id="a_node11"><a xlink:href="classcom_1_1tw_1_1paintbots_1_1_renderables_1_1_repeated_renderable.xhtml" target="_top" xlink:title=" ">
<polygon fill="white" stroke="black" points="527.5,-333.5 527.5,-363.5 676.5,-363.5 676.5,-333.5 527.5,-333.5"/>
<text text-anchor="start" x="535.5" y="-351.5" font-family="Helvetica,sans-Serif" font-size="10.00">com.tw.paintbots.Renderables.</text>
<text text-anchor="middle" x="602" y="-340.5" font-family="Helvetica,sans-Serif" font-size="10.00">RepeatedRenderable</text>
</a>
</g>
</g>
<!-- Node5&#45;&gt;Node11 -->
<g id="edge10" class="edge">
<title>Node5&#45;&gt;Node11</title>
<path fill="none" stroke="midnightblue" d="M474.42,-293.25C478.39,-294.9 482.28,-296.65 486,-298.5 503.44,-307.17 504.52,-314.91 522,-323.5 529.49,-327.18 537.64,-330.48 545.77,-333.37"/>
<polygon fill="midnightblue" stroke="midnightblue" points="475.64,-289.97 465.05,-289.58 473.08,-296.48 475.64,-289.97"/>
</g>
<!-- Node12 -->
<g id="node12" class="node">
<title>Node12</title>
<g id="a_node12"><a xlink:href="classcom_1_1tw_1_1paintbots_1_1_renderables_1_1_u_i_menu_item.xhtml" target="_top" xlink:title=" ">
<polygon fill="white" stroke="black" points="527.5,-284.5 527.5,-314.5 676.5,-314.5 676.5,-284.5 527.5,-284.5"/>
<text text-anchor="start" x="535.5" y="-302.5" font-family="Helvetica,sans-Serif" font-size="10.00">com.tw.paintbots.Renderables.</text>
<text text-anchor="middle" x="602" y="-291.5" font-family="Helvetica,sans-Serif" font-size="10.00">UIMenuItem</text>
</a>
</g>
</g>
<!-- Node5&#45;&gt;Node12 -->
<g id="edge11" class="edge">
<title>Node5&#45;&gt;Node12</title>
<path fill="none" stroke="midnightblue" d="M496.1,-285.59C506.52,-286.97 517.11,-288.37 527.36,-289.73"/>
<polygon fill="midnightblue" stroke="midnightblue" points="496.56,-282.12 486.19,-284.27 495.64,-289.06 496.56,-282.12"/>
</g>
<!-- Node13 -->
<g id="node13" class="node">
<title>Node13</title>
<g id="a_node13"><a xlink:href="classcom_1_1tw_1_1paintbots_1_1_renderables_1_1_u_i_player_board.xhtml" target="_top" xlink:title=" ">
<polygon fill="white" stroke="black" points="527.5,-235.5 527.5,-265.5 676.5,-265.5 676.5,-235.5 527.5,-235.5"/>
<text text-anchor="start" x="535.5" y="-253.5" font-family="Helvetica,sans-Serif" font-size="10.00">com.tw.paintbots.Renderables.</text>
<text text-anchor="middle" x="602" y="-242.5" font-family="Helvetica,sans-Serif" font-size="10.00">UIPlayerBoard</text>
</a>
</g>
</g>
<!-- Node5&#45;&gt;Node13 -->
<g id="edge12" class="edge">
<title>Node5&#45;&gt;Node13</title>
<path fill="none" stroke="midnightblue" d="M496.43,-263.81C506.74,-262.5 517.22,-261.17 527.36,-259.88"/>
<polygon fill="midnightblue" stroke="midnightblue" points="495.67,-260.38 486.19,-265.12 496.55,-267.33 495.67,-260.38"/>
</g>
<!-- Node14 -->
<g id="node14" class="node">
<title>Node14</title>
<g id="a_node14"><a xlink:href="classcom_1_1tw_1_1paintbots_1_1_renderables_1_1_u_i_result_board.xhtml" target="_top" xlink:title=" ">
<polygon fill="white" stroke="black" points="527.5,-186.5 527.5,-216.5 676.5,-216.5 676.5,-186.5 527.5,-186.5"/>
<text text-anchor="start" x="535.5" y="-204.5" font-family="Helvetica,sans-Serif" font-size="10.00">com.tw.paintbots.Renderables.</text>
<text text-anchor="middle" x="602" y="-193.5" font-family="Helvetica,sans-Serif" font-size="10.00">UIResultBoard</text>
</a>
</g>
</g>
<!-- Node5&#45;&gt;Node14 -->
<g id="edge13" class="edge">
<title>Node5&#45;&gt;Node14</title>
<path fill="none" stroke="midnightblue" d="M453,-254.91C473.44,-245.4 498.76,-234.19 522,-225.5 530.32,-222.39 539.25,-219.37 548,-216.6"/>
<polygon fill="midnightblue" stroke="midnightblue" points="451.25,-251.86 443.69,-259.28 454.23,-258.2 451.25,-251.86"/>
</g>
<!-- Node15 -->
<g id="node15" class="node">
<title>Node15</title>
<g id="a_node15"><a xlink:href="classcom_1_1tw_1_1paintbots_1_1_renderables_1_1_u_i_timer.xhtml" target="_top" xlink:title=" ">
<polygon fill="white" stroke="black" points="527.5,-137.5 527.5,-167.5 676.5,-167.5 676.5,-137.5 527.5,-137.5"/>
<text text-anchor="start" x="535.5" y="-155.5" font-family="Helvetica,sans-Serif" font-size="10.00">com.tw.paintbots.Renderables.</text>
<text text-anchor="middle" x="602" y="-144.5" font-family="Helvetica,sans-Serif" font-size="10.00">UITimer</text>
</a>
</g>
</g>
<!-- Node5&#45;&gt;Node15 -->
<g id="edge14" class="edge">
<title>Node5&#45;&gt;Node15</title>
<path fill="none" stroke="midnightblue" d="M432.36,-251.7C452.79,-229.55 486.55,-196.44 522,-176.5 528,-173.13 534.52,-170.17 541.17,-167.6"/>
<polygon fill="midnightblue" stroke="midnightblue" points="429.58,-249.55 425.46,-259.31 434.77,-254.25 429.58,-249.55"/>
</g>
<!-- Node7 -->
<g id="node7" class="node">
<title>Node7</title>
<g id="a_node7"><a xlink:href="classcom_1_1tw_1_1paintbots_1_1_items_1_1_refill_place_base.xhtml" target="_top" xlink:title=" ">
<polygon fill="white" stroke="black" points="722.5,-431.5 722.5,-461.5 862.5,-461.5 862.5,-431.5 722.5,-431.5"/>
<text text-anchor="start" x="730.5" y="-449.5" font-family="Helvetica,sans-Serif" font-size="10.00">com.tw.paintbots.Items.Refill</text>
<text text-anchor="middle" x="792.5" y="-438.5" font-family="Helvetica,sans-Serif" font-size="10.00">PlaceBase</text>
</a>
</g>
</g>
<!-- Node6&#45;&gt;Node7 -->
<g id="edge6" class="edge">
<title>Node6&#45;&gt;Node7</title>
<path fill="none" stroke="midnightblue" d="M681.78,-445.34C695.24,-445.48 709.14,-445.63 722.33,-445.77"/>
<polygon fill="midnightblue" stroke="midnightblue" points="681.62,-441.83 671.59,-445.23 681.55,-448.83 681.62,-441.83"/>
</g>
<!-- Node9 -->
<g id="node9" class="node">
<title>Node9</title>
<g id="a_node9"><a xlink:href="classcom_1_1tw_1_1paintbots_1_1_renderables_1_1_direction_indicator.xhtml" target="_top" xlink:title=" ">
<polygon fill="white" stroke="black" points="718,-382.5 718,-412.5 867,-412.5 867,-382.5 718,-382.5"/>
<text text-anchor="start" x="726" y="-400.5" font-family="Helvetica,sans-Serif" font-size="10.00">com.tw.paintbots.Renderables.</text>
<text text-anchor="middle" x="792.5" y="-389.5" font-family="Helvetica,sans-Serif" font-size="10.00">DirectionIndicator</text>
</a>
</g>
</g>
<!-- Node8&#45;&gt;Node9 -->
<g id="edge8" class="edge">
<title>Node8&#45;&gt;Node9</title>
<path fill="none" stroke="midnightblue" d="M686.93,-397.5C697.24,-397.5 707.72,-397.5 717.86,-397.5"/>
<polygon fill="midnightblue" stroke="midnightblue" points="686.69,-394 676.69,-397.5 686.69,-401 686.69,-394"/>
</g>
<!-- Node10 -->
<g id="node10" class="node">
<title>Node10</title>
<g id="a_node10"><a xlink:href="classcom_1_1tw_1_1paintbots_1_1_renderables_1_1_player_animation.xhtml" target="_top" xlink:title=" ">
<polygon fill="white" stroke="black" points="718,-333.5 718,-363.5 867,-363.5 867,-333.5 718,-333.5"/>
<text text-anchor="start" x="726" y="-351.5" font-family="Helvetica,sans-Serif" font-size="10.00">com.tw.paintbots.Renderables.</text>
<text text-anchor="middle" x="792.5" y="-340.5" font-family="Helvetica,sans-Serif" font-size="10.00">PlayerAnimation</text>
</a>
</g>
</g>
<!-- Node8&#45;&gt;Node10 -->
<g id="edge9" class="edge">
<title>Node8&#45;&gt;Node10</title>
<path fill="none" stroke="midnightblue" d="M670.79,-379.88C691.42,-374.52 713.88,-368.68 733.77,-363.51"/>
<polygon fill="midnightblue" stroke="midnightblue" points="669.64,-376.56 660.84,-382.47 671.4,-383.34 669.64,-376.56"/>
</g>
<!-- Node17 -->
<g id="node17" class="node">
<title>Node17</title>
<g id="a_node17"><a xlink:href="classcom_1_1tw_1_1paintbots_1_1_items_1_1_power_up.xhtml" target="_top" xlink:title=" ">
<polygon fill="white" stroke="black" points="522,-99 522,-118 682,-118 682,-99 522,-99"/>
<text text-anchor="middle" x="602" y="-106" font-family="Helvetica,sans-Serif" font-size="10.00">com.tw.paintbots.Items.PowerUp</text>
</a>
</g>
</g>
<!-- Node16&#45;&gt;Node17 -->
<g id="edge16" class="edge">
<title>Node16&#45;&gt;Node17</title>
<path fill="none" stroke="midnightblue" d="M496.12,-96.26C504.64,-97.25 513.28,-98.26 521.76,-99.25"/>
<polygon fill="midnightblue" stroke="midnightblue" points="496.53,-92.78 486.19,-95.1 495.72,-99.74 496.53,-92.78"/>
</g>
<!-- Node18 -->
<g id="node18" class="node">
<title>Node18</title>
<g id="a_node18"><a xlink:href="classcom_1_1tw_1_1paintbots_1_1_renderables_1_1_u_i_color_bar.xhtml" target="_top" xlink:title=" ">
<polygon fill="white" stroke="black" points="527.5,-49.5 527.5,-79.5 676.5,-79.5 676.5,-49.5 527.5,-49.5"/>
<text text-anchor="start" x="535.5" y="-67.5" font-family="Helvetica,sans-Serif" font-size="10.00">com.tw.paintbots.Renderables.</text>
<text text-anchor="middle" x="602" y="-56.5" font-family="Helvetica,sans-Serif" font-size="10.00">UIColorBar</text>
</a>
</g>
</g>
<!-- Node16&#45;&gt;Node18 -->
<g id="edge17" class="edge">
<title>Node16&#45;&gt;Node18</title>
<path fill="none" stroke="midnightblue" d="M496.43,-76.7C506.74,-75.5 517.22,-74.28 527.36,-73.09"/>
<polygon fill="midnightblue" stroke="midnightblue" points="495.72,-73.26 486.19,-77.9 496.53,-80.22 495.72,-73.26"/>
</g>
<!-- Node19 -->
<g id="node19" class="node">
<title>Node19</title>
<g id="a_node19"><a xlink:href="classcom_1_1tw_1_1paintbots_1_1_renderables_1_1_u_i_digit.xhtml" target="_top" xlink:title=" ">
<polygon fill="white" stroke="black" points="527.5,-0.5 527.5,-30.5 676.5,-30.5 676.5,-0.5 527.5,-0.5"/>
<text text-anchor="start" x="535.5" y="-18.5" font-family="Helvetica,sans-Serif" font-size="10.00">com.tw.paintbots.Renderables.</text>
<text text-anchor="middle" x="602" y="-7.5" font-family="Helvetica,sans-Serif" font-size="10.00">UIDigit</text>
</a>
</g>
</g>
<!-- Node16&#45;&gt;Node19 -->
<g id="edge18" class="edge">
<title>Node16&#45;&gt;Node19</title>
<path fill="none" stroke="midnightblue" d="M454.42,-67.22C474.63,-58.25 499.35,-47.77 522,-39.5 530.48,-36.4 539.57,-33.38 548.46,-30.57"/>
<polygon fill="midnightblue" stroke="midnightblue" points="452.88,-64.07 445.18,-71.35 455.74,-70.46 452.88,-64.07"/>
</g>
<!-- Node20 -->
<g id="node20" class="node">
<title>Node20</title>
<g id="a_node20"><a xlink:href="classcom_1_1tw_1_1paintbots_1_1_renderables_1_1_start_timer.xhtml" target="_top" xlink:title=" ">
<polygon fill="white" stroke="black" points="718,-0.5 718,-30.5 867,-30.5 867,-0.5 718,-0.5"/>
<text text-anchor="start" x="726" y="-18.5" font-family="Helvetica,sans-Serif" font-size="10.00">com.tw.paintbots.Renderables.</text>
<text text-anchor="middle" x="792.5" y="-7.5" font-family="Helvetica,sans-Serif" font-size="10.00">StartTimer</text>
</a>
</g>
</g>
<!-- Node19&#45;&gt;Node20 -->
<g id="edge19" class="edge">
<title>Node19&#45;&gt;Node20</title>
<path fill="none" stroke="midnightblue" d="M686.93,-15.5C697.24,-15.5 707.72,-15.5 717.86,-15.5"/>
<polygon fill="midnightblue" stroke="midnightblue" points="686.69,-12 676.69,-15.5 686.69,-19 686.69,-12"/>
</g>
</g>
</svg>
