<?xml version="1.0" encoding="UTF-8" standalone="no"?>
<!DOCTYPE svg PUBLIC "-//W3C//DTD SVG 1.1//EN"
 "http://www.w3.org/Graphics/SVG/1.1/DTD/svg11.dtd">
<!-- Generated by graphviz version 2.49.3 (20211027.1534)
 -->
<!-- Title: com.tw.paintbots.Renderables.Renderable Pages: 1 -->
<svg width="864pt" height="382pt"
 viewBox="0.00 0.00 864.00 382.00" xmlns="http://www.w3.org/2000/svg" xmlns:xlink="http://www.w3.org/1999/xlink">
<g id="graph0" class="graph" transform="scale(1 1) rotate(0) translate(4 378)">
<title>com.tw.paintbots.Renderables.Renderable</title>
<polygon fill="white" stroke="transparent" points="-4,4 -4,-378 860,-378 860,4 -4,4"/>
<!-- Node1 -->
<g id="node1" class="node">
<title>Node1</title>
<g id="a_node1"><a xlink:title=" ">
<polygon fill="#bfbfbf" stroke="black" points="152,-220.5 152,-250.5 301,-250.5 301,-220.5 152,-220.5"/>
<text text-anchor="start" x="160" y="-238.5" font-family="Helvetica,sans-Serif" font-size="10.00">com.tw.paintbots.Renderables.</text>
<text text-anchor="middle" x="226.5" y="-227.5" font-family="Helvetica,sans-Serif" font-size="10.00">Renderable</text>
</a>
</g>
</g>
<!-- Node3 -->
<g id="node3" class="node">
<title>Node3</title>
<g id="a_node3"><a xlink:href="classcom_1_1tw_1_1paintbots_1_1_renderables_1_1_canvas.xhtml" target="_top" xlink:title=" ">
<polygon fill="white" stroke="black" points="337,-294.5 337,-324.5 486,-324.5 486,-294.5 337,-294.5"/>
<text text-anchor="start" x="345" y="-312.5" font-family="Helvetica,sans-Serif" font-size="10.00">com.tw.paintbots.Renderables.</text>
<text text-anchor="middle" x="411.5" y="-301.5" font-family="Helvetica,sans-Serif" font-size="10.00">Canvas</text>
</a>
</g>
</g>
<!-- Node1&#45;&gt;Node3 -->
<g id="edge2" class="edge">
<title>Node1&#45;&gt;Node3</title>
<path fill="none" stroke="midnightblue" d="M268.57,-254.97C288.96,-264.35 314.07,-275.49 337,-284.5 345.66,-287.9 354.99,-291.28 364,-294.41"/>
<polygon fill="midnightblue" stroke="midnightblue" points="269.81,-251.69 259.27,-250.66 266.87,-258.04 269.81,-251.69"/>
</g>
<!-- Node4 -->
<g id="node4" class="node">
<title>Node4</title>
<g id="a_node4"><a xlink:href="classcom_1_1tw_1_1paintbots_1_1_renderables_1_1_multi_layer_renderable.xhtml" target="_top" xlink:title=" ">
<polygon fill="white" stroke="black" points="337,-245.5 337,-275.5 486,-275.5 486,-245.5 337,-245.5"/>
<text text-anchor="start" x="345" y="-263.5" font-family="Helvetica,sans-Serif" font-size="10.00">com.tw.paintbots.Renderables.</text>
<text text-anchor="middle" x="411.5" y="-252.5" font-family="Helvetica,sans-Serif" font-size="10.00">MultiLayerRenderable</text>
</a>
</g>
</g>
<!-- Node1&#45;&gt;Node4 -->
<g id="edge3" class="edge">
<title>Node1&#45;&gt;Node4</title>
<path fill="none" stroke="midnightblue" d="M311.11,-246.92C319.65,-248.09 328.28,-249.27 336.71,-250.42"/>
<polygon fill="midnightblue" stroke="midnightblue" points="311.52,-243.45 301.14,-245.56 310.58,-250.38 311.52,-243.45"/>
</g>
<!-- Node5 -->
<g id="node5" class="node">
<title>Node5</title>
<g id="a_node5"><a xlink:href="classcom_1_1tw_1_1paintbots_1_1_renderables_1_1_simple_renderable.xhtml" target="_top" xlink:title=" ">
<polygon fill="white" stroke="black" points="337,-196.5 337,-226.5 486,-226.5 486,-196.5 337,-196.5"/>
<text text-anchor="start" x="345" y="-214.5" font-family="Helvetica,sans-Serif" font-size="10.00">com.tw.paintbots.Renderables.</text>
<text text-anchor="middle" x="411.5" y="-203.5" font-family="Helvetica,sans-Serif" font-size="10.00">SimpleRenderable</text>
</a>
</g>
</g>
<!-- Node1&#45;&gt;Node5 -->
<g id="edge4" class="edge">
<title>Node1&#45;&gt;Node5</title>
<path fill="none" stroke="midnightblue" d="M311.11,-224.53C319.65,-223.41 328.28,-222.28 336.71,-221.18"/>
<polygon fill="midnightblue" stroke="midnightblue" points="310.6,-221.07 301.14,-225.84 311.51,-228.01 310.6,-221.07"/>
</g>
<!-- Node15 -->
<g id="node15" class="node">
<title>Node15</title>
<g id="a_node15"><a xlink:href="classcom_1_1tw_1_1paintbots_1_1_renderables_1_1_texture_grid.xhtml" target="_top" xlink:title=" ">
<polygon fill="white" stroke="black" points="337,-49.5 337,-79.5 486,-79.5 486,-49.5 337,-49.5"/>
<text text-anchor="start" x="345" y="-67.5" font-family="Helvetica,sans-Serif" font-size="10.00">com.tw.paintbots.Renderables.</text>
<text text-anchor="middle" x="411.5" y="-56.5" font-family="Helvetica,sans-Serif" font-size="10.00">TextureGrid</text>
</a>
</g>
</g>
<!-- Node1&#45;&gt;Node15 -->
<g id="edge14" class="edge">
<title>Node1&#45;&gt;Node15</title>
<path fill="none" stroke="midnightblue" d="M251.25,-213.31C289.04,-178 361.91,-109.91 394.3,-79.64"/>
<polygon fill="midnightblue" stroke="midnightblue" points="248.66,-210.94 243.74,-220.32 253.44,-216.05 248.66,-210.94"/>
</g>
<!-- Node2 -->
<g id="node2" class="node">
<title>Node2</title>
<g id="a_node2"><a xlink:href="classcom_1_1tw_1_1paintbots_1_1_entity.xhtml" target="_top" xlink:title=" ">
<polygon fill="white" stroke="black" points="0,-226 0,-245 116,-245 116,-226 0,-226"/>
<text text-anchor="middle" x="58" y="-233" font-family="Helvetica,sans-Serif" font-size="10.00">com.tw.paintbots.Entity</text>
</a>
</g>
</g>
<!-- Node2&#45;&gt;Node1 -->
<g id="edge1" class="edge">
<title>Node2&#45;&gt;Node1</title>
<path fill="none" stroke="midnightblue" d="M126.41,-235.5C134.81,-235.5 143.43,-235.5 151.92,-235.5"/>
<polygon fill="midnightblue" stroke="midnightblue" points="126.3,-232 116.3,-235.5 126.3,-239 126.3,-232"/>
</g>
<!-- Node6 -->
<g id="node6" class="node">
<title>Node6</title>
<g id="a_node6"><a xlink:href="classcom_1_1tw_1_1paintbots_1_1_items_1_1_item.xhtml" target="_top" xlink:title=" ">
<polygon fill="white" stroke="black" points="527,-347 527,-366 666,-366 666,-347 527,-347"/>
<text text-anchor="middle" x="596.5" y="-354" font-family="Helvetica,sans-Serif" font-size="10.00">com.tw.paintbots.Items.Item</text>
</a>
</g>
</g>
<!-- Node5&#45;&gt;Node6 -->
<g id="edge5" class="edge">
<title>Node5&#45;&gt;Node6</title>
<path fill="none" stroke="midnightblue" d="M482.51,-232.41C483.72,-233.39 484.88,-234.42 486,-235.5 519.65,-268.05 487.95,-302.37 522,-334.5 527.62,-339.8 534.46,-343.83 541.69,-346.89"/>
<polygon fill="midnightblue" stroke="midnightblue" points="484.23,-229.34 474,-226.56 480.26,-235.11 484.23,-229.34"/>
</g>
<!-- Node8 -->
<g id="node8" class="node">
<title>Node8</title>
<g id="a_node8"><a xlink:href="classcom_1_1tw_1_1paintbots_1_1_renderables_1_1_animated_renderable.xhtml" target="_top" xlink:title=" ">
<polygon fill="white" stroke="black" points="522,-294.5 522,-324.5 671,-324.5 671,-294.5 522,-294.5"/>
<text text-anchor="start" x="530" y="-312.5" font-family="Helvetica,sans-Serif" font-size="10.00">com.tw.paintbots.Renderables.</text>
<text text-anchor="middle" x="596.5" y="-301.5" font-family="Helvetica,sans-Serif" font-size="10.00">AnimatedRenderable</text>
</a>
</g>
</g>
<!-- Node5&#45;&gt;Node8 -->
<g id="edge7" class="edge">
<title>Node5&#45;&gt;Node8</title>
<path fill="none" stroke="midnightblue" d="M480.07,-231.6C482.12,-232.83 484.1,-234.13 486,-235.5 507.89,-251.34 500.2,-268.52 522,-284.5 527.22,-288.32 533.06,-291.59 539.12,-294.38"/>
<polygon fill="midnightblue" stroke="midnightblue" points="481.24,-228.26 470.76,-226.67 477.96,-234.44 481.24,-228.26"/>
</g>
<!-- Node11 -->
<g id="node11" class="node">
<title>Node11</title>
<g id="a_node11"><a xlink:href="classcom_1_1tw_1_1paintbots_1_1_renderables_1_1_repeated_renderable.xhtml" target="_top" xlink:title=" ">
<polygon fill="white" stroke="black" points="522,-245.5 522,-275.5 671,-275.5 671,-245.5 522,-245.5"/>
<text text-anchor="start" x="530" y="-263.5" font-family="Helvetica,sans-Serif" font-size="10.00">com.tw.paintbots.Renderables.</text>
<text text-anchor="middle" x="596.5" y="-252.5" font-family="Helvetica,sans-Serif" font-size="10.00">RepeatedRenderable</text>
</a>
</g>
</g>
<!-- Node5&#45;&gt;Node11 -->
<g id="edge10" class="edge">
<title>Node5&#45;&gt;Node11</title>
<path fill="none" stroke="midnightblue" d="M478.79,-229.25C498.62,-234.56 520.17,-240.33 539.29,-245.45"/>
<polygon fill="midnightblue" stroke="midnightblue" points="479.46,-225.81 468.9,-226.6 477.65,-232.57 479.46,-225.81"/>
</g>
<!-- Node12 -->
<g id="node12" class="node">
<title>Node12</title>
<g id="a_node12"><a xlink:href="classcom_1_1tw_1_1paintbots_1_1_renderables_1_1_u_i_menu_item.xhtml" target="_top" xlink:title=" ">
<polygon fill="white" stroke="black" points="522,-196.5 522,-226.5 671,-226.5 671,-196.5 522,-196.5"/>
<text text-anchor="start" x="530" y="-214.5" font-family="Helvetica,sans-Serif" font-size="10.00">com.tw.paintbots.Renderables.</text>
<text text-anchor="middle" x="596.5" y="-203.5" font-family="Helvetica,sans-Serif" font-size="10.00">UIMenuItem</text>
</a>
</g>
</g>
<!-- Node5&#45;&gt;Node12 -->
<g id="edge11" class="edge">
<title>Node5&#45;&gt;Node12</title>
<path fill="none" stroke="midnightblue" d="M496.39,-211.5C504.84,-211.5 513.38,-211.5 521.71,-211.5"/>
<polygon fill="midnightblue" stroke="midnightblue" points="496.14,-208 486.14,-211.5 496.14,-215 496.14,-208"/>
</g>
<!-- Node13 -->
<g id="node13" class="node">
<title>Node13</title>
<g id="a_node13"><a xlink:href="classcom_1_1tw_1_1paintbots_1_1_renderables_1_1_u_i_player_board.xhtml" target="_top" xlink:title=" ">
<polygon fill="white" stroke="black" points="522,-147.5 522,-177.5 671,-177.5 671,-147.5 522,-147.5"/>
<text text-anchor="start" x="530" y="-165.5" font-family="Helvetica,sans-Serif" font-size="10.00">com.tw.paintbots.Renderables.</text>
<text text-anchor="middle" x="596.5" y="-154.5" font-family="Helvetica,sans-Serif" font-size="10.00">UIPlayerBoard</text>
</a>
</g>
</g>
<!-- Node5&#45;&gt;Node13 -->
<g id="edge12" class="edge">
<title>Node5&#45;&gt;Node13</title>
<path fill="none" stroke="midnightblue" d="M478.79,-193.75C498.62,-188.44 520.17,-182.67 539.29,-177.55"/>
<polygon fill="midnightblue" stroke="midnightblue" points="477.65,-190.43 468.9,-196.4 479.46,-197.19 477.65,-190.43"/>
</g>
<!-- Node14 -->
<g id="node14" class="node">
<title>Node14</title>
<g id="a_node14"><a xlink:href="classcom_1_1tw_1_1paintbots_1_1_renderables_1_1_u_i_timer.xhtml" target="_top" xlink:title=" ">
<polygon fill="white" stroke="black" points="522,-98.5 522,-128.5 671,-128.5 671,-98.5 522,-98.5"/>
<text text-anchor="start" x="530" y="-116.5" font-family="Helvetica,sans-Serif" font-size="10.00">com.tw.paintbots.Renderables.</text>
<text text-anchor="middle" x="596.5" y="-105.5" font-family="Helvetica,sans-Serif" font-size="10.00">UITimer</text>
</a>
</g>
</g>
<!-- Node5&#45;&gt;Node14 -->
<g id="edge13" class="edge">
<title>Node5&#45;&gt;Node14</title>
<path fill="none" stroke="midnightblue" d="M439.26,-190.29C460.67,-174.12 491.98,-152.19 522,-137.5 528.75,-134.2 536.07,-131.19 543.38,-128.51"/>
<polygon fill="midnightblue" stroke="midnightblue" points="437.09,-187.54 431.28,-196.4 441.35,-193.1 437.09,-187.54"/>
</g>
<!-- Node7 -->
<g id="node7" class="node">
<title>Node7</title>
<g id="a_node7"><a xlink:href="classcom_1_1tw_1_1paintbots_1_1_items_1_1_refill_place_base.xhtml" target="_top" xlink:title=" ">
<polygon fill="white" stroke="black" points="711.5,-343.5 711.5,-373.5 851.5,-373.5 851.5,-343.5 711.5,-343.5"/>
<text text-anchor="start" x="719.5" y="-361.5" font-family="Helvetica,sans-Serif" font-size="10.00">com.tw.paintbots.Items.Refill</text>
<text text-anchor="middle" x="781.5" y="-350.5" font-family="Helvetica,sans-Serif" font-size="10.00">PlaceBase</text>
</a>
</g>
</g>
<!-- Node6&#45;&gt;Node7 -->
<g id="edge6" class="edge">
<title>Node6&#45;&gt;Node7</title>
<path fill="none" stroke="midnightblue" d="M676.34,-357.36C688.02,-357.49 699.99,-357.62 711.45,-357.75"/>
<polygon fill="midnightblue" stroke="midnightblue" points="676.2,-353.86 666.16,-357.25 676.12,-360.86 676.2,-353.86"/>
</g>
<!-- Node9 -->
<g id="node9" class="node">
<title>Node9</title>
<g id="a_node9"><a xlink:href="classcom_1_1tw_1_1paintbots_1_1_renderables_1_1_direction_indicator.xhtml" target="_top" xlink:title=" ">
<polygon fill="white" stroke="black" points="707,-294.5 707,-324.5 856,-324.5 856,-294.5 707,-294.5"/>
<text text-anchor="start" x="715" y="-312.5" font-family="Helvetica,sans-Serif" font-size="10.00">com.tw.paintbots.Renderables.</text>
<text text-anchor="middle" x="781.5" y="-301.5" font-family="Helvetica,sans-Serif" font-size="10.00">DirectionIndicator</text>
</a>
</g>
</g>
<!-- Node8&#45;&gt;Node9 -->
<g id="edge8" class="edge">
<title>Node8&#45;&gt;Node9</title>
<path fill="none" stroke="midnightblue" d="M681.39,-309.5C689.84,-309.5 698.38,-309.5 706.71,-309.5"/>
<polygon fill="midnightblue" stroke="midnightblue" points="681.14,-306 671.14,-309.5 681.14,-313 681.14,-306"/>
</g>
<!-- Node10 -->
<g id="node10" class="node">
<title>Node10</title>
<g id="a_node10"><a xlink:href="classcom_1_1tw_1_1paintbots_1_1_renderables_1_1_player_animation.xhtml" target="_top" xlink:title=" ">
<polygon fill="white" stroke="black" points="707,-245.5 707,-275.5 856,-275.5 856,-245.5 707,-245.5"/>
<text text-anchor="start" x="715" y="-263.5" font-family="Helvetica,sans-Serif" font-size="10.00">com.tw.paintbots.Renderables.</text>
<text text-anchor="middle" x="781.5" y="-252.5" font-family="Helvetica,sans-Serif" font-size="10.00">PlayerAnimation</text>
</a>
</g>
</g>
<!-- Node8&#45;&gt;Node10 -->
<g id="edge9" class="edge">
<title>Node8&#45;&gt;Node10</title>
<path fill="none" stroke="midnightblue" d="M663.79,-291.75C683.62,-286.44 705.17,-280.67 724.29,-275.55"/>
<polygon fill="midnightblue" stroke="midnightblue" points="662.65,-288.43 653.9,-294.4 664.46,-295.19 662.65,-288.43"/>
</g>
<!-- Node16 -->
<g id="node16" class="node">
<title>Node16</title>
<g id="a_node16"><a xlink:href="classcom_1_1tw_1_1paintbots_1_1_renderables_1_1_u_i_color_bar.xhtml" target="_top" xlink:title=" ">
<polygon fill="white" stroke="black" points="522,-49.5 522,-79.5 671,-79.5 671,-49.5 522,-49.5"/>
<text text-anchor="start" x="530" y="-67.5" font-family="Helvetica,sans-Serif" font-size="10.00">com.tw.paintbots.Renderables.</text>
<text text-anchor="middle" x="596.5" y="-56.5" font-family="Helvetica,sans-Serif" font-size="10.00">UIColorBar</text>
</a>
</g>
</g>
<!-- Node15&#45;&gt;Node16 -->
<g id="edge15" class="edge">
<title>Node15&#45;&gt;Node16</title>
<path fill="none" stroke="midnightblue" d="M496.39,-64.5C504.84,-64.5 513.38,-64.5 521.71,-64.5"/>
<polygon fill="midnightblue" stroke="midnightblue" points="496.14,-61 486.14,-64.5 496.14,-68 496.14,-61"/>
</g>
<!-- Node17 -->
<g id="node17" class="node">
<title>Node17</title>
<g id="a_node17"><a xlink:href="classcom_1_1tw_1_1paintbots_1_1_renderables_1_1_u_i_digit.xhtml" target="_top" xlink:title=" ">
<polygon fill="white" stroke="black" points="522,-0.5 522,-30.5 671,-30.5 671,-0.5 522,-0.5"/>
<text text-anchor="start" x="530" y="-18.5" font-family="Helvetica,sans-Serif" font-size="10.00">com.tw.paintbots.Renderables.</text>
<text text-anchor="middle" x="596.5" y="-7.5" font-family="Helvetica,sans-Serif" font-size="10.00">UIDigit</text>
</a>
</g>
</g>
<!-- Node15&#45;&gt;Node17 -->
<g id="edge16" class="edge">
<title>Node15&#45;&gt;Node17</title>
<path fill="none" stroke="midnightblue" d="M478.79,-46.75C498.62,-41.44 520.17,-35.67 539.29,-30.55"/>
<polygon fill="midnightblue" stroke="midnightblue" points="477.65,-43.43 468.9,-49.4 479.46,-50.19 477.65,-43.43"/>
</g>
<!-- Node18 -->
<g id="node18" class="node">
<title>Node18</title>
<g id="a_node18"><a xlink:href="classcom_1_1tw_1_1paintbots_1_1_renderables_1_1_start_timer.xhtml" target="_top" xlink:title=" ">
<polygon fill="white" stroke="black" points="707,-0.5 707,-30.5 856,-30.5 856,-0.5 707,-0.5"/>
<text text-anchor="start" x="715" y="-18.5" font-family="Helvetica,sans-Serif" font-size="10.00">com.tw.paintbots.Renderables.</text>
<text text-anchor="middle" x="781.5" y="-7.5" font-family="Helvetica,sans-Serif" font-size="10.00">StartTimer</text>
</a>
</g>
</g>
<!-- Node17&#45;&gt;Node18 -->
<g id="edge17" class="edge">
<title>Node17&#45;&gt;Node18</title>
<path fill="none" stroke="midnightblue" d="M681.39,-15.5C689.84,-15.5 698.38,-15.5 706.71,-15.5"/>
<polygon fill="midnightblue" stroke="midnightblue" points="681.14,-12 671.14,-15.5 681.14,-19 681.14,-12"/>
</g>
</g>
</svg>
