<?xml version="1.0" encoding="UTF-8" standalone="no"?>
<!DOCTYPE svg PUBLIC "-//W3C//DTD SVG 1.1//EN"
 "http://www.w3.org/Graphics/SVG/1.1/DTD/svg11.dtd">
<!-- Generated by graphviz version 2.49.3 (20211027.1534)
 -->
<!-- Title: com.tw.paintbots.HumanPlayer Pages: 1 -->
<svg width="159pt" height="140pt"
 viewBox="0.00 0.00 159.00 140.00" xmlns="http://www.w3.org/2000/svg" xmlns:xlink="http://www.w3.org/1999/xlink">
<g id="graph0" class="graph" transform="scale(1 1) rotate(0) translate(4 136)">
<title>com.tw.paintbots.HumanPlayer</title>
<polygon fill="white" stroke="transparent" points="-4,4 -4,-136 155,-136 155,4 -4,4"/>
<!-- Node1 -->
<g id="node1" class="node">
<title>Node1</title>
<g id="a_node1"><a xlink:title=" ">
<polygon fill="#bfbfbf" stroke="black" points="0,-0.5 0,-19.5 151,-19.5 151,-0.5 0,-0.5"/>
<text text-anchor="middle" x="75.5" y="-7.5" font-family="Helvetica,sans-Serif" font-size="10.00">com.tw.paintbots.HumanPlayer</text>
</a>
</g>
</g>
<!-- Node2 -->
<g id="node2" class="node">
<title>Node2</title>
<g id="a_node2"><a xlink:href="classcom_1_1tw_1_1paintbots_1_1_player.xhtml" target="_top" xlink:title=" ">
<polygon fill="white" stroke="black" points="16,-56.5 16,-75.5 135,-75.5 135,-56.5 16,-56.5"/>
<text text-anchor="middle" x="75.5" y="-63.5" font-family="Helvetica,sans-Serif" font-size="10.00">com.tw.paintbots.Player</text>
</a>
</g>
</g>
<!-- Node2&#45;&gt;Node1 -->
<g id="edge1" class="edge">
<title>Node2&#45;&gt;Node1</title>
<path fill="none" stroke="midnightblue" d="M75.5,-45.8C75.5,-36.91 75.5,-26.78 75.5,-19.75"/>
<polygon fill="midnightblue" stroke="midnightblue" points="72,-46.08 75.5,-56.08 79,-46.08 72,-46.08"/>
</g>
<!-- Node3 -->
<g id="node3" class="node">
<title>Node3</title>
<g id="a_node3"><a xlink:href="classcom_1_1tw_1_1paintbots_1_1_entity.xhtml" target="_top" xlink:title=" ">
<polygon fill="white" stroke="black" points="17.5,-112.5 17.5,-131.5 133.5,-131.5 133.5,-112.5 17.5,-112.5"/>
<text text-anchor="middle" x="75.5" y="-119.5" font-family="Helvetica,sans-Serif" font-size="10.00">com.tw.paintbots.Entity</text>
</a>
</g>
</g>
<!-- Node3&#45;&gt;Node2 -->
<g id="edge2" class="edge">
<title>Node3&#45;&gt;Node2</title>
<path fill="none" stroke="midnightblue" d="M75.5,-101.8C75.5,-92.91 75.5,-82.78 75.5,-75.75"/>
<polygon fill="midnightblue" stroke="midnightblue" points="72,-102.08 75.5,-112.08 79,-102.08 72,-102.08"/>
</g>
</g>
</svg>
