<?xml version="1.0" encoding="UTF-8" standalone="no"?>
<!DOCTYPE svg PUBLIC "-//W3C//DTD SVG 1.1//EN"
 "http://www.w3.org/Graphics/SVG/1.1/DTD/svg11.dtd">
<!-- Generated by graphviz version 2.49.3 (20211027.1534)
 -->
<!-- Title: com.tw.paintbots.Renderables.PlayerAnimation Pages: 1 -->
<svg width="310pt" height="320pt"
 viewBox="0.00 0.00 309.50 320.00" xmlns="http://www.w3.org/2000/svg" xmlns:xlink="http://www.w3.org/1999/xlink">
<g id="graph0" class="graph" transform="scale(1 1) rotate(0) translate(4 316)">
<title>com.tw.paintbots.Renderables.PlayerAnimation</title>
<polygon fill="white" stroke="transparent" points="-4,4 -4,-316 305.5,-316 305.5,4 -4,4"/>
<!-- Node1 -->
<g id="node1" class="node">
<title>Node1</title>
<g id="a_node1"><a xlink:title=" ">
<polygon fill="#bfbfbf" stroke="black" points="121.5,-0.5 121.5,-30.5 270.5,-30.5 270.5,-0.5 121.5,-0.5"/>
<text text-anchor="start" x="129.5" y="-18.5" font-family="Helvetica,sans-Serif" font-size="10.00">com.tw.paintbots.Renderables.</text>
<text text-anchor="middle" x="196" y="-7.5" font-family="Helvetica,sans-Serif" font-size="10.00">PlayerAnimation</text>
</a>
</g>
</g>
<!-- Node2 -->
<g id="node2" class="node">
<title>Node2</title>
<g id="a_node2"><a xlink:href="classcom_1_1tw_1_1paintbots_1_1_renderables_1_1_animated_renderable.xhtml" target="_top" xlink:title=" ">
<polygon fill="white" stroke="black" points="121.5,-68.5 121.5,-98.5 270.5,-98.5 270.5,-68.5 121.5,-68.5"/>
<text text-anchor="start" x="129.5" y="-86.5" font-family="Helvetica,sans-Serif" font-size="10.00">com.tw.paintbots.Renderables.</text>
<text text-anchor="middle" x="196" y="-75.5" font-family="Helvetica,sans-Serif" font-size="10.00">AnimatedRenderable</text>
</a>
</g>
</g>
<!-- Node2&#45;&gt;Node1 -->
<g id="edge1" class="edge">
<title>Node2&#45;&gt;Node1</title>
<path fill="none" stroke="midnightblue" d="M196,-58.03C196,-48.86 196,-38.74 196,-30.79"/>
<polygon fill="midnightblue" stroke="midnightblue" points="192.5,-58.18 196,-68.18 199.5,-58.18 192.5,-58.18"/>
</g>
<!-- Node3 -->
<g id="node3" class="node">
<title>Node3</title>
<g id="a_node3"><a xlink:href="classcom_1_1tw_1_1paintbots_1_1_renderables_1_1_simple_renderable.xhtml" target="_top" xlink:title=" ">
<polygon fill="white" stroke="black" points="121.5,-136.5 121.5,-166.5 270.5,-166.5 270.5,-136.5 121.5,-136.5"/>
<text text-anchor="start" x="129.5" y="-154.5" font-family="Helvetica,sans-Serif" font-size="10.00">com.tw.paintbots.Renderables.</text>
<text text-anchor="middle" x="196" y="-143.5" font-family="Helvetica,sans-Serif" font-size="10.00">SimpleRenderable</text>
</a>
</g>
</g>
<!-- Node3&#45;&gt;Node2 -->
<g id="edge2" class="edge">
<title>Node3&#45;&gt;Node2</title>
<path fill="none" stroke="midnightblue" d="M196,-126.03C196,-116.86 196,-106.74 196,-98.79"/>
<polygon fill="midnightblue" stroke="midnightblue" points="192.5,-126.18 196,-136.18 199.5,-126.18 192.5,-126.18"/>
</g>
<!-- Node4 -->
<g id="node4" class="node">
<title>Node4</title>
<g id="a_node4"><a xlink:href="classcom_1_1tw_1_1paintbots_1_1_renderables_1_1_renderable.xhtml" target="_top" xlink:title=" ">
<polygon fill="white" stroke="black" points="40.5,-214.5 40.5,-244.5 189.5,-244.5 189.5,-214.5 40.5,-214.5"/>
<text text-anchor="start" x="48.5" y="-232.5" font-family="Helvetica,sans-Serif" font-size="10.00">com.tw.paintbots.Renderables.</text>
<text text-anchor="middle" x="115" y="-221.5" font-family="Helvetica,sans-Serif" font-size="10.00">Renderable</text>
</a>
</g>
</g>
<!-- Node4&#45;&gt;Node3 -->
<g id="edge3" class="edge">
<title>Node4&#45;&gt;Node3</title>
<path fill="none" stroke="midnightblue" d="M137.88,-207.03C151.63,-194.13 168.75,-178.07 180.83,-166.73"/>
<polygon fill="midnightblue" stroke="midnightblue" points="135.13,-204.81 130.24,-214.2 139.92,-209.91 135.13,-204.81"/>
</g>
<!-- Node4&#45;&gt;Node4 -->
<g id="edge5" class="edge">
<title>Node4&#45;&gt;Node4</title>
<path fill="none" stroke="#9a32cd" stroke-dasharray="5,2" d="M199.69,-234.35C204.58,-233.19 207.5,-231.57 207.5,-229.5 207.5,-226.27 200.38,-224.14 189.76,-223.11"/>
<polygon fill="#9a32cd" stroke="#9a32cd" points="199.11,-230.9 189.76,-235.89 200.18,-237.82 199.11,-230.9"/>
<text text-anchor="middle" x="221" y="-227" font-family="Helvetica,sans-Serif" font-size="10.00"> anker</text>
</g>
<!-- Node5 -->
<g id="node5" class="node">
<title>Node5</title>
<g id="a_node5"><a xlink:href="classcom_1_1tw_1_1paintbots_1_1_entity.xhtml" target="_top" xlink:title=" ">
<polygon fill="white" stroke="black" points="0,-292.5 0,-311.5 116,-311.5 116,-292.5 0,-292.5"/>
<text text-anchor="middle" x="58" y="-299.5" font-family="Helvetica,sans-Serif" font-size="10.00">com.tw.paintbots.Entity</text>
</a>
</g>
</g>
<!-- Node5&#45;&gt;Node4 -->
<g id="edge4" class="edge">
<title>Node5&#45;&gt;Node4</title>
<path fill="none" stroke="midnightblue" d="M71.43,-284.39C81.22,-272.28 94.34,-256.05 103.62,-244.58"/>
<polygon fill="midnightblue" stroke="midnightblue" points="68.55,-282.38 64.99,-292.36 74,-286.78 68.55,-282.38"/>
</g>
<!-- Node6 -->
<g id="node6" class="node">
<title>Node6</title>
<g id="a_node6"><a xlink:title=" ">
<polygon fill="white" stroke="#bfbfbf" points="133.5,-292.5 133.5,-311.5 212.5,-311.5 212.5,-292.5 133.5,-292.5"/>
<text text-anchor="middle" x="173" y="-299.5" font-family="Helvetica,sans-Serif" font-size="10.00">TextureRegion</text>
</a>
</g>
</g>
<!-- Node6&#45;&gt;Node4 -->
<g id="edge6" class="edge">
<title>Node6&#45;&gt;Node4</title>
<path fill="none" stroke="#9a32cd" stroke-dasharray="5,2" d="M159.34,-284.39C149.37,-272.28 136.02,-256.05 126.58,-244.58"/>
<polygon fill="#9a32cd" stroke="#9a32cd" points="156.83,-286.86 165.89,-292.36 162.24,-282.41 156.83,-286.86"/>
<text text-anchor="middle" x="182" y="-266" font-family="Helvetica,sans-Serif" font-size="10.00"> texture_region</text>
</g>
<!-- Node7 -->
<g id="node7" class="node">
<title>Node7</title>
<g id="a_node7"><a xlink:title=" ">
<polygon fill="white" stroke="#bfbfbf" points="252.5,-220 252.5,-239 301.5,-239 301.5,-220 252.5,-220"/>
<text text-anchor="middle" x="277" y="-227" font-family="Helvetica,sans-Serif" font-size="10.00">Texture</text>
</a>
</g>
</g>
<!-- Node7&#45;&gt;Node3 -->
<g id="edge7" class="edge">
<title>Node7&#45;&gt;Node3</title>
<path fill="none" stroke="#9a32cd" stroke-dasharray="5,2" d="M260.38,-212.9C245.85,-199.27 224.95,-179.66 210.94,-166.52"/>
<polygon fill="#9a32cd" stroke="#9a32cd" points="258.02,-215.49 267.71,-219.78 262.81,-210.39 258.02,-215.49"/>
<text text-anchor="middle" x="258" y="-188" font-family="Helvetica,sans-Serif" font-size="10.00"> texture</text>
</g>
</g>
</svg>
