<?xml version="1.0" encoding="UTF-8" standalone="no"?>
<!DOCTYPE svg PUBLIC "-//W3C//DTD SVG 1.1//EN"
 "http://www.w3.org/Graphics/SVG/1.1/DTD/svg11.dtd">
<!-- Generated by graphviz version 2.49.3 (20211027.1534)
 -->
<!-- Title: com.tw.paintbots.Items.Item Pages: 1 -->
<svg width="310pt" height="241pt"
 viewBox="0.00 0.00 309.50 241.00" xmlns="http://www.w3.org/2000/svg" xmlns:xlink="http://www.w3.org/1999/xlink">
<g id="graph0" class="graph" transform="scale(1 1) rotate(0) translate(4 237)">
<title>com.tw.paintbots.Items.Item</title>
<polygon fill="white" stroke="transparent" points="-4,4 -4,-237 305.5,-237 305.5,4 -4,4"/>
<!-- Node1 -->
<g id="node1" class="node">
<title>Node1</title>
<g id="a_node1"><a xlink:title=" ">
<polygon fill="#bfbfbf" stroke="black" points="126.5,-0.5 126.5,-19.5 265.5,-19.5 265.5,-0.5 126.5,-0.5"/>
<text text-anchor="middle" x="196" y="-7.5" font-family="Helvetica,sans-Serif" font-size="10.00">com.tw.paintbots.Items.Item</text>
</a>
</g>
</g>
<!-- Node2 -->
<g id="node2" class="node">
<title>Node2</title>
<g id="a_node2"><a xlink:href="classcom_1_1tw_1_1paintbots_1_1_renderables_1_1_simple_renderable.xhtml" target="_top" xlink:title=" ">
<polygon fill="white" stroke="black" points="121.5,-57.5 121.5,-87.5 270.5,-87.5 270.5,-57.5 121.5,-57.5"/>
<text text-anchor="start" x="129.5" y="-75.5" font-family="Helvetica,sans-Serif" font-size="10.00">com.tw.paintbots.Renderables.</text>
<text text-anchor="middle" x="196" y="-64.5" font-family="Helvetica,sans-Serif" font-size="10.00">SimpleRenderable</text>
</a>
</g>
</g>
<!-- Node2&#45;&gt;Node1 -->
<g id="edge1" class="edge">
<title>Node2&#45;&gt;Node1</title>
<path fill="none" stroke="midnightblue" d="M196,-47.35C196,-37.51 196,-26.78 196,-19.54"/>
<polygon fill="midnightblue" stroke="midnightblue" points="192.5,-47.47 196,-57.47 199.5,-47.47 192.5,-47.47"/>
</g>
<!-- Node3 -->
<g id="node3" class="node">
<title>Node3</title>
<g id="a_node3"><a xlink:href="classcom_1_1tw_1_1paintbots_1_1_renderables_1_1_renderable.xhtml" target="_top" xlink:title=" ">
<polygon fill="white" stroke="black" points="40.5,-135.5 40.5,-165.5 189.5,-165.5 189.5,-135.5 40.5,-135.5"/>
<text text-anchor="start" x="48.5" y="-153.5" font-family="Helvetica,sans-Serif" font-size="10.00">com.tw.paintbots.Renderables.</text>
<text text-anchor="middle" x="115" y="-142.5" font-family="Helvetica,sans-Serif" font-size="10.00">Renderable</text>
</a>
</g>
</g>
<!-- Node3&#45;&gt;Node2 -->
<g id="edge2" class="edge">
<title>Node3&#45;&gt;Node2</title>
<path fill="none" stroke="midnightblue" d="M137.88,-128.03C151.63,-115.13 168.75,-99.07 180.83,-87.73"/>
<polygon fill="midnightblue" stroke="midnightblue" points="135.13,-125.81 130.24,-135.2 139.92,-130.91 135.13,-125.81"/>
</g>
<!-- Node3&#45;&gt;Node3 -->
<g id="edge4" class="edge">
<title>Node3&#45;&gt;Node3</title>
<path fill="none" stroke="#9a32cd" stroke-dasharray="5,2" d="M199.69,-155.35C204.58,-154.19 207.5,-152.57 207.5,-150.5 207.5,-147.27 200.38,-145.14 189.76,-144.11"/>
<polygon fill="#9a32cd" stroke="#9a32cd" points="199.11,-151.9 189.76,-156.89 200.18,-158.82 199.11,-151.9"/>
<text text-anchor="middle" x="221" y="-148" font-family="Helvetica,sans-Serif" font-size="10.00"> anker</text>
</g>
<!-- Node4 -->
<g id="node4" class="node">
<title>Node4</title>
<g id="a_node4"><a xlink:href="classcom_1_1tw_1_1paintbots_1_1_entity.xhtml" target="_top" xlink:title=" ">
<polygon fill="white" stroke="black" points="0,-213.5 0,-232.5 116,-232.5 116,-213.5 0,-213.5"/>
<text text-anchor="middle" x="58" y="-220.5" font-family="Helvetica,sans-Serif" font-size="10.00">com.tw.paintbots.Entity</text>
</a>
</g>
</g>
<!-- Node4&#45;&gt;Node3 -->
<g id="edge3" class="edge">
<title>Node4&#45;&gt;Node3</title>
<path fill="none" stroke="midnightblue" d="M71.43,-205.39C81.22,-193.28 94.34,-177.05 103.62,-165.58"/>
<polygon fill="midnightblue" stroke="midnightblue" points="68.55,-203.38 64.99,-213.36 74,-207.78 68.55,-203.38"/>
</g>
<!-- Node5 -->
<g id="node5" class="node">
<title>Node5</title>
<g id="a_node5"><a xlink:title=" ">
<polygon fill="white" stroke="#bfbfbf" points="133.5,-213.5 133.5,-232.5 212.5,-232.5 212.5,-213.5 133.5,-213.5"/>
<text text-anchor="middle" x="173" y="-220.5" font-family="Helvetica,sans-Serif" font-size="10.00">TextureRegion</text>
</a>
</g>
</g>
<!-- Node5&#45;&gt;Node3 -->
<g id="edge5" class="edge">
<title>Node5&#45;&gt;Node3</title>
<path fill="none" stroke="#9a32cd" stroke-dasharray="5,2" d="M159.34,-205.39C149.37,-193.28 136.02,-177.05 126.58,-165.58"/>
<polygon fill="#9a32cd" stroke="#9a32cd" points="156.83,-207.86 165.89,-213.36 162.24,-203.41 156.83,-207.86"/>
<text text-anchor="middle" x="182" y="-187" font-family="Helvetica,sans-Serif" font-size="10.00"> texture_region</text>
</g>
<!-- Node6 -->
<g id="node6" class="node">
<title>Node6</title>
<g id="a_node6"><a xlink:title=" ">
<polygon fill="white" stroke="#bfbfbf" points="252.5,-141 252.5,-160 301.5,-160 301.5,-141 252.5,-141"/>
<text text-anchor="middle" x="277" y="-148" font-family="Helvetica,sans-Serif" font-size="10.00">Texture</text>
</a>
</g>
</g>
<!-- Node6&#45;&gt;Node2 -->
<g id="edge6" class="edge">
<title>Node6&#45;&gt;Node2</title>
<path fill="none" stroke="#9a32cd" stroke-dasharray="5,2" d="M260.38,-133.9C245.85,-120.27 224.95,-100.66 210.94,-87.52"/>
<polygon fill="#9a32cd" stroke="#9a32cd" points="258.02,-136.49 267.71,-140.78 262.81,-131.39 258.02,-136.49"/>
<text text-anchor="middle" x="258" y="-109" font-family="Helvetica,sans-Serif" font-size="10.00"> texture</text>
</g>
</g>
</svg>
