<?xml version="1.0" encoding="UTF-8" standalone="no"?>
<!DOCTYPE svg PUBLIC "-//W3C//DTD SVG 1.1//EN"
 "http://www.w3.org/Graphics/SVG/1.1/DTD/svg11.dtd">
<!-- Generated by graphviz version 2.49.3 (20211027.1534)
 -->
<!-- Title: com.tw.paintbots.Entity Pages: 1 -->
<svg width="877pt" height="517pt"
 viewBox="0.00 0.00 877.00 516.50" xmlns="http://www.w3.org/2000/svg" xmlns:xlink="http://www.w3.org/1999/xlink">
<g id="graph0" class="graph" transform="scale(1 1) rotate(0) translate(4 512.5)">
<title>com.tw.paintbots.Entity</title>
<polygon fill="white" stroke="transparent" points="-4,4 -4,-512.5 873,-512.5 873,4 -4,4"/>
<!-- Node1 -->
<g id="node1" class="node">
<title>Node1</title>
<g id="a_node1"><a xlink:title=" ">
<polygon fill="#bfbfbf" stroke="black" points="0,-366 0,-385 116,-385 116,-366 0,-366"/>
<text text-anchor="middle" x="58" y="-373" font-family="Helvetica,sans-Serif" font-size="10.00">com.tw.paintbots.Entity</text>
</a>
</g>
</g>
<!-- Node2 -->
<g id="node2" class="node">
<title>Node2</title>
<g id="a_node2"><a xlink:href="classcom_1_1tw_1_1paintbots_1_1_player.xhtml" target="_top" xlink:title=" ">
<polygon fill="white" stroke="black" points="167,-432 167,-451 286,-451 286,-432 167,-432"/>
<text text-anchor="middle" x="226.5" y="-439" font-family="Helvetica,sans-Serif" font-size="10.00">com.tw.paintbots.Player</text>
</a>
</g>
</g>
<!-- Node1&#45;&gt;Node2 -->
<g id="edge1" class="edge">
<title>Node1&#45;&gt;Node2</title>
<path fill="none" stroke="midnightblue" d="M92.69,-388.86C125,-401.66 172.95,-420.67 201.53,-432"/>
<polygon fill="midnightblue" stroke="midnightblue" points="93.8,-385.53 83.21,-385.1 91.22,-392.04 93.8,-385.53"/>
</g>
<!-- Node7 -->
<g id="node7" class="node">
<title>Node7</title>
<g id="a_node7"><a xlink:href="classcom_1_1tw_1_1paintbots_1_1_renderables_1_1_renderable.xhtml" target="_top" xlink:title=" ">
<polygon fill="white" stroke="black" points="152,-314.5 152,-344.5 301,-344.5 301,-314.5 152,-314.5"/>
<text text-anchor="start" x="160" y="-332.5" font-family="Helvetica,sans-Serif" font-size="10.00">com.tw.paintbots.Renderables.</text>
<text text-anchor="middle" x="226.5" y="-321.5" font-family="Helvetica,sans-Serif" font-size="10.00">Renderable</text>
</a>
</g>
</g>
<!-- Node1&#45;&gt;Node7 -->
<g id="edge7" class="edge">
<title>Node1&#45;&gt;Node7</title>
<path fill="none" stroke="midnightblue" d="M103.34,-363.25C124.14,-357.5 149.12,-350.6 171.05,-344.54"/>
<polygon fill="midnightblue" stroke="midnightblue" points="102.21,-359.93 93.5,-365.97 104.07,-366.68 102.21,-359.93"/>
</g>
<!-- Node3 -->
<g id="node3" class="node">
<title>Node3</title>
<g id="a_node3"><a xlink:href="classcom_1_1tw_1_1paintbots_1_1_a_i_player.xhtml" target="_top" xlink:title=" ">
<polygon fill="white" stroke="black" points="348,-489 348,-508 477,-508 477,-489 348,-489"/>
<text text-anchor="middle" x="412.5" y="-496" font-family="Helvetica,sans-Serif" font-size="10.00">com.tw.paintbots.AIPlayer</text>
</a>
</g>
</g>
<!-- Node2&#45;&gt;Node3 -->
<g id="edge2" class="edge">
<title>Node2&#45;&gt;Node3</title>
<path fill="none" stroke="midnightblue" d="M262.58,-454.52C283.95,-462.24 311.88,-471.95 337,-479.5 348.12,-482.84 360.29,-486.11 371.51,-488.96"/>
<polygon fill="midnightblue" stroke="midnightblue" points="263.56,-451.15 252.97,-451.02 261.17,-457.73 263.56,-451.15"/>
</g>
<!-- Node5 -->
<g id="node5" class="node">
<title>Node5</title>
<g id="a_node5"><a xlink:href="classcom_1_1tw_1_1paintbots_1_1_human_player.xhtml" target="_top" xlink:title=" ">
<polygon fill="white" stroke="black" points="337,-451 337,-470 488,-470 488,-451 337,-451"/>
<text text-anchor="middle" x="412.5" y="-458" font-family="Helvetica,sans-Serif" font-size="10.00">com.tw.paintbots.HumanPlayer</text>
</a>
</g>
</g>
<!-- Node2&#45;&gt;Node5 -->
<g id="edge5" class="edge">
<title>Node2&#45;&gt;Node5</title>
<path fill="none" stroke="midnightblue" d="M296.2,-448.59C309.46,-449.96 323.4,-451.4 336.83,-452.79"/>
<polygon fill="midnightblue" stroke="midnightblue" points="296.53,-445.11 286.22,-447.56 295.81,-452.07 296.53,-445.11"/>
</g>
<!-- Node6 -->
<g id="node6" class="node">
<title>Node6</title>
<g id="a_node6"><a xlink:href="classcom_1_1tw_1_1paintbots_1_1_none_player.xhtml" target="_top" xlink:title=" ">
<polygon fill="white" stroke="black" points="341,-413 341,-432 484,-432 484,-413 341,-413"/>
<text text-anchor="middle" x="412.5" y="-420" font-family="Helvetica,sans-Serif" font-size="10.00">com.tw.paintbots.NonePlayer</text>
</a>
</g>
</g>
<!-- Node2&#45;&gt;Node6 -->
<g id="edge6" class="edge">
<title>Node2&#45;&gt;Node6</title>
<path fill="none" stroke="midnightblue" d="M296.58,-434.37C311.03,-432.88 326.28,-431.3 340.78,-429.8"/>
<polygon fill="midnightblue" stroke="midnightblue" points="295.81,-430.93 286.22,-435.44 296.53,-437.89 295.81,-430.93"/>
</g>
<!-- Node4 -->
<g id="node4" class="node">
<title>Node4</title>
<g id="a_node4"><a xlink:title=" ">
<polygon fill="white" stroke="#bfbfbf" points="532.5,-489 532.5,-508 675.5,-508 675.5,-489 532.5,-489"/>
<text text-anchor="middle" x="604" y="-496" font-family="Helvetica,sans-Serif" font-size="10.00">com.tw.paintbots.RandomBot</text>
</a>
</g>
</g>
<!-- Node3&#45;&gt;Node4 -->
<g id="edge3" class="edge">
<title>Node3&#45;&gt;Node4</title>
<path fill="none" stroke="midnightblue" d="M487.26,-491.9C502.09,-491.69 517.65,-491.7 532.37,-491.95"/>
<polygon fill="midnightblue" stroke="midnightblue" points="487.06,-488.4 477.13,-492.08 487.19,-495.4 487.06,-488.4"/>
</g>
<!-- Node3&#45;&gt;Node4 -->
<g id="edge4" class="edge">
<title>Node3&#45;&gt;Node4</title>
<path fill="none" stroke="midnightblue" d="M487.26,-505.1C502.09,-505.31 517.65,-505.3 532.37,-505.05"/>
<polygon fill="midnightblue" stroke="midnightblue" points="487.19,-501.6 477.13,-504.92 487.06,-508.6 487.19,-501.6"/>
</g>
<!-- Node8 -->
<g id="node8" class="node">
<title>Node8</title>
<g id="a_node8"><a xlink:href="classcom_1_1tw_1_1paintbots_1_1_renderables_1_1_canvas.xhtml" target="_top" xlink:title=" ">
<polygon fill="white" stroke="black" points="338,-363.5 338,-393.5 487,-393.5 487,-363.5 338,-363.5"/>
<text text-anchor="start" x="346" y="-381.5" font-family="Helvetica,sans-Serif" font-size="10.00">com.tw.paintbots.Renderables.</text>
<text text-anchor="middle" x="412.5" y="-370.5" font-family="Helvetica,sans-Serif" font-size="10.00">Canvas</text>
</a>
</g>
</g>
<!-- Node7&#45;&gt;Node8 -->
<g id="edge8" class="edge">
<title>Node7&#45;&gt;Node8</title>
<path fill="none" stroke="midnightblue" d="M293.68,-347.12C313.81,-352.48 335.73,-358.32 355.15,-363.49"/>
<polygon fill="midnightblue" stroke="midnightblue" points="294.52,-343.73 283.96,-344.53 292.72,-350.49 294.52,-343.73"/>
</g>
<!-- Node9 -->
<g id="node9" class="node">
<title>Node9</title>
<g id="a_node9"><a xlink:href="classcom_1_1tw_1_1paintbots_1_1_renderables_1_1_multi_layer_renderable.xhtml" target="_top" xlink:title=" ">
<polygon fill="white" stroke="black" points="338,-314.5 338,-344.5 487,-344.5 487,-314.5 338,-314.5"/>
<text text-anchor="start" x="346" y="-332.5" font-family="Helvetica,sans-Serif" font-size="10.00">com.tw.paintbots.Renderables.</text>
<text text-anchor="middle" x="412.5" y="-321.5" font-family="Helvetica,sans-Serif" font-size="10.00">MultiLayerRenderable</text>
</a>
</g>
</g>
<!-- Node7&#45;&gt;Node9 -->
<g id="edge9" class="edge">
<title>Node7&#45;&gt;Node9</title>
<path fill="none" stroke="midnightblue" d="M311.03,-329.5C319.96,-329.5 329,-329.5 337.8,-329.5"/>
<polygon fill="midnightblue" stroke="midnightblue" points="311.01,-326 301.01,-329.5 311.01,-333 311.01,-326"/>
</g>
<!-- Node10 -->
<g id="node10" class="node">
<title>Node10</title>
<g id="a_node10"><a xlink:href="classcom_1_1tw_1_1paintbots_1_1_renderables_1_1_simple_renderable.xhtml" target="_top" xlink:title=" ">
<polygon fill="white" stroke="black" points="338,-265.5 338,-295.5 487,-295.5 487,-265.5 338,-265.5"/>
<text text-anchor="start" x="346" y="-283.5" font-family="Helvetica,sans-Serif" font-size="10.00">com.tw.paintbots.Renderables.</text>
<text text-anchor="middle" x="412.5" y="-272.5" font-family="Helvetica,sans-Serif" font-size="10.00">SimpleRenderable</text>
</a>
</g>
</g>
<!-- Node7&#45;&gt;Node10 -->
<g id="edge10" class="edge">
<title>Node7&#45;&gt;Node10</title>
<path fill="none" stroke="midnightblue" d="M293.68,-311.88C313.81,-306.52 335.73,-300.68 355.15,-295.51"/>
<polygon fill="midnightblue" stroke="midnightblue" points="292.72,-308.51 283.96,-314.47 294.52,-315.27 292.72,-308.51"/>
</g>
<!-- Node21 -->
<g id="node21" class="node">
<title>Node21</title>
<g id="a_node21"><a xlink:href="classcom_1_1tw_1_1paintbots_1_1_renderables_1_1_texture_grid.xhtml" target="_top" xlink:title=" ">
<polygon fill="white" stroke="black" points="338,-71.5 338,-101.5 487,-101.5 487,-71.5 338,-71.5"/>
<text text-anchor="start" x="346" y="-89.5" font-family="Helvetica,sans-Serif" font-size="10.00">com.tw.paintbots.Renderables.</text>
<text text-anchor="middle" x="412.5" y="-78.5" font-family="Helvetica,sans-Serif" font-size="10.00">TextureGrid</text>
</a>
</g>
</g>
<!-- Node7&#45;&gt;Node21 -->
<g id="edge21" class="edge">
<title>Node7&#45;&gt;Node21</title>
<path fill="none" stroke="midnightblue" d="M245.2,-306.13C282.61,-256.72 368.83,-142.86 399.99,-101.69"/>
<polygon fill="midnightblue" stroke="midnightblue" points="242.26,-304.21 239.01,-314.3 247.84,-308.44 242.26,-304.21"/>
</g>
<!-- Node11 -->
<g id="node11" class="node">
<title>Node11</title>
<g id="a_node11"><a xlink:href="classcom_1_1tw_1_1paintbots_1_1_items_1_1_item.xhtml" target="_top" xlink:title=" ">
<polygon fill="white" stroke="black" points="534.5,-435 534.5,-454 673.5,-454 673.5,-435 534.5,-435"/>
<text text-anchor="middle" x="604" y="-442" font-family="Helvetica,sans-Serif" font-size="10.00">com.tw.paintbots.Items.Item</text>
</a>
</g>
</g>
<!-- Node10&#45;&gt;Node11 -->
<g id="edge11" class="edge">
<title>Node10&#45;&gt;Node11</title>
<path fill="none" stroke="midnightblue" d="M483.46,-301.36C485.05,-302.66 486.57,-304.03 488,-305.5 525.98,-344.45 485.02,-384.55 524,-422.5 529.41,-427.76 535.96,-431.79 542.96,-434.87"/>
<polygon fill="midnightblue" stroke="midnightblue" points="485.2,-298.3 474.98,-295.51 481.23,-304.07 485.2,-298.3"/>
</g>
<!-- Node13 -->
<g id="node13" class="node">
<title>Node13</title>
<g id="a_node13"><a xlink:href="classcom_1_1tw_1_1paintbots_1_1_renderables_1_1_animated_renderable.xhtml" target="_top" xlink:title=" ">
<polygon fill="white" stroke="black" points="529.5,-382.5 529.5,-412.5 678.5,-412.5 678.5,-382.5 529.5,-382.5"/>
<text text-anchor="start" x="537.5" y="-400.5" font-family="Helvetica,sans-Serif" font-size="10.00">com.tw.paintbots.Renderables.</text>
<text text-anchor="middle" x="604" y="-389.5" font-family="Helvetica,sans-Serif" font-size="10.00">AnimatedRenderable</text>
</a>
</g>
</g>
<!-- Node10&#45;&gt;Node13 -->
<g id="edge13" class="edge">
<title>Node10&#45;&gt;Node13</title>
<path fill="none" stroke="midnightblue" d="M481.66,-300.74C483.88,-302.22 486,-303.8 488,-305.5 514.07,-327.63 497.61,-351.75 524,-373.5 528.2,-376.96 532.9,-379.93 537.85,-382.47"/>
<polygon fill="midnightblue" stroke="midnightblue" points="483.14,-297.55 472.74,-295.55 479.62,-303.6 483.14,-297.55"/>
</g>
<!-- Node16 -->
<g id="node16" class="node">
<title>Node16</title>
<g id="a_node16"><a xlink:href="classcom_1_1tw_1_1paintbots_1_1_renderables_1_1_repeated_renderable.xhtml" target="_top" xlink:title=" ">
<polygon fill="white" stroke="black" points="529.5,-333.5 529.5,-363.5 678.5,-363.5 678.5,-333.5 529.5,-333.5"/>
<text text-anchor="start" x="537.5" y="-351.5" font-family="Helvetica,sans-Serif" font-size="10.00">com.tw.paintbots.Renderables.</text>
<text text-anchor="middle" x="604" y="-340.5" font-family="Helvetica,sans-Serif" font-size="10.00">RepeatedRenderable</text>
</a>
</g>
</g>
<!-- Node10&#45;&gt;Node16 -->
<g id="edge16" class="edge">
<title>Node10&#45;&gt;Node16</title>
<path fill="none" stroke="midnightblue" d="M471.49,-298.93C477.11,-301.03 482.7,-303.23 488,-305.5 504.63,-312.62 507.27,-317.62 524,-324.5 531.82,-327.72 540.23,-330.73 548.55,-333.45"/>
<polygon fill="midnightblue" stroke="midnightblue" points="472.61,-295.62 462.02,-295.51 470.24,-302.2 472.61,-295.62"/>
</g>
<!-- Node17 -->
<g id="node17" class="node">
<title>Node17</title>
<g id="a_node17"><a xlink:href="classcom_1_1tw_1_1paintbots_1_1_renderables_1_1_u_i_menu_item.xhtml" target="_top" xlink:title=" ">
<polygon fill="white" stroke="black" points="529.5,-284.5 529.5,-314.5 678.5,-314.5 678.5,-284.5 529.5,-284.5"/>
<text text-anchor="start" x="537.5" y="-302.5" font-family="Helvetica,sans-Serif" font-size="10.00">com.tw.paintbots.Renderables.</text>
<text text-anchor="middle" x="604" y="-291.5" font-family="Helvetica,sans-Serif" font-size="10.00">UIMenuItem</text>
</a>
</g>
</g>
<!-- Node10&#45;&gt;Node17 -->
<g id="edge17" class="edge">
<title>Node10&#45;&gt;Node17</title>
<path fill="none" stroke="midnightblue" d="M497.18,-288.89C507.85,-289.96 518.7,-291.05 529.19,-292.1"/>
<polygon fill="midnightblue" stroke="midnightblue" points="497.34,-285.39 487.04,-287.87 496.64,-292.35 497.34,-285.39"/>
</g>
<!-- Node18 -->
<g id="node18" class="node">
<title>Node18</title>
<g id="a_node18"><a xlink:href="classcom_1_1tw_1_1paintbots_1_1_renderables_1_1_u_i_player_board.xhtml" target="_top" xlink:title=" ">
<polygon fill="white" stroke="black" points="529.5,-235.5 529.5,-265.5 678.5,-265.5 678.5,-235.5 529.5,-235.5"/>
<text text-anchor="start" x="537.5" y="-253.5" font-family="Helvetica,sans-Serif" font-size="10.00">com.tw.paintbots.Renderables.</text>
<text text-anchor="middle" x="604" y="-242.5" font-family="Helvetica,sans-Serif" font-size="10.00">UIPlayerBoard</text>
</a>
</g>
</g>
<!-- Node10&#45;&gt;Node18 -->
<g id="edge18" class="edge">
<title>Node10&#45;&gt;Node18</title>
<path fill="none" stroke="midnightblue" d="M497.18,-267.25C507.85,-265.56 518.7,-263.85 529.19,-262.18"/>
<polygon fill="midnightblue" stroke="midnightblue" points="496.37,-263.84 487.04,-268.86 497.46,-270.75 496.37,-263.84"/>
</g>
<!-- Node19 -->
<g id="node19" class="node">
<title>Node19</title>
<g id="a_node19"><a xlink:href="classcom_1_1tw_1_1paintbots_1_1_renderables_1_1_u_i_result_board.xhtml" target="_top" xlink:title=" ">
<polygon fill="white" stroke="black" points="529.5,-186.5 529.5,-216.5 678.5,-216.5 678.5,-186.5 529.5,-186.5"/>
<text text-anchor="start" x="537.5" y="-204.5" font-family="Helvetica,sans-Serif" font-size="10.00">com.tw.paintbots.Renderables.</text>
<text text-anchor="middle" x="604" y="-193.5" font-family="Helvetica,sans-Serif" font-size="10.00">UIResultBoard</text>
</a>
</g>
</g>
<!-- Node10&#45;&gt;Node19 -->
<g id="edge19" class="edge">
<title>Node10&#45;&gt;Node19</title>
<path fill="none" stroke="midnightblue" d="M450.57,-260.68C471.73,-249.79 498.96,-236.52 524,-226.5 532.82,-222.97 542.34,-219.6 551.61,-216.54"/>
<polygon fill="midnightblue" stroke="midnightblue" points="448.86,-257.62 441.59,-265.33 452.08,-263.83 448.86,-257.62"/>
</g>
<!-- Node20 -->
<g id="node20" class="node">
<title>Node20</title>
<g id="a_node20"><a xlink:href="classcom_1_1tw_1_1paintbots_1_1_renderables_1_1_u_i_timer.xhtml" target="_top" xlink:title=" ">
<polygon fill="white" stroke="black" points="529.5,-137.5 529.5,-167.5 678.5,-167.5 678.5,-137.5 529.5,-137.5"/>
<text text-anchor="start" x="537.5" y="-155.5" font-family="Helvetica,sans-Serif" font-size="10.00">com.tw.paintbots.Renderables.</text>
<text text-anchor="middle" x="604" y="-144.5" font-family="Helvetica,sans-Serif" font-size="10.00">UITimer</text>
</a>
</g>
</g>
<!-- Node10&#45;&gt;Node20 -->
<g id="edge20" class="edge">
<title>Node10&#45;&gt;Node20</title>
<path fill="none" stroke="midnightblue" d="M432.45,-257.66C452.84,-234.44 487.33,-198.91 524,-177.5 530.46,-173.73 537.56,-170.46 544.76,-167.64"/>
<polygon fill="midnightblue" stroke="midnightblue" points="429.72,-255.46 425.84,-265.32 435.02,-260.03 429.72,-255.46"/>
</g>
<!-- Node12 -->
<g id="node12" class="node">
<title>Node12</title>
<g id="a_node12"><a xlink:href="classcom_1_1tw_1_1paintbots_1_1_items_1_1_refill_place_base.xhtml" target="_top" xlink:title=" ">
<polygon fill="white" stroke="black" points="724.5,-431.5 724.5,-461.5 864.5,-461.5 864.5,-431.5 724.5,-431.5"/>
<text text-anchor="start" x="732.5" y="-449.5" font-family="Helvetica,sans-Serif" font-size="10.00">com.tw.paintbots.Items.Refill</text>
<text text-anchor="middle" x="794.5" y="-438.5" font-family="Helvetica,sans-Serif" font-size="10.00">PlaceBase</text>
</a>
</g>
</g>
<!-- Node11&#45;&gt;Node12 -->
<g id="edge12" class="edge">
<title>Node11&#45;&gt;Node12</title>
<path fill="none" stroke="midnightblue" d="M683.78,-445.34C697.24,-445.48 711.14,-445.63 724.33,-445.77"/>
<polygon fill="midnightblue" stroke="midnightblue" points="683.62,-441.83 673.59,-445.23 683.55,-448.83 683.62,-441.83"/>
</g>
<!-- Node14 -->
<g id="node14" class="node">
<title>Node14</title>
<g id="a_node14"><a xlink:href="classcom_1_1tw_1_1paintbots_1_1_renderables_1_1_direction_indicator.xhtml" target="_top" xlink:title=" ">
<polygon fill="white" stroke="black" points="720,-382.5 720,-412.5 869,-412.5 869,-382.5 720,-382.5"/>
<text text-anchor="start" x="728" y="-400.5" font-family="Helvetica,sans-Serif" font-size="10.00">com.tw.paintbots.Renderables.</text>
<text text-anchor="middle" x="794.5" y="-389.5" font-family="Helvetica,sans-Serif" font-size="10.00">DirectionIndicator</text>
</a>
</g>
</g>
<!-- Node13&#45;&gt;Node14 -->
<g id="edge14" class="edge">
<title>Node13&#45;&gt;Node14</title>
<path fill="none" stroke="midnightblue" d="M688.93,-397.5C699.24,-397.5 709.72,-397.5 719.86,-397.5"/>
<polygon fill="midnightblue" stroke="midnightblue" points="688.69,-394 678.69,-397.5 688.69,-401 688.69,-394"/>
</g>
<!-- Node15 -->
<g id="node15" class="node">
<title>Node15</title>
<g id="a_node15"><a xlink:href="classcom_1_1tw_1_1paintbots_1_1_renderables_1_1_player_animation.xhtml" target="_top" xlink:title=" ">
<polygon fill="white" stroke="black" points="720,-333.5 720,-363.5 869,-363.5 869,-333.5 720,-333.5"/>
<text text-anchor="start" x="728" y="-351.5" font-family="Helvetica,sans-Serif" font-size="10.00">com.tw.paintbots.Renderables.</text>
<text text-anchor="middle" x="794.5" y="-340.5" font-family="Helvetica,sans-Serif" font-size="10.00">PlayerAnimation</text>
</a>
</g>
</g>
<!-- Node13&#45;&gt;Node15 -->
<g id="edge15" class="edge">
<title>Node13&#45;&gt;Node15</title>
<path fill="none" stroke="midnightblue" d="M672.79,-379.88C693.42,-374.52 715.88,-368.68 735.77,-363.51"/>
<polygon fill="midnightblue" stroke="midnightblue" points="671.64,-376.56 662.84,-382.47 673.4,-383.34 671.64,-376.56"/>
</g>
<!-- Node22 -->
<g id="node22" class="node">
<title>Node22</title>
<g id="a_node22"><a xlink:href="classcom_1_1tw_1_1paintbots_1_1_items_1_1_power_up.xhtml" target="_top" xlink:title=" ">
<polygon fill="white" stroke="black" points="524,-99 524,-118 684,-118 684,-99 524,-99"/>
<text text-anchor="middle" x="604" y="-106" font-family="Helvetica,sans-Serif" font-size="10.00">com.tw.paintbots.Items.PowerUp</text>
</a>
</g>
</g>
<!-- Node21&#45;&gt;Node22 -->
<g id="edge22" class="edge">
<title>Node21&#45;&gt;Node22</title>
<path fill="none" stroke="midnightblue" d="M497.03,-96.2C505.94,-97.23 514.99,-98.28 523.86,-99.31"/>
<polygon fill="midnightblue" stroke="midnightblue" points="497.37,-92.71 487.04,-95.04 496.57,-99.67 497.37,-92.71"/>
</g>
<!-- Node23 -->
<g id="node23" class="node">
<title>Node23</title>
<g id="a_node23"><a xlink:href="classcom_1_1tw_1_1paintbots_1_1_renderables_1_1_u_i_color_bar.xhtml" target="_top" xlink:title=" ">
<polygon fill="white" stroke="black" points="529.5,-49.5 529.5,-79.5 678.5,-79.5 678.5,-49.5 529.5,-49.5"/>
<text text-anchor="start" x="537.5" y="-67.5" font-family="Helvetica,sans-Serif" font-size="10.00">com.tw.paintbots.Renderables.</text>
<text text-anchor="middle" x="604" y="-56.5" font-family="Helvetica,sans-Serif" font-size="10.00">UIColorBar</text>
</a>
</g>
</g>
<!-- Node21&#45;&gt;Node23 -->
<g id="edge23" class="edge">
<title>Node21&#45;&gt;Node23</title>
<path fill="none" stroke="midnightblue" d="M497.18,-76.78C507.85,-75.55 518.7,-74.29 529.19,-73.07"/>
<polygon fill="midnightblue" stroke="midnightblue" points="496.57,-73.33 487.04,-77.96 497.37,-80.29 496.57,-73.33"/>
</g>
<!-- Node24 -->
<g id="node24" class="node">
<title>Node24</title>
<g id="a_node24"><a xlink:href="classcom_1_1tw_1_1paintbots_1_1_renderables_1_1_u_i_digit.xhtml" target="_top" xlink:title=" ">
<polygon fill="white" stroke="black" points="529.5,-0.5 529.5,-30.5 678.5,-30.5 678.5,-0.5 529.5,-0.5"/>
<text text-anchor="start" x="537.5" y="-18.5" font-family="Helvetica,sans-Serif" font-size="10.00">com.tw.paintbots.Renderables.</text>
<text text-anchor="middle" x="604" y="-7.5" font-family="Helvetica,sans-Serif" font-size="10.00">UIDigit</text>
</a>
</g>
</g>
<!-- Node21&#45;&gt;Node24 -->
<g id="edge24" class="edge">
<title>Node21&#45;&gt;Node24</title>
<path fill="none" stroke="midnightblue" d="M455.82,-67.24C476.22,-58.28 501.16,-47.8 524,-39.5 532.49,-36.42 541.58,-33.4 550.47,-30.6"/>
<polygon fill="midnightblue" stroke="midnightblue" points="454.22,-64.12 446.49,-71.37 457.06,-70.52 454.22,-64.12"/>
</g>
<!-- Node25 -->
<g id="node25" class="node">
<title>Node25</title>
<g id="a_node25"><a xlink:href="classcom_1_1tw_1_1paintbots_1_1_renderables_1_1_start_timer.xhtml" target="_top" xlink:title=" ">
<polygon fill="white" stroke="black" points="720,-0.5 720,-30.5 869,-30.5 869,-0.5 720,-0.5"/>
<text text-anchor="start" x="728" y="-18.5" font-family="Helvetica,sans-Serif" font-size="10.00">com.tw.paintbots.Renderables.</text>
<text text-anchor="middle" x="794.5" y="-7.5" font-family="Helvetica,sans-Serif" font-size="10.00">StartTimer</text>
</a>
</g>
</g>
<!-- Node24&#45;&gt;Node25 -->
<g id="edge25" class="edge">
<title>Node24&#45;&gt;Node25</title>
<path fill="none" stroke="midnightblue" d="M688.93,-15.5C699.24,-15.5 709.72,-15.5 719.86,-15.5"/>
<polygon fill="midnightblue" stroke="midnightblue" points="688.69,-12 678.69,-15.5 688.69,-19 688.69,-12"/>
</g>
</g>
</svg>
