<?xml version="1.0" encoding="UTF-8" standalone="no"?>
<!DOCTYPE svg PUBLIC "-//W3C//DTD SVG 1.1//EN"
 "http://www.w3.org/Graphics/SVG/1.1/DTD/svg11.dtd">
<!-- Generated by graphviz version 2.49.3 (20211027.1534)
 -->
<!-- Title: com.tw.paintbots.Renderables.StartTimer Pages: 1 -->
<svg width="243pt" height="310pt"
 viewBox="0.00 0.00 242.50 310.00" xmlns="http://www.w3.org/2000/svg" xmlns:xlink="http://www.w3.org/1999/xlink">
<g id="graph0" class="graph" transform="scale(1 1) rotate(0) translate(4 306)">
<title>com.tw.paintbots.Renderables.StartTimer</title>
<polygon fill="white" stroke="transparent" points="-4,4 -4,-306 238.5,-306 238.5,4 -4,4"/>
<!-- Node1 -->
<g id="node1" class="node">
<title>Node1</title>
<g id="a_node1"><a xlink:title=" ">
<polygon fill="#bfbfbf" stroke="black" points="40.5,-0.5 40.5,-30.5 189.5,-30.5 189.5,-0.5 40.5,-0.5"/>
<text text-anchor="start" x="48.5" y="-18.5" font-family="Helvetica,sans-Serif" font-size="10.00">com.tw.paintbots.Renderables.</text>
<text text-anchor="middle" x="115" y="-7.5" font-family="Helvetica,sans-Serif" font-size="10.00">StartTimer</text>
</a>
</g>
</g>
<!-- Node2 -->
<g id="node2" class="node">
<title>Node2</title>
<g id="a_node2"><a xlink:href="classcom_1_1tw_1_1paintbots_1_1_renderables_1_1_u_i_digit.xhtml" target="_top" xlink:title=" ">
<polygon fill="white" stroke="black" points="40.5,-68.5 40.5,-98.5 189.5,-98.5 189.5,-68.5 40.5,-68.5"/>
<text text-anchor="start" x="48.5" y="-86.5" font-family="Helvetica,sans-Serif" font-size="10.00">com.tw.paintbots.Renderables.</text>
<text text-anchor="middle" x="115" y="-75.5" font-family="Helvetica,sans-Serif" font-size="10.00">UIDigit</text>
</a>
</g>
</g>
<!-- Node2&#45;&gt;Node1 -->
<g id="edge1" class="edge">
<title>Node2&#45;&gt;Node1</title>
<path fill="none" stroke="midnightblue" d="M115,-58.03C115,-48.86 115,-38.74 115,-30.79"/>
<polygon fill="midnightblue" stroke="midnightblue" points="111.5,-58.18 115,-68.18 118.5,-58.18 111.5,-58.18"/>
</g>
<!-- Node3 -->
<g id="node3" class="node">
<title>Node3</title>
<g id="a_node3"><a xlink:href="classcom_1_1tw_1_1paintbots_1_1_renderables_1_1_texture_grid.xhtml" target="_top" xlink:title=" ">
<polygon fill="white" stroke="black" points="40.5,-136.5 40.5,-166.5 189.5,-166.5 189.5,-136.5 40.5,-136.5"/>
<text text-anchor="start" x="48.5" y="-154.5" font-family="Helvetica,sans-Serif" font-size="10.00">com.tw.paintbots.Renderables.</text>
<text text-anchor="middle" x="115" y="-143.5" font-family="Helvetica,sans-Serif" font-size="10.00">TextureGrid</text>
</a>
</g>
</g>
<!-- Node3&#45;&gt;Node2 -->
<g id="edge2" class="edge">
<title>Node3&#45;&gt;Node2</title>
<path fill="none" stroke="midnightblue" d="M115,-126.03C115,-116.86 115,-106.74 115,-98.79"/>
<polygon fill="midnightblue" stroke="midnightblue" points="111.5,-126.18 115,-136.18 118.5,-126.18 111.5,-126.18"/>
</g>
<!-- Node4 -->
<g id="node4" class="node">
<title>Node4</title>
<g id="a_node4"><a xlink:href="classcom_1_1tw_1_1paintbots_1_1_renderables_1_1_renderable.xhtml" target="_top" xlink:title=" ">
<polygon fill="white" stroke="black" points="40.5,-204.5 40.5,-234.5 189.5,-234.5 189.5,-204.5 40.5,-204.5"/>
<text text-anchor="start" x="48.5" y="-222.5" font-family="Helvetica,sans-Serif" font-size="10.00">com.tw.paintbots.Renderables.</text>
<text text-anchor="middle" x="115" y="-211.5" font-family="Helvetica,sans-Serif" font-size="10.00">Renderable</text>
</a>
</g>
</g>
<!-- Node4&#45;&gt;Node3 -->
<g id="edge3" class="edge">
<title>Node4&#45;&gt;Node3</title>
<path fill="none" stroke="midnightblue" d="M115,-194.03C115,-184.86 115,-174.74 115,-166.79"/>
<polygon fill="midnightblue" stroke="midnightblue" points="111.5,-194.18 115,-204.18 118.5,-194.18 111.5,-194.18"/>
</g>
<!-- Node4&#45;&gt;Node4 -->
<g id="edge5" class="edge">
<title>Node4&#45;&gt;Node4</title>
<path fill="none" stroke="#9a32cd" stroke-dasharray="5,2" d="M199.69,-223.84C204.58,-222.8 207.5,-221.35 207.5,-219.5 207.5,-216.61 200.38,-214.7 189.76,-213.78"/>
<polygon fill="#9a32cd" stroke="#9a32cd" points="199.19,-220.38 189.76,-225.22 200.15,-227.31 199.19,-220.38"/>
<text text-anchor="middle" x="221" y="-217" font-family="Helvetica,sans-Serif" font-size="10.00"> anker</text>
</g>
<!-- Node5 -->
<g id="node5" class="node">
<title>Node5</title>
<g id="a_node5"><a xlink:href="classcom_1_1tw_1_1paintbots_1_1_entity.xhtml" target="_top" xlink:title=" ">
<polygon fill="white" stroke="black" points="0,-282.5 0,-301.5 116,-301.5 116,-282.5 0,-282.5"/>
<text text-anchor="middle" x="58" y="-289.5" font-family="Helvetica,sans-Serif" font-size="10.00">com.tw.paintbots.Entity</text>
</a>
</g>
</g>
<!-- Node5&#45;&gt;Node4 -->
<g id="edge4" class="edge">
<title>Node5&#45;&gt;Node4</title>
<path fill="none" stroke="midnightblue" d="M71.43,-274.39C81.22,-262.28 94.34,-246.05 103.62,-234.58"/>
<polygon fill="midnightblue" stroke="midnightblue" points="68.55,-272.38 64.99,-282.36 74,-276.78 68.55,-272.38"/>
</g>
<!-- Node6 -->
<g id="node6" class="node">
<title>Node6</title>
<g id="a_node6"><a xlink:title=" ">
<polygon fill="white" stroke="#bfbfbf" points="133.5,-282.5 133.5,-301.5 212.5,-301.5 212.5,-282.5 133.5,-282.5"/>
<text text-anchor="middle" x="173" y="-289.5" font-family="Helvetica,sans-Serif" font-size="10.00">TextureRegion</text>
</a>
</g>
</g>
<!-- Node6&#45;&gt;Node4 -->
<g id="edge6" class="edge">
<title>Node6&#45;&gt;Node4</title>
<path fill="none" stroke="#9a32cd" stroke-dasharray="5,2" d="M159.34,-274.39C149.37,-262.28 136.02,-246.05 126.58,-234.58"/>
<polygon fill="#9a32cd" stroke="#9a32cd" points="156.83,-276.86 165.89,-282.36 162.24,-272.41 156.83,-276.86"/>
<text text-anchor="middle" x="181" y="-256" font-family="Helvetica,sans-Serif" font-size="10.00"> texture_region</text>
</g>
</g>
</svg>
