<?xml version="1.0" encoding="UTF-8" standalone="no"?>
<!DOCTYPE svg PUBLIC "-//W3C//DTD SVG 1.1//EN"
 "http://www.w3.org/Graphics/SVG/1.1/DTD/svg11.dtd">
<!-- Generated by graphviz version 2.49.3 (20211027.1534)
 -->
<!-- Title: com.tw.paintbots.Renderables.SimpleRenderable Pages: 1 -->
<svg width="310pt" height="184pt"
 viewBox="0.00 0.00 309.50 184.00" xmlns="http://www.w3.org/2000/svg" xmlns:xlink="http://www.w3.org/1999/xlink">
<g id="graph0" class="graph" transform="scale(1 1) rotate(0) translate(4 180)">
<title>com.tw.paintbots.Renderables.SimpleRenderable</title>
<polygon fill="white" stroke="transparent" points="-4,4 -4,-180 305.5,-180 305.5,4 -4,4"/>
<!-- Node1 -->
<g id="node1" class="node">
<title>Node1</title>
<g id="a_node1"><a xlink:title=" ">
<polygon fill="#bfbfbf" stroke="black" points="121.5,-0.5 121.5,-30.5 270.5,-30.5 270.5,-0.5 121.5,-0.5"/>
<text text-anchor="start" x="129.5" y="-18.5" font-family="Helvetica,sans-Serif" font-size="10.00">com.tw.paintbots.Renderables.</text>
<text text-anchor="middle" x="196" y="-7.5" font-family="Helvetica,sans-Serif" font-size="10.00">SimpleRenderable</text>
</a>
</g>
</g>
<!-- Node2 -->
<g id="node2" class="node">
<title>Node2</title>
<g id="a_node2"><a xlink:href="classcom_1_1tw_1_1paintbots_1_1_renderables_1_1_renderable.xhtml" target="_top" xlink:title=" ">
<polygon fill="white" stroke="black" points="40.5,-78.5 40.5,-108.5 189.5,-108.5 189.5,-78.5 40.5,-78.5"/>
<text text-anchor="start" x="48.5" y="-96.5" font-family="Helvetica,sans-Serif" font-size="10.00">com.tw.paintbots.Renderables.</text>
<text text-anchor="middle" x="115" y="-85.5" font-family="Helvetica,sans-Serif" font-size="10.00">Renderable</text>
</a>
</g>
</g>
<!-- Node2&#45;&gt;Node1 -->
<g id="edge1" class="edge">
<title>Node2&#45;&gt;Node1</title>
<path fill="none" stroke="midnightblue" d="M137.88,-71.03C151.63,-58.13 168.75,-42.07 180.83,-30.73"/>
<polygon fill="midnightblue" stroke="midnightblue" points="135.13,-68.81 130.24,-78.2 139.92,-73.91 135.13,-68.81"/>
</g>
<!-- Node2&#45;&gt;Node2 -->
<g id="edge3" class="edge">
<title>Node2&#45;&gt;Node2</title>
<path fill="none" stroke="#9a32cd" stroke-dasharray="5,2" d="M199.69,-98.35C204.58,-97.19 207.5,-95.57 207.5,-93.5 207.5,-90.27 200.38,-88.14 189.76,-87.11"/>
<polygon fill="#9a32cd" stroke="#9a32cd" points="199.11,-94.9 189.76,-99.89 200.18,-101.82 199.11,-94.9"/>
<text text-anchor="middle" x="221" y="-91" font-family="Helvetica,sans-Serif" font-size="10.00"> anker</text>
</g>
<!-- Node3 -->
<g id="node3" class="node">
<title>Node3</title>
<g id="a_node3"><a xlink:href="classcom_1_1tw_1_1paintbots_1_1_entity.xhtml" target="_top" xlink:title=" ">
<polygon fill="white" stroke="black" points="0,-156.5 0,-175.5 116,-175.5 116,-156.5 0,-156.5"/>
<text text-anchor="middle" x="58" y="-163.5" font-family="Helvetica,sans-Serif" font-size="10.00">com.tw.paintbots.Entity</text>
</a>
</g>
</g>
<!-- Node3&#45;&gt;Node2 -->
<g id="edge2" class="edge">
<title>Node3&#45;&gt;Node2</title>
<path fill="none" stroke="midnightblue" d="M71.43,-148.39C81.22,-136.28 94.34,-120.05 103.62,-108.58"/>
<polygon fill="midnightblue" stroke="midnightblue" points="68.55,-146.38 64.99,-156.36 74,-150.78 68.55,-146.38"/>
</g>
<!-- Node4 -->
<g id="node4" class="node">
<title>Node4</title>
<g id="a_node4"><a xlink:title=" ">
<polygon fill="white" stroke="#bfbfbf" points="133.5,-156.5 133.5,-175.5 212.5,-175.5 212.5,-156.5 133.5,-156.5"/>
<text text-anchor="middle" x="173" y="-163.5" font-family="Helvetica,sans-Serif" font-size="10.00">TextureRegion</text>
</a>
</g>
</g>
<!-- Node4&#45;&gt;Node2 -->
<g id="edge4" class="edge">
<title>Node4&#45;&gt;Node2</title>
<path fill="none" stroke="#9a32cd" stroke-dasharray="5,2" d="M159.34,-148.39C149.37,-136.28 136.02,-120.05 126.58,-108.58"/>
<polygon fill="#9a32cd" stroke="#9a32cd" points="156.83,-150.86 165.89,-156.36 162.24,-146.41 156.83,-150.86"/>
<text text-anchor="middle" x="182" y="-130" font-family="Helvetica,sans-Serif" font-size="10.00"> texture_region</text>
</g>
<!-- Node5 -->
<g id="node5" class="node">
<title>Node5</title>
<g id="a_node5"><a xlink:title=" ">
<polygon fill="white" stroke="#bfbfbf" points="252.5,-84 252.5,-103 301.5,-103 301.5,-84 252.5,-84"/>
<text text-anchor="middle" x="277" y="-91" font-family="Helvetica,sans-Serif" font-size="10.00">Texture</text>
</a>
</g>
</g>
<!-- Node5&#45;&gt;Node1 -->
<g id="edge5" class="edge">
<title>Node5&#45;&gt;Node1</title>
<path fill="none" stroke="#9a32cd" stroke-dasharray="5,2" d="M260.38,-76.9C245.85,-63.27 224.95,-43.66 210.94,-30.52"/>
<polygon fill="#9a32cd" stroke="#9a32cd" points="258.02,-79.49 267.71,-83.78 262.81,-74.39 258.02,-79.49"/>
<text text-anchor="middle" x="258" y="-52" font-family="Helvetica,sans-Serif" font-size="10.00"> texture</text>
</g>
</g>
</svg>
