<?xml version="1.0" encoding="UTF-8" standalone="no"?>
<!DOCTYPE svg PUBLIC "-//W3C//DTD SVG 1.1//EN"
 "http://www.w3.org/Graphics/SVG/1.1/DTD/svg11.dtd">
<!-- Generated by graphviz version 2.49.3 (20211027.1534)
 -->
<!-- Title: com.tw.paintbots.Player Pages: 1 -->
<svg width="474pt" height="196pt"
 viewBox="0.00 0.00 474.00 196.00" xmlns="http://www.w3.org/2000/svg" xmlns:xlink="http://www.w3.org/1999/xlink">
<g id="graph0" class="graph" transform="scale(1 1) rotate(0) translate(4 192)">
<title>com.tw.paintbots.Player</title>
<polygon fill="white" stroke="transparent" points="-4,4 -4,-192 470,-192 470,4 -4,4"/>
<!-- Node1 -->
<g id="node1" class="node">
<title>Node1</title>
<g id="a_node1"><a xlink:title=" ">
<polygon fill="#bfbfbf" stroke="black" points="170,-112.5 170,-131.5 289,-131.5 289,-112.5 170,-112.5"/>
<text text-anchor="middle" x="229.5" y="-119.5" font-family="Helvetica,sans-Serif" font-size="10.00">com.tw.paintbots.Player</text>
</a>
</g>
</g>
<!-- Node3 -->
<g id="node3" class="node">
<title>Node3</title>
<g id="a_node3"><a xlink:href="classcom_1_1tw_1_1paintbots_1_1_a_i_player.xhtml" target="_top" xlink:title=" ">
<polygon fill="white" stroke="black" points="7,-56.5 7,-75.5 136,-75.5 136,-56.5 7,-56.5"/>
<text text-anchor="middle" x="71.5" y="-63.5" font-family="Helvetica,sans-Serif" font-size="10.00">com.tw.paintbots.AIPlayer</text>
</a>
</g>
</g>
<!-- Node1&#45;&gt;Node3 -->
<g id="edge2" class="edge">
<title>Node1&#45;&gt;Node3</title>
<path fill="none" stroke="midnightblue" d="M194.89,-109.17C165.14,-99 122.95,-84.59 96.42,-75.52"/>
<polygon fill="midnightblue" stroke="midnightblue" points="193.87,-112.52 204.46,-112.44 196.13,-105.9 193.87,-112.52"/>
</g>
<!-- Node5 -->
<g id="node5" class="node">
<title>Node5</title>
<g id="a_node5"><a xlink:href="classcom_1_1tw_1_1paintbots_1_1_human_player.xhtml" target="_top" xlink:title=" ">
<polygon fill="white" stroke="black" points="154,-56.5 154,-75.5 305,-75.5 305,-56.5 154,-56.5"/>
<text text-anchor="middle" x="229.5" y="-63.5" font-family="Helvetica,sans-Serif" font-size="10.00">com.tw.paintbots.HumanPlayer</text>
</a>
</g>
</g>
<!-- Node1&#45;&gt;Node5 -->
<g id="edge5" class="edge">
<title>Node1&#45;&gt;Node5</title>
<path fill="none" stroke="midnightblue" d="M229.5,-101.8C229.5,-92.91 229.5,-82.78 229.5,-75.75"/>
<polygon fill="midnightblue" stroke="midnightblue" points="226,-102.08 229.5,-112.08 233,-102.08 226,-102.08"/>
</g>
<!-- Node6 -->
<g id="node6" class="node">
<title>Node6</title>
<g id="a_node6"><a xlink:href="classcom_1_1tw_1_1paintbots_1_1_none_player.xhtml" target="_top" xlink:title=" ">
<polygon fill="white" stroke="black" points="323,-56.5 323,-75.5 466,-75.5 466,-56.5 323,-56.5"/>
<text text-anchor="middle" x="394.5" y="-63.5" font-family="Helvetica,sans-Serif" font-size="10.00">com.tw.paintbots.NonePlayer</text>
</a>
</g>
</g>
<!-- Node1&#45;&gt;Node6 -->
<g id="edge6" class="edge">
<title>Node1&#45;&gt;Node6</title>
<path fill="none" stroke="midnightblue" d="M265.24,-109.3C296.33,-99.13 340.65,-84.62 368.48,-75.52"/>
<polygon fill="midnightblue" stroke="midnightblue" points="264.06,-106.01 255.64,-112.44 266.24,-112.66 264.06,-106.01"/>
</g>
<!-- Node2 -->
<g id="node2" class="node">
<title>Node2</title>
<g id="a_node2"><a xlink:href="classcom_1_1tw_1_1paintbots_1_1_entity.xhtml" target="_top" xlink:title=" ">
<polygon fill="white" stroke="black" points="171.5,-168.5 171.5,-187.5 287.5,-187.5 287.5,-168.5 171.5,-168.5"/>
<text text-anchor="middle" x="229.5" y="-175.5" font-family="Helvetica,sans-Serif" font-size="10.00">com.tw.paintbots.Entity</text>
</a>
</g>
</g>
<!-- Node2&#45;&gt;Node1 -->
<g id="edge1" class="edge">
<title>Node2&#45;&gt;Node1</title>
<path fill="none" stroke="midnightblue" d="M229.5,-157.8C229.5,-148.91 229.5,-138.78 229.5,-131.75"/>
<polygon fill="midnightblue" stroke="midnightblue" points="226,-158.08 229.5,-168.08 233,-158.08 226,-158.08"/>
</g>
<!-- Node4 -->
<g id="node4" class="node">
<title>Node4</title>
<g id="a_node4"><a xlink:title=" ">
<polygon fill="white" stroke="#bfbfbf" points="0,-0.5 0,-19.5 143,-19.5 143,-0.5 0,-0.5"/>
<text text-anchor="middle" x="71.5" y="-7.5" font-family="Helvetica,sans-Serif" font-size="10.00">com.tw.paintbots.RandomBot</text>
</a>
</g>
</g>
<!-- Node3&#45;&gt;Node4 -->
<g id="edge3" class="edge">
<title>Node3&#45;&gt;Node4</title>
<path fill="none" stroke="midnightblue" d="M65.03,-46.1C64.4,-37.14 64.84,-26.86 66.37,-19.75"/>
<polygon fill="midnightblue" stroke="midnightblue" points="61.57,-46.62 66.33,-56.08 68.51,-45.71 61.57,-46.62"/>
</g>
<!-- Node3&#45;&gt;Node4 -->
<g id="edge4" class="edge">
<title>Node3&#45;&gt;Node4</title>
<path fill="none" stroke="midnightblue" d="M77.97,-46.1C78.6,-37.14 78.16,-26.86 76.63,-19.75"/>
<polygon fill="midnightblue" stroke="midnightblue" points="74.49,-45.71 76.67,-56.08 81.43,-46.62 74.49,-45.71"/>
</g>
</g>
</svg>
