<?xml version="1.0" encoding="UTF-8" standalone="no"?>
<!DOCTYPE svg PUBLIC "-//W3C//DTD SVG 1.1//EN"
 "http://www.w3.org/Graphics/SVG/1.1/DTD/svg11.dtd">
<!-- Generated by graphviz version 2.49.3 (20211027.1534)
 -->
<!-- Title: com.tw.paintbots.Renderables.SimpleRenderable Pages: 1 -->
<svg width="864pt" height="284pt"
 viewBox="0.00 0.00 864.00 284.00" xmlns="http://www.w3.org/2000/svg" xmlns:xlink="http://www.w3.org/1999/xlink">
<g id="graph0" class="graph" transform="scale(1 1) rotate(0) translate(4 280)">
<title>com.tw.paintbots.Renderables.SimpleRenderable</title>
<polygon fill="white" stroke="transparent" points="-4,4 -4,-280 860,-280 860,4 -4,4"/>
<!-- Node1 -->
<g id="node1" class="node">
<title>Node1</title>
<g id="a_node1"><a xlink:title=" ">
<polygon fill="#bfbfbf" stroke="black" points="337,-122.5 337,-152.5 486,-152.5 486,-122.5 337,-122.5"/>
<text text-anchor="start" x="345" y="-140.5" font-family="Helvetica,sans-Serif" font-size="10.00">com.tw.paintbots.Renderables.</text>
<text text-anchor="middle" x="411.5" y="-129.5" font-family="Helvetica,sans-Serif" font-size="10.00">SimpleRenderable</text>
</a>
</g>
</g>
<!-- Node4 -->
<g id="node4" class="node">
<title>Node4</title>
<g id="a_node4"><a xlink:href="classcom_1_1tw_1_1paintbots_1_1_items_1_1_item.xhtml" target="_top" xlink:title=" ">
<polygon fill="white" stroke="black" points="527,-249 527,-268 666,-268 666,-249 527,-249"/>
<text text-anchor="middle" x="596.5" y="-256" font-family="Helvetica,sans-Serif" font-size="10.00">com.tw.paintbots.Items.Item</text>
</a>
</g>
</g>
<!-- Node1&#45;&gt;Node4 -->
<g id="edge3" class="edge">
<title>Node1&#45;&gt;Node4</title>
<path fill="none" stroke="midnightblue" d="M432.4,-160.24C452.85,-182.34 486.64,-215.41 522,-235.5 531.88,-241.11 543.3,-245.54 554.16,-248.94"/>
<polygon fill="midnightblue" stroke="midnightblue" points="434.8,-157.68 425.48,-152.64 429.62,-162.39 434.8,-157.68"/>
</g>
<!-- Node6 -->
<g id="node6" class="node">
<title>Node6</title>
<g id="a_node6"><a xlink:href="classcom_1_1tw_1_1paintbots_1_1_renderables_1_1_animated_renderable.xhtml" target="_top" xlink:title=" ">
<polygon fill="white" stroke="black" points="522,-196.5 522,-226.5 671,-226.5 671,-196.5 522,-196.5"/>
<text text-anchor="start" x="530" y="-214.5" font-family="Helvetica,sans-Serif" font-size="10.00">com.tw.paintbots.Renderables.</text>
<text text-anchor="middle" x="596.5" y="-203.5" font-family="Helvetica,sans-Serif" font-size="10.00">AnimatedRenderable</text>
</a>
</g>
</g>
<!-- Node1&#45;&gt;Node6 -->
<g id="edge5" class="edge">
<title>Node1&#45;&gt;Node6</title>
<path fill="none" stroke="midnightblue" d="M453.57,-156.97C473.96,-166.35 499.07,-177.49 522,-186.5 530.66,-189.9 539.99,-193.28 549,-196.41"/>
<polygon fill="midnightblue" stroke="midnightblue" points="454.81,-153.69 444.27,-152.66 451.87,-160.04 454.81,-153.69"/>
</g>
<!-- Node9 -->
<g id="node9" class="node">
<title>Node9</title>
<g id="a_node9"><a xlink:href="classcom_1_1tw_1_1paintbots_1_1_renderables_1_1_repeated_renderable.xhtml" target="_top" xlink:title=" ">
<polygon fill="white" stroke="black" points="522,-147.5 522,-177.5 671,-177.5 671,-147.5 522,-147.5"/>
<text text-anchor="start" x="530" y="-165.5" font-family="Helvetica,sans-Serif" font-size="10.00">com.tw.paintbots.Renderables.</text>
<text text-anchor="middle" x="596.5" y="-154.5" font-family="Helvetica,sans-Serif" font-size="10.00">RepeatedRenderable</text>
</a>
</g>
</g>
<!-- Node1&#45;&gt;Node9 -->
<g id="edge8" class="edge">
<title>Node1&#45;&gt;Node9</title>
<path fill="none" stroke="midnightblue" d="M496.11,-148.92C504.65,-150.09 513.28,-151.27 521.71,-152.42"/>
<polygon fill="midnightblue" stroke="midnightblue" points="496.52,-145.45 486.14,-147.56 495.58,-152.38 496.52,-145.45"/>
</g>
<!-- Node10 -->
<g id="node10" class="node">
<title>Node10</title>
<g id="a_node10"><a xlink:href="classcom_1_1tw_1_1paintbots_1_1_renderables_1_1_u_i_menu_item.xhtml" target="_top" xlink:title=" ">
<polygon fill="white" stroke="black" points="522,-98.5 522,-128.5 671,-128.5 671,-98.5 522,-98.5"/>
<text text-anchor="start" x="530" y="-116.5" font-family="Helvetica,sans-Serif" font-size="10.00">com.tw.paintbots.Renderables.</text>
<text text-anchor="middle" x="596.5" y="-105.5" font-family="Helvetica,sans-Serif" font-size="10.00">UIMenuItem</text>
</a>
</g>
</g>
<!-- Node1&#45;&gt;Node10 -->
<g id="edge9" class="edge">
<title>Node1&#45;&gt;Node10</title>
<path fill="none" stroke="midnightblue" d="M496.11,-126.53C504.65,-125.41 513.28,-124.28 521.71,-123.18"/>
<polygon fill="midnightblue" stroke="midnightblue" points="495.6,-123.07 486.14,-127.84 496.51,-130.01 495.6,-123.07"/>
</g>
<!-- Node11 -->
<g id="node11" class="node">
<title>Node11</title>
<g id="a_node11"><a xlink:href="classcom_1_1tw_1_1paintbots_1_1_renderables_1_1_u_i_player_board.xhtml" target="_top" xlink:title=" ">
<polygon fill="white" stroke="black" points="522,-49.5 522,-79.5 671,-79.5 671,-49.5 522,-49.5"/>
<text text-anchor="start" x="530" y="-67.5" font-family="Helvetica,sans-Serif" font-size="10.00">com.tw.paintbots.Renderables.</text>
<text text-anchor="middle" x="596.5" y="-56.5" font-family="Helvetica,sans-Serif" font-size="10.00">UIPlayerBoard</text>
</a>
</g>
</g>
<!-- Node1&#45;&gt;Node11 -->
<g id="edge10" class="edge">
<title>Node1&#45;&gt;Node11</title>
<path fill="none" stroke="midnightblue" d="M453.08,-118.12C473.53,-108.66 498.85,-97.43 522,-88.5 530.02,-85.41 538.62,-82.36 547.01,-79.53"/>
<polygon fill="midnightblue" stroke="midnightblue" points="451.34,-115.06 443.76,-122.46 454.3,-121.41 451.34,-115.06"/>
</g>
<!-- Node12 -->
<g id="node12" class="node">
<title>Node12</title>
<g id="a_node12"><a xlink:href="classcom_1_1tw_1_1paintbots_1_1_renderables_1_1_u_i_timer.xhtml" target="_top" xlink:title=" ">
<polygon fill="white" stroke="black" points="522,-0.5 522,-30.5 671,-30.5 671,-0.5 522,-0.5"/>
<text text-anchor="start" x="530" y="-18.5" font-family="Helvetica,sans-Serif" font-size="10.00">com.tw.paintbots.Renderables.</text>
<text text-anchor="middle" x="596.5" y="-7.5" font-family="Helvetica,sans-Serif" font-size="10.00">UITimer</text>
</a>
</g>
</g>
<!-- Node1&#45;&gt;Node12 -->
<g id="edge11" class="edge">
<title>Node1&#45;&gt;Node12</title>
<path fill="none" stroke="midnightblue" d="M432.45,-114.85C452.95,-92.83 486.76,-59.81 522,-39.5 527.82,-36.15 534.16,-33.19 540.61,-30.6"/>
<polygon fill="midnightblue" stroke="midnightblue" points="429.69,-112.68 425.52,-122.42 434.85,-117.41 429.69,-112.68"/>
</g>
<!-- Node2 -->
<g id="node2" class="node">
<title>Node2</title>
<g id="a_node2"><a xlink:href="classcom_1_1tw_1_1paintbots_1_1_renderables_1_1_renderable.xhtml" target="_top" xlink:title=" ">
<polygon fill="white" stroke="black" points="152,-122.5 152,-152.5 301,-152.5 301,-122.5 152,-122.5"/>
<text text-anchor="start" x="160" y="-140.5" font-family="Helvetica,sans-Serif" font-size="10.00">com.tw.paintbots.Renderables.</text>
<text text-anchor="middle" x="226.5" y="-129.5" font-family="Helvetica,sans-Serif" font-size="10.00">Renderable</text>
</a>
</g>
</g>
<!-- Node2&#45;&gt;Node1 -->
<g id="edge1" class="edge">
<title>Node2&#45;&gt;Node1</title>
<path fill="none" stroke="midnightblue" d="M311.39,-137.5C319.84,-137.5 328.38,-137.5 336.71,-137.5"/>
<polygon fill="midnightblue" stroke="midnightblue" points="311.14,-134 301.14,-137.5 311.14,-141 311.14,-134"/>
</g>
<!-- Node3 -->
<g id="node3" class="node">
<title>Node3</title>
<g id="a_node3"><a xlink:href="classcom_1_1tw_1_1paintbots_1_1_entity.xhtml" target="_top" xlink:title=" ">
<polygon fill="white" stroke="black" points="0,-128 0,-147 116,-147 116,-128 0,-128"/>
<text text-anchor="middle" x="58" y="-135" font-family="Helvetica,sans-Serif" font-size="10.00">com.tw.paintbots.Entity</text>
</a>
</g>
</g>
<!-- Node3&#45;&gt;Node2 -->
<g id="edge2" class="edge">
<title>Node3&#45;&gt;Node2</title>
<path fill="none" stroke="midnightblue" d="M126.41,-137.5C134.81,-137.5 143.43,-137.5 151.92,-137.5"/>
<polygon fill="midnightblue" stroke="midnightblue" points="126.3,-134 116.3,-137.5 126.3,-141 126.3,-134"/>
</g>
<!-- Node5 -->
<g id="node5" class="node">
<title>Node5</title>
<g id="a_node5"><a xlink:href="classcom_1_1tw_1_1paintbots_1_1_items_1_1_refill_place_base.xhtml" target="_top" xlink:title=" ">
<polygon fill="white" stroke="black" points="711.5,-245.5 711.5,-275.5 851.5,-275.5 851.5,-245.5 711.5,-245.5"/>
<text text-anchor="start" x="719.5" y="-263.5" font-family="Helvetica,sans-Serif" font-size="10.00">com.tw.paintbots.Items.Refill</text>
<text text-anchor="middle" x="781.5" y="-252.5" font-family="Helvetica,sans-Serif" font-size="10.00">PlaceBase</text>
</a>
</g>
</g>
<!-- Node4&#45;&gt;Node5 -->
<g id="edge4" class="edge">
<title>Node4&#45;&gt;Node5</title>
<path fill="none" stroke="midnightblue" d="M676.34,-259.36C688.02,-259.49 699.99,-259.62 711.45,-259.75"/>
<polygon fill="midnightblue" stroke="midnightblue" points="676.2,-255.86 666.16,-259.25 676.12,-262.86 676.2,-255.86"/>
</g>
<!-- Node7 -->
<g id="node7" class="node">
<title>Node7</title>
<g id="a_node7"><a xlink:href="classcom_1_1tw_1_1paintbots_1_1_renderables_1_1_direction_indicator.xhtml" target="_top" xlink:title=" ">
<polygon fill="white" stroke="black" points="707,-196.5 707,-226.5 856,-226.5 856,-196.5 707,-196.5"/>
<text text-anchor="start" x="715" y="-214.5" font-family="Helvetica,sans-Serif" font-size="10.00">com.tw.paintbots.Renderables.</text>
<text text-anchor="middle" x="781.5" y="-203.5" font-family="Helvetica,sans-Serif" font-size="10.00">DirectionIndicator</text>
</a>
</g>
</g>
<!-- Node6&#45;&gt;Node7 -->
<g id="edge6" class="edge">
<title>Node6&#45;&gt;Node7</title>
<path fill="none" stroke="midnightblue" d="M681.39,-211.5C689.84,-211.5 698.38,-211.5 706.71,-211.5"/>
<polygon fill="midnightblue" stroke="midnightblue" points="681.14,-208 671.14,-211.5 681.14,-215 681.14,-208"/>
</g>
<!-- Node8 -->
<g id="node8" class="node">
<title>Node8</title>
<g id="a_node8"><a xlink:href="classcom_1_1tw_1_1paintbots_1_1_renderables_1_1_player_animation.xhtml" target="_top" xlink:title=" ">
<polygon fill="white" stroke="black" points="707,-147.5 707,-177.5 856,-177.5 856,-147.5 707,-147.5"/>
<text text-anchor="start" x="715" y="-165.5" font-family="Helvetica,sans-Serif" font-size="10.00">com.tw.paintbots.Renderables.</text>
<text text-anchor="middle" x="781.5" y="-154.5" font-family="Helvetica,sans-Serif" font-size="10.00">PlayerAnimation</text>
</a>
</g>
</g>
<!-- Node6&#45;&gt;Node8 -->
<g id="edge7" class="edge">
<title>Node6&#45;&gt;Node8</title>
<path fill="none" stroke="midnightblue" d="M663.79,-193.75C683.62,-188.44 705.17,-182.67 724.29,-177.55"/>
<polygon fill="midnightblue" stroke="midnightblue" points="662.65,-190.43 653.9,-196.4 664.46,-197.19 662.65,-190.43"/>
</g>
</g>
</svg>
