<?xml version="1.0" encoding="UTF-8" standalone="no"?>
<!DOCTYPE svg PUBLIC "-//W3C//DTD SVG 1.1//EN"
 "http://www.w3.org/Graphics/SVG/1.1/DTD/svg11.dtd">
<!-- Generated by graphviz version 2.49.3 (20211027.1534)
 -->
<!-- Title: com.tw.paintbots.Entity Pages: 1 -->
<svg width="877pt" height="555pt"
 viewBox="0.00 0.00 877.00 554.50" xmlns="http://www.w3.org/2000/svg" xmlns:xlink="http://www.w3.org/1999/xlink">
<g id="graph0" class="graph" transform="scale(1 1) rotate(0) translate(4 550.5)">
<title>com.tw.paintbots.Entity</title>
<polygon fill="white" stroke="transparent" points="-4,4 -4,-550.5 873,-550.5 873,4 -4,4"/>
<!-- Node1 -->
<g id="node1" class="node">
<title>Node1</title>
<g id="a_node1"><a xlink:title=" ">
<polygon fill="#bfbfbf" stroke="black" points="0,-374 0,-393 116,-393 116,-374 0,-374"/>
<text text-anchor="middle" x="58" y="-381" font-family="Helvetica,sans-Serif" font-size="10.00">com.tw.paintbots.Entity</text>
</a>
</g>
</g>
<!-- Node2 -->
<g id="node2" class="node">
<title>Node2</title>
<g id="a_node2"><a xlink:href="classcom_1_1tw_1_1paintbots_1_1_player.xhtml" target="_top" xlink:title=" ">
<polygon fill="white" stroke="black" points="167,-440 167,-459 286,-459 286,-440 167,-440"/>
<text text-anchor="middle" x="226.5" y="-447" font-family="Helvetica,sans-Serif" font-size="10.00">com.tw.paintbots.Player</text>
</a>
</g>
</g>
<!-- Node1&#45;&gt;Node2 -->
<g id="edge1" class="edge">
<title>Node1&#45;&gt;Node2</title>
<path fill="none" stroke="midnightblue" d="M92.69,-396.86C125,-409.66 172.95,-428.67 201.53,-440"/>
<polygon fill="midnightblue" stroke="midnightblue" points="93.8,-393.53 83.21,-393.1 91.22,-400.04 93.8,-393.53"/>
</g>
<!-- Node8 -->
<g id="node8" class="node">
<title>Node8</title>
<g id="a_node8"><a xlink:href="classcom_1_1tw_1_1paintbots_1_1_renderables_1_1_renderable.xhtml" target="_top" xlink:title=" ">
<polygon fill="white" stroke="black" points="152,-322.5 152,-352.5 301,-352.5 301,-322.5 152,-322.5"/>
<text text-anchor="start" x="160" y="-340.5" font-family="Helvetica,sans-Serif" font-size="10.00">com.tw.paintbots.Renderables.</text>
<text text-anchor="middle" x="226.5" y="-329.5" font-family="Helvetica,sans-Serif" font-size="10.00">Renderable</text>
</a>
</g>
</g>
<!-- Node1&#45;&gt;Node8 -->
<g id="edge7" class="edge">
<title>Node1&#45;&gt;Node8</title>
<path fill="none" stroke="midnightblue" d="M103.34,-371.25C124.14,-365.5 149.12,-358.6 171.05,-352.54"/>
<polygon fill="midnightblue" stroke="midnightblue" points="102.21,-367.93 93.5,-373.97 104.07,-374.68 102.21,-367.93"/>
</g>
<!-- Node3 -->
<g id="node3" class="node">
<title>Node3</title>
<g id="a_node3"><a xlink:href="classcom_1_1tw_1_1paintbots_1_1_a_i_player.xhtml" target="_top" xlink:title=" ">
<polygon fill="white" stroke="black" points="348,-497 348,-516 477,-516 477,-497 348,-497"/>
<text text-anchor="middle" x="412.5" y="-504" font-family="Helvetica,sans-Serif" font-size="10.00">com.tw.paintbots.AIPlayer</text>
</a>
</g>
</g>
<!-- Node2&#45;&gt;Node3 -->
<g id="edge2" class="edge">
<title>Node2&#45;&gt;Node3</title>
<path fill="none" stroke="midnightblue" d="M262.58,-462.52C283.95,-470.24 311.88,-479.95 337,-487.5 348.12,-490.84 360.29,-494.11 371.51,-496.96"/>
<polygon fill="midnightblue" stroke="midnightblue" points="263.56,-459.15 252.97,-459.02 261.17,-465.73 263.56,-459.15"/>
</g>
<!-- Node6 -->
<g id="node6" class="node">
<title>Node6</title>
<g id="a_node6"><a xlink:href="classcom_1_1tw_1_1paintbots_1_1_human_player.xhtml" target="_top" xlink:title=" ">
<polygon fill="white" stroke="black" points="337,-459 337,-478 488,-478 488,-459 337,-459"/>
<text text-anchor="middle" x="412.5" y="-466" font-family="Helvetica,sans-Serif" font-size="10.00">com.tw.paintbots.HumanPlayer</text>
</a>
</g>
</g>
<!-- Node2&#45;&gt;Node6 -->
<g id="edge5" class="edge">
<title>Node2&#45;&gt;Node6</title>
<path fill="none" stroke="midnightblue" d="M296.2,-456.59C309.46,-457.96 323.4,-459.4 336.83,-460.79"/>
<polygon fill="midnightblue" stroke="midnightblue" points="296.53,-453.11 286.22,-455.56 295.81,-460.07 296.53,-453.11"/>
</g>
<!-- Node7 -->
<g id="node7" class="node">
<title>Node7</title>
<g id="a_node7"><a xlink:href="classcom_1_1tw_1_1paintbots_1_1_none_player.xhtml" target="_top" xlink:title=" ">
<polygon fill="white" stroke="black" points="341,-421 341,-440 484,-440 484,-421 341,-421"/>
<text text-anchor="middle" x="412.5" y="-428" font-family="Helvetica,sans-Serif" font-size="10.00">com.tw.paintbots.NonePlayer</text>
</a>
</g>
</g>
<!-- Node2&#45;&gt;Node7 -->
<g id="edge6" class="edge">
<title>Node2&#45;&gt;Node7</title>
<path fill="none" stroke="midnightblue" d="M296.58,-442.37C311.03,-440.88 326.28,-439.3 340.78,-437.8"/>
<polygon fill="midnightblue" stroke="midnightblue" points="295.81,-438.93 286.22,-443.44 296.53,-445.89 295.81,-438.93"/>
</g>
<!-- Node4 -->
<g id="node4" class="node">
<title>Node4</title>
<g id="a_node4"><a xlink:title=" ">
<polygon fill="white" stroke="#bfbfbf" points="559.5,-527 559.5,-546 648.5,-546 648.5,-527 559.5,-527"/>
<text text-anchor="middle" x="604" y="-534" font-family="Helvetica,sans-Serif" font-size="10.00">bots.RandomBot</text>
</a>
</g>
</g>
<!-- Node3&#45;&gt;Node4 -->
<g id="edge3" class="edge">
<title>Node3&#45;&gt;Node4</title>
<path fill="none" stroke="midnightblue" d="M483.68,-517.61C509.08,-521.63 537.02,-526.05 559.46,-529.61"/>
<polygon fill="midnightblue" stroke="midnightblue" points="484.14,-514.14 473.72,-516.03 483.05,-521.05 484.14,-514.14"/>
</g>
<!-- Node5 -->
<g id="node5" class="node">
<title>Node5</title>
<g id="a_node5"><a xlink:title=" ">
<polygon fill="white" stroke="#bfbfbf" points="532.5,-489 532.5,-508 675.5,-508 675.5,-489 532.5,-489"/>
<text text-anchor="middle" x="604" y="-496" font-family="Helvetica,sans-Serif" font-size="10.00">com.tw.paintbots.RandomBot</text>
</a>
</g>
</g>
<!-- Node3&#45;&gt;Node5 -->
<g id="edge4" class="edge">
<title>Node3&#45;&gt;Node5</title>
<path fill="none" stroke="midnightblue" d="M487.26,-503.39C502.09,-502.76 517.65,-502.1 532.37,-501.48"/>
<polygon fill="midnightblue" stroke="midnightblue" points="486.97,-499.9 477.13,-503.81 487.27,-506.89 486.97,-499.9"/>
</g>
<!-- Node9 -->
<g id="node9" class="node">
<title>Node9</title>
<g id="a_node9"><a xlink:href="classcom_1_1tw_1_1paintbots_1_1_renderables_1_1_canvas.xhtml" target="_top" xlink:title=" ">
<polygon fill="white" stroke="black" points="338,-371.5 338,-401.5 487,-401.5 487,-371.5 338,-371.5"/>
<text text-anchor="start" x="346" y="-389.5" font-family="Helvetica,sans-Serif" font-size="10.00">com.tw.paintbots.Renderables.</text>
<text text-anchor="middle" x="412.5" y="-378.5" font-family="Helvetica,sans-Serif" font-size="10.00">Canvas</text>
</a>
</g>
</g>
<!-- Node8&#45;&gt;Node9 -->
<g id="edge8" class="edge">
<title>Node8&#45;&gt;Node9</title>
<path fill="none" stroke="midnightblue" d="M293.68,-355.12C313.81,-360.48 335.73,-366.32 355.15,-371.49"/>
<polygon fill="midnightblue" stroke="midnightblue" points="294.52,-351.73 283.96,-352.53 292.72,-358.49 294.52,-351.73"/>
</g>
<!-- Node10 -->
<g id="node10" class="node">
<title>Node10</title>
<g id="a_node10"><a xlink:href="classcom_1_1tw_1_1paintbots_1_1_renderables_1_1_multi_layer_renderable.xhtml" target="_top" xlink:title=" ">
<polygon fill="white" stroke="black" points="338,-322.5 338,-352.5 487,-352.5 487,-322.5 338,-322.5"/>
<text text-anchor="start" x="346" y="-340.5" font-family="Helvetica,sans-Serif" font-size="10.00">com.tw.paintbots.Renderables.</text>
<text text-anchor="middle" x="412.5" y="-329.5" font-family="Helvetica,sans-Serif" font-size="10.00">MultiLayerRenderable</text>
</a>
</g>
</g>
<!-- Node8&#45;&gt;Node10 -->
<g id="edge9" class="edge">
<title>Node8&#45;&gt;Node10</title>
<path fill="none" stroke="midnightblue" d="M311.03,-337.5C319.96,-337.5 329,-337.5 337.8,-337.5"/>
<polygon fill="midnightblue" stroke="midnightblue" points="311.01,-334 301.01,-337.5 311.01,-341 311.01,-334"/>
</g>
<!-- Node11 -->
<g id="node11" class="node">
<title>Node11</title>
<g id="a_node11"><a xlink:href="classcom_1_1tw_1_1paintbots_1_1_renderables_1_1_simple_renderable.xhtml" target="_top" xlink:title=" ">
<polygon fill="white" stroke="black" points="338,-273.5 338,-303.5 487,-303.5 487,-273.5 338,-273.5"/>
<text text-anchor="start" x="346" y="-291.5" font-family="Helvetica,sans-Serif" font-size="10.00">com.tw.paintbots.Renderables.</text>
<text text-anchor="middle" x="412.5" y="-280.5" font-family="Helvetica,sans-Serif" font-size="10.00">SimpleRenderable</text>
</a>
</g>
</g>
<!-- Node8&#45;&gt;Node11 -->
<g id="edge10" class="edge">
<title>Node8&#45;&gt;Node11</title>
<path fill="none" stroke="midnightblue" d="M293.68,-319.88C313.81,-314.52 335.73,-308.68 355.15,-303.51"/>
<polygon fill="midnightblue" stroke="midnightblue" points="292.72,-316.51 283.96,-322.47 294.52,-323.27 292.72,-316.51"/>
</g>
<!-- Node22 -->
<g id="node22" class="node">
<title>Node22</title>
<g id="a_node22"><a xlink:href="classcom_1_1tw_1_1paintbots_1_1_renderables_1_1_texture_grid.xhtml" target="_top" xlink:title=" ">
<polygon fill="white" stroke="black" points="338,-71.5 338,-101.5 487,-101.5 487,-71.5 338,-71.5"/>
<text text-anchor="start" x="346" y="-89.5" font-family="Helvetica,sans-Serif" font-size="10.00">com.tw.paintbots.Renderables.</text>
<text text-anchor="middle" x="412.5" y="-78.5" font-family="Helvetica,sans-Serif" font-size="10.00">TextureGrid</text>
</a>
</g>
</g>
<!-- Node8&#45;&gt;Node22 -->
<g id="edge21" class="edge">
<title>Node8&#45;&gt;Node22</title>
<path fill="none" stroke="midnightblue" d="M244.68,-314.06C281.97,-263.19 369.47,-143.84 400.41,-101.62"/>
<polygon fill="midnightblue" stroke="midnightblue" points="241.82,-312.04 238.73,-322.18 247.47,-316.18 241.82,-312.04"/>
</g>
<!-- Node12 -->
<g id="node12" class="node">
<title>Node12</title>
<g id="a_node12"><a xlink:href="classcom_1_1tw_1_1paintbots_1_1_items_1_1_item.xhtml" target="_top" xlink:title=" ">
<polygon fill="white" stroke="black" points="534.5,-435 534.5,-454 673.5,-454 673.5,-435 534.5,-435"/>
<text text-anchor="middle" x="604" y="-442" font-family="Helvetica,sans-Serif" font-size="10.00">com.tw.paintbots.Items.Item</text>
</a>
</g>
</g>
<!-- Node11&#45;&gt;Node12 -->
<g id="edge11" class="edge">
<title>Node11&#45;&gt;Node12</title>
<path fill="none" stroke="midnightblue" d="M483.42,-309.4C485.03,-310.68 486.56,-312.05 488,-313.5 523.99,-349.66 487.08,-387.29 524,-422.5 529.56,-427.81 536.3,-431.85 543.45,-434.93"/>
<polygon fill="midnightblue" stroke="midnightblue" points="485.13,-306.32 474.89,-303.6 481.2,-312.11 485.13,-306.32"/>
</g>
<!-- Node14 -->
<g id="node14" class="node">
<title>Node14</title>
<g id="a_node14"><a xlink:href="classcom_1_1tw_1_1paintbots_1_1_renderables_1_1_animated_renderable.xhtml" target="_top" xlink:title=" ">
<polygon fill="white" stroke="black" points="529.5,-382.5 529.5,-412.5 678.5,-412.5 678.5,-382.5 529.5,-382.5"/>
<text text-anchor="start" x="537.5" y="-400.5" font-family="Helvetica,sans-Serif" font-size="10.00">com.tw.paintbots.Renderables.</text>
<text text-anchor="middle" x="604" y="-389.5" font-family="Helvetica,sans-Serif" font-size="10.00">AnimatedRenderable</text>
</a>
</g>
</g>
<!-- Node11&#45;&gt;Node14 -->
<g id="edge13" class="edge">
<title>Node11&#45;&gt;Node14</title>
<path fill="none" stroke="midnightblue" d="M480.9,-308.46C483.38,-310.02 485.76,-311.7 488,-313.5 512.24,-332.98 499.48,-354.37 524,-373.5 528.41,-376.94 533.31,-379.89 538.44,-382.41"/>
<polygon fill="midnightblue" stroke="midnightblue" points="482.59,-305.4 472.15,-303.62 479.2,-311.52 482.59,-305.4"/>
</g>
<!-- Node17 -->
<g id="node17" class="node">
<title>Node17</title>
<g id="a_node17"><a xlink:href="classcom_1_1tw_1_1paintbots_1_1_renderables_1_1_repeated_renderable.xhtml" target="_top" xlink:title=" ">
<polygon fill="white" stroke="black" points="529.5,-333.5 529.5,-363.5 678.5,-363.5 678.5,-333.5 529.5,-333.5"/>
<text text-anchor="start" x="537.5" y="-351.5" font-family="Helvetica,sans-Serif" font-size="10.00">com.tw.paintbots.Renderables.</text>
<text text-anchor="middle" x="604" y="-340.5" font-family="Helvetica,sans-Serif" font-size="10.00">RepeatedRenderable</text>
</a>
</g>
</g>
<!-- Node11&#45;&gt;Node17 -->
<g id="edge16" class="edge">
<title>Node11&#45;&gt;Node17</title>
<path fill="none" stroke="midnightblue" d="M468.47,-306.65C486.17,-312.43 505.89,-318.8 524,-324.5 533.3,-327.43 543.23,-330.49 552.8,-333.42"/>
<polygon fill="midnightblue" stroke="midnightblue" points="469.46,-303.29 458.86,-303.51 467.28,-309.94 469.46,-303.29"/>
</g>
<!-- Node18 -->
<g id="node18" class="node">
<title>Node18</title>
<g id="a_node18"><a xlink:href="classcom_1_1tw_1_1paintbots_1_1_renderables_1_1_u_i_menu_item.xhtml" target="_top" xlink:title=" ">
<polygon fill="white" stroke="black" points="529.5,-284.5 529.5,-314.5 678.5,-314.5 678.5,-284.5 529.5,-284.5"/>
<text text-anchor="start" x="537.5" y="-302.5" font-family="Helvetica,sans-Serif" font-size="10.00">com.tw.paintbots.Renderables.</text>
<text text-anchor="middle" x="604" y="-291.5" font-family="Helvetica,sans-Serif" font-size="10.00">UIMenuItem</text>
</a>
</g>
</g>
<!-- Node11&#45;&gt;Node18 -->
<g id="edge17" class="edge">
<title>Node11&#45;&gt;Node18</title>
<path fill="none" stroke="midnightblue" d="M497.18,-293.36C507.85,-293.98 518.7,-294.61 529.19,-295.22"/>
<polygon fill="midnightblue" stroke="midnightblue" points="497.22,-289.85 487.04,-292.77 496.82,-296.84 497.22,-289.85"/>
</g>
<!-- Node19 -->
<g id="node19" class="node">
<title>Node19</title>
<g id="a_node19"><a xlink:href="classcom_1_1tw_1_1paintbots_1_1_renderables_1_1_u_i_player_board.xhtml" target="_top" xlink:title=" ">
<polygon fill="white" stroke="black" points="529.5,-235.5 529.5,-265.5 678.5,-265.5 678.5,-235.5 529.5,-235.5"/>
<text text-anchor="start" x="537.5" y="-253.5" font-family="Helvetica,sans-Serif" font-size="10.00">com.tw.paintbots.Renderables.</text>
<text text-anchor="middle" x="604" y="-242.5" font-family="Helvetica,sans-Serif" font-size="10.00">UIPlayerBoard</text>
</a>
</g>
</g>
<!-- Node11&#45;&gt;Node19 -->
<g id="edge18" class="edge">
<title>Node11&#45;&gt;Node19</title>
<path fill="none" stroke="midnightblue" d="M496.85,-271.79C507.62,-269.63 518.59,-267.43 529.19,-265.3"/>
<polygon fill="midnightblue" stroke="midnightblue" points="496.15,-268.36 487.04,-273.75 497.53,-275.22 496.15,-268.36"/>
</g>
<!-- Node20 -->
<g id="node20" class="node">
<title>Node20</title>
<g id="a_node20"><a xlink:href="classcom_1_1tw_1_1paintbots_1_1_renderables_1_1_u_i_result_board.xhtml" target="_top" xlink:title=" ">
<polygon fill="white" stroke="black" points="529.5,-186.5 529.5,-216.5 678.5,-216.5 678.5,-186.5 529.5,-186.5"/>
<text text-anchor="start" x="537.5" y="-204.5" font-family="Helvetica,sans-Serif" font-size="10.00">com.tw.paintbots.Renderables.</text>
<text text-anchor="middle" x="604" y="-193.5" font-family="Helvetica,sans-Serif" font-size="10.00">UIResultBoard</text>
</a>
</g>
</g>
<!-- Node11&#45;&gt;Node20 -->
<g id="edge19" class="edge">
<title>Node11&#45;&gt;Node20</title>
<path fill="none" stroke="midnightblue" d="M445.66,-268.13C467.24,-255.06 496.63,-238.36 524,-226.5 532.32,-222.9 541.32,-219.55 550.18,-216.56"/>
<polygon fill="midnightblue" stroke="midnightblue" points="443.62,-265.28 436.92,-273.49 447.27,-271.25 443.62,-265.28"/>
</g>
<!-- Node21 -->
<g id="node21" class="node">
<title>Node21</title>
<g id="a_node21"><a xlink:href="classcom_1_1tw_1_1paintbots_1_1_renderables_1_1_u_i_timer.xhtml" target="_top" xlink:title=" ">
<polygon fill="white" stroke="black" points="529.5,-137.5 529.5,-167.5 678.5,-167.5 678.5,-137.5 529.5,-137.5"/>
<text text-anchor="start" x="537.5" y="-155.5" font-family="Helvetica,sans-Serif" font-size="10.00">com.tw.paintbots.Renderables.</text>
<text text-anchor="middle" x="604" y="-144.5" font-family="Helvetica,sans-Serif" font-size="10.00">UITimer</text>
</a>
</g>
</g>
<!-- Node11&#45;&gt;Node21 -->
<g id="edge20" class="edge">
<title>Node11&#45;&gt;Node21</title>
<path fill="none" stroke="midnightblue" d="M430.82,-265.38C450.72,-240.35 485.61,-200.88 524,-177.5 530.27,-173.68 537.17,-170.4 544.21,-167.58"/>
<polygon fill="midnightblue" stroke="midnightblue" points="428.06,-263.24 424.67,-273.27 433.58,-267.54 428.06,-263.24"/>
</g>
<!-- Node13 -->
<g id="node13" class="node">
<title>Node13</title>
<g id="a_node13"><a xlink:href="classcom_1_1tw_1_1paintbots_1_1_items_1_1_refill_place_base.xhtml" target="_top" xlink:title=" ">
<polygon fill="white" stroke="black" points="724.5,-431.5 724.5,-461.5 864.5,-461.5 864.5,-431.5 724.5,-431.5"/>
<text text-anchor="start" x="732.5" y="-449.5" font-family="Helvetica,sans-Serif" font-size="10.00">com.tw.paintbots.Items.Refill</text>
<text text-anchor="middle" x="794.5" y="-438.5" font-family="Helvetica,sans-Serif" font-size="10.00">PlaceBase</text>
</a>
</g>
</g>
<!-- Node12&#45;&gt;Node13 -->
<g id="edge12" class="edge">
<title>Node12&#45;&gt;Node13</title>
<path fill="none" stroke="midnightblue" d="M683.78,-445.34C697.24,-445.48 711.14,-445.63 724.33,-445.77"/>
<polygon fill="midnightblue" stroke="midnightblue" points="683.62,-441.83 673.59,-445.23 683.55,-448.83 683.62,-441.83"/>
</g>
<!-- Node15 -->
<g id="node15" class="node">
<title>Node15</title>
<g id="a_node15"><a xlink:href="classcom_1_1tw_1_1paintbots_1_1_renderables_1_1_direction_indicator.xhtml" target="_top" xlink:title=" ">
<polygon fill="white" stroke="black" points="720,-382.5 720,-412.5 869,-412.5 869,-382.5 720,-382.5"/>
<text text-anchor="start" x="728" y="-400.5" font-family="Helvetica,sans-Serif" font-size="10.00">com.tw.paintbots.Renderables.</text>
<text text-anchor="middle" x="794.5" y="-389.5" font-family="Helvetica,sans-Serif" font-size="10.00">DirectionIndicator</text>
</a>
</g>
</g>
<!-- Node14&#45;&gt;Node15 -->
<g id="edge14" class="edge">
<title>Node14&#45;&gt;Node15</title>
<path fill="none" stroke="midnightblue" d="M688.93,-397.5C699.24,-397.5 709.72,-397.5 719.86,-397.5"/>
<polygon fill="midnightblue" stroke="midnightblue" points="688.69,-394 678.69,-397.5 688.69,-401 688.69,-394"/>
</g>
<!-- Node16 -->
<g id="node16" class="node">
<title>Node16</title>
<g id="a_node16"><a xlink:href="classcom_1_1tw_1_1paintbots_1_1_renderables_1_1_player_animation.xhtml" target="_top" xlink:title=" ">
<polygon fill="white" stroke="black" points="720,-333.5 720,-363.5 869,-363.5 869,-333.5 720,-333.5"/>
<text text-anchor="start" x="728" y="-351.5" font-family="Helvetica,sans-Serif" font-size="10.00">com.tw.paintbots.Renderables.</text>
<text text-anchor="middle" x="794.5" y="-340.5" font-family="Helvetica,sans-Serif" font-size="10.00">PlayerAnimation</text>
</a>
</g>
</g>
<!-- Node14&#45;&gt;Node16 -->
<g id="edge15" class="edge">
<title>Node14&#45;&gt;Node16</title>
<path fill="none" stroke="midnightblue" d="M672.79,-379.88C693.42,-374.52 715.88,-368.68 735.77,-363.51"/>
<polygon fill="midnightblue" stroke="midnightblue" points="671.64,-376.56 662.84,-382.47 673.4,-383.34 671.64,-376.56"/>
</g>
<!-- Node23 -->
<g id="node23" class="node">
<title>Node23</title>
<g id="a_node23"><a xlink:href="classcom_1_1tw_1_1paintbots_1_1_items_1_1_power_up.xhtml" target="_top" xlink:title=" ">
<polygon fill="white" stroke="black" points="524,-99 524,-118 684,-118 684,-99 524,-99"/>
<text text-anchor="middle" x="604" y="-106" font-family="Helvetica,sans-Serif" font-size="10.00">com.tw.paintbots.Items.PowerUp</text>
</a>
</g>
</g>
<!-- Node22&#45;&gt;Node23 -->
<g id="edge22" class="edge">
<title>Node22&#45;&gt;Node23</title>
<path fill="none" stroke="midnightblue" d="M497.03,-96.2C505.94,-97.23 514.99,-98.28 523.86,-99.31"/>
<polygon fill="midnightblue" stroke="midnightblue" points="497.37,-92.71 487.04,-95.04 496.57,-99.67 497.37,-92.71"/>
</g>
<!-- Node24 -->
<g id="node24" class="node">
<title>Node24</title>
<g id="a_node24"><a xlink:href="classcom_1_1tw_1_1paintbots_1_1_renderables_1_1_u_i_color_bar.xhtml" target="_top" xlink:title=" ">
<polygon fill="white" stroke="black" points="529.5,-49.5 529.5,-79.5 678.5,-79.5 678.5,-49.5 529.5,-49.5"/>
<text text-anchor="start" x="537.5" y="-67.5" font-family="Helvetica,sans-Serif" font-size="10.00">com.tw.paintbots.Renderables.</text>
<text text-anchor="middle" x="604" y="-56.5" font-family="Helvetica,sans-Serif" font-size="10.00">UIColorBar</text>
</a>
</g>
</g>
<!-- Node22&#45;&gt;Node24 -->
<g id="edge23" class="edge">
<title>Node22&#45;&gt;Node24</title>
<path fill="none" stroke="midnightblue" d="M497.18,-76.78C507.85,-75.55 518.7,-74.29 529.19,-73.07"/>
<polygon fill="midnightblue" stroke="midnightblue" points="496.57,-73.33 487.04,-77.96 497.37,-80.29 496.57,-73.33"/>
</g>
<!-- Node25 -->
<g id="node25" class="node">
<title>Node25</title>
<g id="a_node25"><a xlink:href="classcom_1_1tw_1_1paintbots_1_1_renderables_1_1_u_i_digit.xhtml" target="_top" xlink:title=" ">
<polygon fill="white" stroke="black" points="529.5,-0.5 529.5,-30.5 678.5,-30.5 678.5,-0.5 529.5,-0.5"/>
<text text-anchor="start" x="537.5" y="-18.5" font-family="Helvetica,sans-Serif" font-size="10.00">com.tw.paintbots.Renderables.</text>
<text text-anchor="middle" x="604" y="-7.5" font-family="Helvetica,sans-Serif" font-size="10.00">UIDigit</text>
</a>
</g>
</g>
<!-- Node22&#45;&gt;Node25 -->
<g id="edge24" class="edge">
<title>Node22&#45;&gt;Node25</title>
<path fill="none" stroke="midnightblue" d="M455.82,-67.24C476.22,-58.28 501.16,-47.8 524,-39.5 532.49,-36.42 541.58,-33.4 550.47,-30.6"/>
<polygon fill="midnightblue" stroke="midnightblue" points="454.22,-64.12 446.49,-71.37 457.06,-70.52 454.22,-64.12"/>
</g>
<!-- Node26 -->
<g id="node26" class="node">
<title>Node26</title>
<g id="a_node26"><a xlink:href="classcom_1_1tw_1_1paintbots_1_1_renderables_1_1_start_timer.xhtml" target="_top" xlink:title=" ">
<polygon fill="white" stroke="black" points="720,-0.5 720,-30.5 869,-30.5 869,-0.5 720,-0.5"/>
<text text-anchor="start" x="728" y="-18.5" font-family="Helvetica,sans-Serif" font-size="10.00">com.tw.paintbots.Renderables.</text>
<text text-anchor="middle" x="794.5" y="-7.5" font-family="Helvetica,sans-Serif" font-size="10.00">StartTimer</text>
</a>
</g>
</g>
<!-- Node25&#45;&gt;Node26 -->
<g id="edge25" class="edge">
<title>Node25&#45;&gt;Node26</title>
<path fill="none" stroke="midnightblue" d="M688.93,-15.5C699.24,-15.5 709.72,-15.5 719.86,-15.5"/>
<polygon fill="midnightblue" stroke="midnightblue" points="688.69,-12 678.69,-15.5 688.69,-19 688.69,-12"/>
</g>
</g>
</svg>
