<?xml version="1.0" encoding="UTF-8" standalone="no"?>
<!DOCTYPE svg PUBLIC "-//W3C//DTD SVG 1.1//EN"
 "http://www.w3.org/Graphics/SVG/1.1/DTD/svg11.dtd">
<!-- Generated by graphviz version 2.49.3 (20211027.1534)
 -->
<!-- Title: com.tw.paintbots.Renderables.AnimatedRenderable Pages: 1 -->
<svg width="864pt" height="88pt"
 viewBox="0.00 0.00 864.00 88.00" xmlns="http://www.w3.org/2000/svg" xmlns:xlink="http://www.w3.org/1999/xlink">
<g id="graph0" class="graph" transform="scale(1 1) rotate(0) translate(4 84)">
<title>com.tw.paintbots.Renderables.AnimatedRenderable</title>
<polygon fill="white" stroke="transparent" points="-4,4 -4,-84 860,-84 860,4 -4,4"/>
<!-- Node1 -->
<g id="node1" class="node">
<title>Node1</title>
<g id="a_node1"><a xlink:title=" ">
<polygon fill="#bfbfbf" stroke="black" points="522,-24.5 522,-54.5 671,-54.5 671,-24.5 522,-24.5"/>
<text text-anchor="start" x="530" y="-42.5" font-family="Helvetica,sans-Serif" font-size="10.00">com.tw.paintbots.Renderables.</text>
<text text-anchor="middle" x="596.5" y="-31.5" font-family="Helvetica,sans-Serif" font-size="10.00">AnimatedRenderable</text>
</a>
</g>
</g>
<!-- Node5 -->
<g id="node5" class="node">
<title>Node5</title>
<g id="a_node5"><a xlink:href="classcom_1_1tw_1_1paintbots_1_1_renderables_1_1_direction_indicator.xhtml" target="_top" xlink:title=" ">
<polygon fill="white" stroke="black" points="707,-49.5 707,-79.5 856,-79.5 856,-49.5 707,-49.5"/>
<text text-anchor="start" x="715" y="-67.5" font-family="Helvetica,sans-Serif" font-size="10.00">com.tw.paintbots.Renderables.</text>
<text text-anchor="middle" x="781.5" y="-56.5" font-family="Helvetica,sans-Serif" font-size="10.00">DirectionIndicator</text>
</a>
</g>
</g>
<!-- Node1&#45;&gt;Node5 -->
<g id="edge4" class="edge">
<title>Node1&#45;&gt;Node5</title>
<path fill="none" stroke="midnightblue" d="M681.11,-50.92C689.65,-52.09 698.28,-53.27 706.71,-54.42"/>
<polygon fill="midnightblue" stroke="midnightblue" points="681.52,-47.45 671.14,-49.56 680.58,-54.38 681.52,-47.45"/>
</g>
<!-- Node6 -->
<g id="node6" class="node">
<title>Node6</title>
<g id="a_node6"><a xlink:href="classcom_1_1tw_1_1paintbots_1_1_renderables_1_1_player_animation.xhtml" target="_top" xlink:title=" ">
<polygon fill="white" stroke="black" points="707,-0.5 707,-30.5 856,-30.5 856,-0.5 707,-0.5"/>
<text text-anchor="start" x="715" y="-18.5" font-family="Helvetica,sans-Serif" font-size="10.00">com.tw.paintbots.Renderables.</text>
<text text-anchor="middle" x="781.5" y="-7.5" font-family="Helvetica,sans-Serif" font-size="10.00">PlayerAnimation</text>
</a>
</g>
</g>
<!-- Node1&#45;&gt;Node6 -->
<g id="edge5" class="edge">
<title>Node1&#45;&gt;Node6</title>
<path fill="none" stroke="midnightblue" d="M681.11,-28.53C689.65,-27.41 698.28,-26.28 706.71,-25.18"/>
<polygon fill="midnightblue" stroke="midnightblue" points="680.6,-25.07 671.14,-29.84 681.51,-32.01 680.6,-25.07"/>
</g>
<!-- Node2 -->
<g id="node2" class="node">
<title>Node2</title>
<g id="a_node2"><a xlink:href="classcom_1_1tw_1_1paintbots_1_1_renderables_1_1_simple_renderable.xhtml" target="_top" xlink:title=" ">
<polygon fill="white" stroke="black" points="337,-24.5 337,-54.5 486,-54.5 486,-24.5 337,-24.5"/>
<text text-anchor="start" x="345" y="-42.5" font-family="Helvetica,sans-Serif" font-size="10.00">com.tw.paintbots.Renderables.</text>
<text text-anchor="middle" x="411.5" y="-31.5" font-family="Helvetica,sans-Serif" font-size="10.00">SimpleRenderable</text>
</a>
</g>
</g>
<!-- Node2&#45;&gt;Node1 -->
<g id="edge1" class="edge">
<title>Node2&#45;&gt;Node1</title>
<path fill="none" stroke="midnightblue" d="M496.39,-39.5C504.84,-39.5 513.38,-39.5 521.71,-39.5"/>
<polygon fill="midnightblue" stroke="midnightblue" points="496.14,-36 486.14,-39.5 496.14,-43 496.14,-36"/>
</g>
<!-- Node3 -->
<g id="node3" class="node">
<title>Node3</title>
<g id="a_node3"><a xlink:href="classcom_1_1tw_1_1paintbots_1_1_renderables_1_1_renderable.xhtml" target="_top" xlink:title=" ">
<polygon fill="white" stroke="black" points="152,-24.5 152,-54.5 301,-54.5 301,-24.5 152,-24.5"/>
<text text-anchor="start" x="160" y="-42.5" font-family="Helvetica,sans-Serif" font-size="10.00">com.tw.paintbots.Renderables.</text>
<text text-anchor="middle" x="226.5" y="-31.5" font-family="Helvetica,sans-Serif" font-size="10.00">Renderable</text>
</a>
</g>
</g>
<!-- Node3&#45;&gt;Node2 -->
<g id="edge2" class="edge">
<title>Node3&#45;&gt;Node2</title>
<path fill="none" stroke="midnightblue" d="M311.39,-39.5C319.84,-39.5 328.38,-39.5 336.71,-39.5"/>
<polygon fill="midnightblue" stroke="midnightblue" points="311.14,-36 301.14,-39.5 311.14,-43 311.14,-36"/>
</g>
<!-- Node4 -->
<g id="node4" class="node">
<title>Node4</title>
<g id="a_node4"><a xlink:href="classcom_1_1tw_1_1paintbots_1_1_entity.xhtml" target="_top" xlink:title=" ">
<polygon fill="white" stroke="black" points="0,-30 0,-49 116,-49 116,-30 0,-30"/>
<text text-anchor="middle" x="58" y="-37" font-family="Helvetica,sans-Serif" font-size="10.00">com.tw.paintbots.Entity</text>
</a>
</g>
</g>
<!-- Node4&#45;&gt;Node3 -->
<g id="edge3" class="edge">
<title>Node4&#45;&gt;Node3</title>
<path fill="none" stroke="midnightblue" d="M126.41,-39.5C134.81,-39.5 143.43,-39.5 151.92,-39.5"/>
<polygon fill="midnightblue" stroke="midnightblue" points="126.3,-36 116.3,-39.5 126.3,-43 126.3,-36"/>
</g>
</g>
</svg>
