<?xml version="1.0" encoding="UTF-8" standalone="no"?>
<!DOCTYPE svg PUBLIC "-//W3C//DTD SVG 1.1//EN"
 "http://www.w3.org/Graphics/SVG/1.1/DTD/svg11.dtd">
<!-- Generated by graphviz version 2.49.3 (20211027.1534)
 -->
<!-- Title: com.tw.paintbots.AIPlayer Pages: 1 -->
<svg width="258pt" height="196pt"
 viewBox="0.00 0.00 258.00 196.00" xmlns="http://www.w3.org/2000/svg" xmlns:xlink="http://www.w3.org/1999/xlink">
<g id="graph0" class="graph" transform="scale(1 1) rotate(0) translate(4 192)">
<title>com.tw.paintbots.AIPlayer</title>
<polygon fill="white" stroke="transparent" points="-4,4 -4,-192 254,-192 254,4 -4,4"/>
<!-- Node1 -->
<g id="node1" class="node">
<title>Node1</title>
<g id="a_node1"><a xlink:title=" ">
<polygon fill="#bfbfbf" stroke="black" points="47,-56.5 47,-75.5 176,-75.5 176,-56.5 47,-56.5"/>
<text text-anchor="middle" x="111.5" y="-63.5" font-family="Helvetica,sans-Serif" font-size="10.00">com.tw.paintbots.AIPlayer</text>
</a>
</g>
</g>
<!-- Node4 -->
<g id="node4" class="node">
<title>Node4</title>
<g id="a_node4"><a xlink:title=" ">
<polygon fill="white" stroke="#bfbfbf" points="0,-0.5 0,-19.5 89,-19.5 89,-0.5 0,-0.5"/>
<text text-anchor="middle" x="44.5" y="-7.5" font-family="Helvetica,sans-Serif" font-size="10.00">bots.RandomBot</text>
</a>
</g>
</g>
<!-- Node1&#45;&gt;Node4 -->
<g id="edge3" class="edge">
<title>Node1&#45;&gt;Node4</title>
<path fill="none" stroke="midnightblue" d="M92.67,-49.82C80.66,-40.15 65.53,-27.95 55.46,-19.83"/>
<polygon fill="midnightblue" stroke="midnightblue" points="90.75,-52.77 100.74,-56.32 95.15,-47.32 90.75,-52.77"/>
</g>
<!-- Node5 -->
<g id="node5" class="node">
<title>Node5</title>
<g id="a_node5"><a xlink:title=" ">
<polygon fill="white" stroke="#bfbfbf" points="107,-0.5 107,-19.5 250,-19.5 250,-0.5 107,-0.5"/>
<text text-anchor="middle" x="178.5" y="-7.5" font-family="Helvetica,sans-Serif" font-size="10.00">com.tw.paintbots.RandomBot</text>
</a>
</g>
</g>
<!-- Node1&#45;&gt;Node5 -->
<g id="edge4" class="edge">
<title>Node1&#45;&gt;Node5</title>
<path fill="none" stroke="midnightblue" d="M130.33,-49.82C142.34,-40.15 157.47,-27.95 167.54,-19.83"/>
<polygon fill="midnightblue" stroke="midnightblue" points="127.85,-47.32 122.26,-56.32 132.25,-52.77 127.85,-47.32"/>
</g>
<!-- Node2 -->
<g id="node2" class="node">
<title>Node2</title>
<g id="a_node2"><a xlink:href="classcom_1_1tw_1_1paintbots_1_1_player.xhtml" target="_top" xlink:title=" ">
<polygon fill="white" stroke="black" points="52,-112.5 52,-131.5 171,-131.5 171,-112.5 52,-112.5"/>
<text text-anchor="middle" x="111.5" y="-119.5" font-family="Helvetica,sans-Serif" font-size="10.00">com.tw.paintbots.Player</text>
</a>
</g>
</g>
<!-- Node2&#45;&gt;Node1 -->
<g id="edge1" class="edge">
<title>Node2&#45;&gt;Node1</title>
<path fill="none" stroke="midnightblue" d="M111.5,-101.8C111.5,-92.91 111.5,-82.78 111.5,-75.75"/>
<polygon fill="midnightblue" stroke="midnightblue" points="108,-102.08 111.5,-112.08 115,-102.08 108,-102.08"/>
</g>
<!-- Node3 -->
<g id="node3" class="node">
<title>Node3</title>
<g id="a_node3"><a xlink:href="classcom_1_1tw_1_1paintbots_1_1_entity.xhtml" target="_top" xlink:title=" ">
<polygon fill="white" stroke="black" points="53.5,-168.5 53.5,-187.5 169.5,-187.5 169.5,-168.5 53.5,-168.5"/>
<text text-anchor="middle" x="111.5" y="-175.5" font-family="Helvetica,sans-Serif" font-size="10.00">com.tw.paintbots.Entity</text>
</a>
</g>
</g>
<!-- Node3&#45;&gt;Node2 -->
<g id="edge2" class="edge">
<title>Node3&#45;&gt;Node2</title>
<path fill="none" stroke="midnightblue" d="M111.5,-157.8C111.5,-148.91 111.5,-138.78 111.5,-131.75"/>
<polygon fill="midnightblue" stroke="midnightblue" points="108,-158.08 111.5,-168.08 115,-158.08 108,-158.08"/>
</g>
</g>
</svg>
