<?xml version="1.0" encoding="UTF-8" standalone="no"?>
<!DOCTYPE svg PUBLIC "-//W3C//DTD SVG 1.1//EN"
 "http://www.w3.org/Graphics/SVG/1.1/DTD/svg11.dtd">
<!-- Generated by graphviz version 2.49.3 (20211027.1534)
 -->
<!-- Title: Graphical Class Hierarchy Pages: 1 -->
<svg width="877pt" height="511pt"
 viewBox="0.00 0.00 877.00 510.50" xmlns="http://www.w3.org/2000/svg" xmlns:xlink="http://www.w3.org/1999/xlink">
<g id="graph0" class="graph" transform="scale(1 1) rotate(0) translate(4 506.5)">
<title>Graphical Class Hierarchy</title>
<polygon fill="white" stroke="transparent" points="-4,4 -4,-506.5 873,-506.5 873,4 -4,4"/>
<!-- Node0 -->
<g id="node1" class="node">
<title>Node0</title>
<g id="a_node1"><a xlink:href="classcom_1_1tw_1_1paintbots_1_1_entity.xhtml" target="_top" xlink:title=" ">
<polygon fill="white" stroke="black" points="0,-360 0,-379 116,-379 116,-360 0,-360"/>
<text text-anchor="middle" x="58" y="-367" font-family="Helvetica,sans-Serif" font-size="10.00">com.tw.paintbots.Entity</text>
</a>
</g>
</g>
<!-- Node1 -->
<g id="node2" class="node">
<title>Node1</title>
<g id="a_node2"><a xlink:href="classcom_1_1tw_1_1paintbots_1_1_player.xhtml" target="_top" xlink:title=" ">
<polygon fill="white" stroke="black" points="167,-426 167,-445 286,-445 286,-426 167,-426"/>
<text text-anchor="middle" x="226.5" y="-433" font-family="Helvetica,sans-Serif" font-size="10.00">com.tw.paintbots.Player</text>
</a>
</g>
</g>
<!-- Node0&#45;&gt;Node1 -->
<g id="edge1" class="edge">
<title>Node0&#45;&gt;Node1</title>
<path fill="none" stroke="midnightblue" d="M92.69,-382.86C125,-395.66 172.95,-414.67 201.53,-426"/>
<polygon fill="midnightblue" stroke="midnightblue" points="93.8,-379.53 83.21,-379.1 91.22,-386.04 93.8,-379.53"/>
</g>
<!-- Node5 -->
<g id="node6" class="node">
<title>Node5</title>
<g id="a_node6"><a xlink:href="classcom_1_1tw_1_1paintbots_1_1_renderables_1_1_renderable.xhtml" target="_top" xlink:title=" ">
<polygon fill="white" stroke="black" points="152,-308.5 152,-338.5 301,-338.5 301,-308.5 152,-308.5"/>
<text text-anchor="start" x="160" y="-326.5" font-family="Helvetica,sans-Serif" font-size="10.00">com.tw.paintbots.Renderables.</text>
<text text-anchor="middle" x="226.5" y="-315.5" font-family="Helvetica,sans-Serif" font-size="10.00">Renderable</text>
</a>
</g>
</g>
<!-- Node0&#45;&gt;Node5 -->
<g id="edge5" class="edge">
<title>Node0&#45;&gt;Node5</title>
<path fill="none" stroke="midnightblue" d="M103.34,-357.25C124.14,-351.5 149.12,-344.6 171.05,-338.54"/>
<polygon fill="midnightblue" stroke="midnightblue" points="102.21,-353.93 93.5,-359.97 104.07,-360.68 102.21,-353.93"/>
</g>
<!-- Node2 -->
<g id="node3" class="node">
<title>Node2</title>
<g id="a_node3"><a xlink:href="classcom_1_1tw_1_1paintbots_1_1_a_i_player.xhtml" target="_top" xlink:title=" ">
<polygon fill="white" stroke="black" points="348,-483 348,-502 477,-502 477,-483 348,-483"/>
<text text-anchor="middle" x="412.5" y="-490" font-family="Helvetica,sans-Serif" font-size="10.00">com.tw.paintbots.AIPlayer</text>
</a>
</g>
</g>
<!-- Node1&#45;&gt;Node2 -->
<g id="edge2" class="edge">
<title>Node1&#45;&gt;Node2</title>
<path fill="none" stroke="midnightblue" d="M262.58,-448.52C283.95,-456.24 311.88,-465.95 337,-473.5 348.12,-476.84 360.29,-480.11 371.51,-482.96"/>
<polygon fill="midnightblue" stroke="midnightblue" points="263.56,-445.15 252.97,-445.02 261.17,-451.73 263.56,-445.15"/>
</g>
<!-- Node3 -->
<g id="node4" class="node">
<title>Node3</title>
<g id="a_node4"><a xlink:href="classcom_1_1tw_1_1paintbots_1_1_human_player.xhtml" target="_top" xlink:title=" ">
<polygon fill="white" stroke="black" points="337,-445 337,-464 488,-464 488,-445 337,-445"/>
<text text-anchor="middle" x="412.5" y="-452" font-family="Helvetica,sans-Serif" font-size="10.00">com.tw.paintbots.HumanPlayer</text>
</a>
</g>
</g>
<!-- Node1&#45;&gt;Node3 -->
<g id="edge3" class="edge">
<title>Node1&#45;&gt;Node3</title>
<path fill="none" stroke="midnightblue" d="M296.2,-442.59C309.46,-443.96 323.4,-445.4 336.83,-446.79"/>
<polygon fill="midnightblue" stroke="midnightblue" points="296.53,-439.11 286.22,-441.56 295.81,-446.07 296.53,-439.11"/>
</g>
<!-- Node4 -->
<g id="node5" class="node">
<title>Node4</title>
<g id="a_node5"><a xlink:href="classcom_1_1tw_1_1paintbots_1_1_none_player.xhtml" target="_top" xlink:title=" ">
<polygon fill="white" stroke="black" points="341,-407 341,-426 484,-426 484,-407 341,-407"/>
<text text-anchor="middle" x="412.5" y="-414" font-family="Helvetica,sans-Serif" font-size="10.00">com.tw.paintbots.NonePlayer</text>
</a>
</g>
</g>
<!-- Node1&#45;&gt;Node4 -->
<g id="edge4" class="edge">
<title>Node1&#45;&gt;Node4</title>
<path fill="none" stroke="midnightblue" d="M296.58,-428.37C311.03,-426.88 326.28,-425.3 340.78,-423.8"/>
<polygon fill="midnightblue" stroke="midnightblue" points="295.81,-424.93 286.22,-429.44 296.53,-431.89 295.81,-424.93"/>
</g>
<!-- Node6 -->
<g id="node7" class="node">
<title>Node6</title>
<g id="a_node7"><a xlink:href="classcom_1_1tw_1_1paintbots_1_1_renderables_1_1_canvas.xhtml" target="_top" xlink:title=" ">
<polygon fill="white" stroke="black" points="338,-357.5 338,-387.5 487,-387.5 487,-357.5 338,-357.5"/>
<text text-anchor="start" x="346" y="-375.5" font-family="Helvetica,sans-Serif" font-size="10.00">com.tw.paintbots.Renderables.</text>
<text text-anchor="middle" x="412.5" y="-364.5" font-family="Helvetica,sans-Serif" font-size="10.00">Canvas</text>
</a>
</g>
</g>
<!-- Node5&#45;&gt;Node6 -->
<g id="edge6" class="edge">
<title>Node5&#45;&gt;Node6</title>
<path fill="none" stroke="midnightblue" d="M293.68,-341.12C313.81,-346.48 335.73,-352.32 355.15,-357.49"/>
<polygon fill="midnightblue" stroke="midnightblue" points="294.52,-337.73 283.96,-338.53 292.72,-344.49 294.52,-337.73"/>
</g>
<!-- Node7 -->
<g id="node8" class="node">
<title>Node7</title>
<g id="a_node8"><a xlink:href="classcom_1_1tw_1_1paintbots_1_1_renderables_1_1_multi_layer_renderable.xhtml" target="_top" xlink:title=" ">
<polygon fill="white" stroke="black" points="338,-308.5 338,-338.5 487,-338.5 487,-308.5 338,-308.5"/>
<text text-anchor="start" x="346" y="-326.5" font-family="Helvetica,sans-Serif" font-size="10.00">com.tw.paintbots.Renderables.</text>
<text text-anchor="middle" x="412.5" y="-315.5" font-family="Helvetica,sans-Serif" font-size="10.00">MultiLayerRenderable</text>
</a>
</g>
</g>
<!-- Node5&#45;&gt;Node7 -->
<g id="edge7" class="edge">
<title>Node5&#45;&gt;Node7</title>
<path fill="none" stroke="midnightblue" d="M311.03,-323.5C319.96,-323.5 329,-323.5 337.8,-323.5"/>
<polygon fill="midnightblue" stroke="midnightblue" points="311.01,-320 301.01,-323.5 311.01,-327 311.01,-320"/>
</g>
<!-- Node8 -->
<g id="node9" class="node">
<title>Node8</title>
<g id="a_node9"><a xlink:href="classcom_1_1tw_1_1paintbots_1_1_renderables_1_1_simple_renderable.xhtml" target="_top" xlink:title=" ">
<polygon fill="white" stroke="black" points="338,-259.5 338,-289.5 487,-289.5 487,-259.5 338,-259.5"/>
<text text-anchor="start" x="346" y="-277.5" font-family="Helvetica,sans-Serif" font-size="10.00">com.tw.paintbots.Renderables.</text>
<text text-anchor="middle" x="412.5" y="-266.5" font-family="Helvetica,sans-Serif" font-size="10.00">SimpleRenderable</text>
</a>
</g>
</g>
<!-- Node5&#45;&gt;Node8 -->
<g id="edge8" class="edge">
<title>Node5&#45;&gt;Node8</title>
<path fill="none" stroke="midnightblue" d="M293.68,-305.88C313.81,-300.52 335.73,-294.68 355.15,-289.51"/>
<polygon fill="midnightblue" stroke="midnightblue" points="292.72,-302.51 283.96,-308.47 294.52,-309.27 292.72,-302.51"/>
</g>
<!-- Node19 -->
<g id="node20" class="node">
<title>Node19</title>
<g id="a_node20"><a xlink:href="classcom_1_1tw_1_1paintbots_1_1_renderables_1_1_texture_grid.xhtml" target="_top" xlink:title=" ">
<polygon fill="white" stroke="black" points="338,-71.5 338,-101.5 487,-101.5 487,-71.5 338,-71.5"/>
<text text-anchor="start" x="346" y="-89.5" font-family="Helvetica,sans-Serif" font-size="10.00">com.tw.paintbots.Renderables.</text>
<text text-anchor="middle" x="412.5" y="-78.5" font-family="Helvetica,sans-Serif" font-size="10.00">TextureGrid</text>
</a>
</g>
</g>
<!-- Node5&#45;&gt;Node19 -->
<g id="edge19" class="edge">
<title>Node5&#45;&gt;Node19</title>
<path fill="none" stroke="midnightblue" d="M245.5,-300.31C283,-252.02 368.57,-141.8 399.81,-101.56"/>
<polygon fill="midnightblue" stroke="midnightblue" points="242.66,-298.27 239.29,-308.31 248.19,-302.56 242.66,-298.27"/>
</g>
<!-- Node9 -->
<g id="node10" class="node">
<title>Node9</title>
<g id="a_node10"><a xlink:href="classcom_1_1tw_1_1paintbots_1_1_items_1_1_item.xhtml" target="_top" xlink:title=" ">
<polygon fill="white" stroke="black" points="534.5,-435 534.5,-454 673.5,-454 673.5,-435 534.5,-435"/>
<text text-anchor="middle" x="604" y="-442" font-family="Helvetica,sans-Serif" font-size="10.00">com.tw.paintbots.Items.Item</text>
</a>
</g>
</g>
<!-- Node8&#45;&gt;Node9 -->
<g id="edge9" class="edge">
<title>Node8&#45;&gt;Node9</title>
<path fill="none" stroke="midnightblue" d="M483.61,-295.43C485.15,-296.71 486.62,-298.06 488,-299.5 527.48,-340.56 483.46,-382.49 524,-422.5 529.37,-427.8 535.9,-431.85 542.89,-434.94"/>
<polygon fill="midnightblue" stroke="midnightblue" points="485.59,-292.54 475.39,-289.67 481.57,-298.27 485.59,-292.54"/>
</g>
<!-- Node11 -->
<g id="node12" class="node">
<title>Node11</title>
<g id="a_node12"><a xlink:href="classcom_1_1tw_1_1paintbots_1_1_renderables_1_1_animated_renderable.xhtml" target="_top" xlink:title=" ">
<polygon fill="white" stroke="black" points="529.5,-382.5 529.5,-412.5 678.5,-412.5 678.5,-382.5 529.5,-382.5"/>
<text text-anchor="start" x="537.5" y="-400.5" font-family="Helvetica,sans-Serif" font-size="10.00">com.tw.paintbots.Renderables.</text>
<text text-anchor="middle" x="604" y="-389.5" font-family="Helvetica,sans-Serif" font-size="10.00">AnimatedRenderable</text>
</a>
</g>
</g>
<!-- Node8&#45;&gt;Node11 -->
<g id="edge11" class="edge">
<title>Node8&#45;&gt;Node11</title>
<path fill="none" stroke="midnightblue" d="M481.89,-294.75C484.02,-296.23 486.07,-297.81 488,-299.5 515.48,-323.64 496.18,-349.76 524,-373.5 528.03,-376.94 532.55,-379.89 537.33,-382.42"/>
<polygon fill="midnightblue" stroke="midnightblue" points="483.63,-291.71 473.25,-289.58 480.03,-297.72 483.63,-291.71"/>
</g>
<!-- Node14 -->
<g id="node15" class="node">
<title>Node14</title>
<g id="a_node15"><a xlink:href="classcom_1_1tw_1_1paintbots_1_1_renderables_1_1_repeated_renderable.xhtml" target="_top" xlink:title=" ">
<polygon fill="white" stroke="black" points="529.5,-333.5 529.5,-363.5 678.5,-363.5 678.5,-333.5 529.5,-333.5"/>
<text text-anchor="start" x="537.5" y="-351.5" font-family="Helvetica,sans-Serif" font-size="10.00">com.tw.paintbots.Renderables.</text>
<text text-anchor="middle" x="604" y="-340.5" font-family="Helvetica,sans-Serif" font-size="10.00">RepeatedRenderable</text>
</a>
</g>
</g>
<!-- Node8&#45;&gt;Node14 -->
<g id="edge14" class="edge">
<title>Node8&#45;&gt;Node14</title>
<path fill="none" stroke="midnightblue" d="M474.42,-293.33C479.08,-295.26 483.66,-297.32 488,-299.5 505.41,-308.24 506.47,-316.01 524,-324.5 530.84,-327.81 538.23,-330.78 545.65,-333.41"/>
<polygon fill="midnightblue" stroke="midnightblue" points="475.36,-289.95 464.78,-289.56 472.82,-296.47 475.36,-289.95"/>
</g>
<!-- Node15 -->
<g id="node16" class="node">
<title>Node15</title>
<g id="a_node16"><a xlink:href="classcom_1_1tw_1_1paintbots_1_1_renderables_1_1_u_i_menu_item.xhtml" target="_top" xlink:title=" ">
<polygon fill="white" stroke="black" points="529.5,-284.5 529.5,-314.5 678.5,-314.5 678.5,-284.5 529.5,-284.5"/>
<text text-anchor="start" x="537.5" y="-302.5" font-family="Helvetica,sans-Serif" font-size="10.00">com.tw.paintbots.Renderables.</text>
<text text-anchor="middle" x="604" y="-291.5" font-family="Helvetica,sans-Serif" font-size="10.00">UIMenuItem</text>
</a>
</g>
</g>
<!-- Node8&#45;&gt;Node15 -->
<g id="edge15" class="edge">
<title>Node8&#45;&gt;Node15</title>
<path fill="none" stroke="midnightblue" d="M497.18,-285.54C507.85,-286.95 518.7,-288.38 529.19,-289.76"/>
<polygon fill="midnightblue" stroke="midnightblue" points="497.41,-282.04 487.04,-284.2 496.49,-288.98 497.41,-282.04"/>
</g>
<!-- Node16 -->
<g id="node17" class="node">
<title>Node16</title>
<g id="a_node17"><a xlink:href="classcom_1_1tw_1_1paintbots_1_1_renderables_1_1_u_i_player_board.xhtml" target="_top" xlink:title=" ">
<polygon fill="white" stroke="black" points="529.5,-235.5 529.5,-265.5 678.5,-265.5 678.5,-235.5 529.5,-235.5"/>
<text text-anchor="start" x="537.5" y="-253.5" font-family="Helvetica,sans-Serif" font-size="10.00">com.tw.paintbots.Renderables.</text>
<text text-anchor="middle" x="604" y="-242.5" font-family="Helvetica,sans-Serif" font-size="10.00">UIPlayerBoard</text>
</a>
</g>
</g>
<!-- Node8&#45;&gt;Node16 -->
<g id="edge16" class="edge">
<title>Node8&#45;&gt;Node16</title>
<path fill="none" stroke="midnightblue" d="M497.18,-263.9C507.85,-262.55 518.7,-261.18 529.19,-259.85"/>
<polygon fill="midnightblue" stroke="midnightblue" points="496.52,-260.46 487.04,-265.19 497.4,-267.4 496.52,-260.46"/>
</g>
<!-- Node17 -->
<g id="node18" class="node">
<title>Node17</title>
<g id="a_node18"><a xlink:href="classcom_1_1tw_1_1paintbots_1_1_renderables_1_1_u_i_result_board.xhtml" target="_top" xlink:title=" ">
<polygon fill="white" stroke="black" points="529.5,-186.5 529.5,-216.5 678.5,-216.5 678.5,-186.5 529.5,-186.5"/>
<text text-anchor="start" x="537.5" y="-204.5" font-family="Helvetica,sans-Serif" font-size="10.00">com.tw.paintbots.Renderables.</text>
<text text-anchor="middle" x="604" y="-193.5" font-family="Helvetica,sans-Serif" font-size="10.00">UIResultBoard</text>
</a>
</g>
</g>
<!-- Node8&#45;&gt;Node17 -->
<g id="edge17" class="edge">
<title>Node8&#45;&gt;Node17</title>
<path fill="none" stroke="midnightblue" d="M455.37,-255.1C475.86,-245.92 501,-235.11 524,-226.5 533.16,-223.07 543.03,-219.7 552.58,-216.6"/>
<polygon fill="midnightblue" stroke="midnightblue" points="453.69,-252.01 446.02,-259.32 456.57,-258.39 453.69,-252.01"/>
</g>
<!-- Node18 -->
<g id="node19" class="node">
<title>Node18</title>
<g id="a_node19"><a xlink:href="classcom_1_1tw_1_1paintbots_1_1_renderables_1_1_u_i_timer.xhtml" target="_top" xlink:title=" ">
<polygon fill="white" stroke="black" points="529.5,-137.5 529.5,-167.5 678.5,-167.5 678.5,-137.5 529.5,-137.5"/>
<text text-anchor="start" x="537.5" y="-155.5" font-family="Helvetica,sans-Serif" font-size="10.00">com.tw.paintbots.Renderables.</text>
<text text-anchor="middle" x="604" y="-144.5" font-family="Helvetica,sans-Serif" font-size="10.00">UITimer</text>
</a>
</g>
</g>
<!-- Node8&#45;&gt;Node18 -->
<g id="edge18" class="edge">
<title>Node8&#45;&gt;Node18</title>
<path fill="none" stroke="midnightblue" d="M434.03,-251.67C454.78,-229.83 488.75,-197.38 524,-177.5 530.77,-173.68 538.19,-170.37 545.7,-167.5"/>
<polygon fill="midnightblue" stroke="midnightblue" points="431.27,-249.49 427,-259.19 436.39,-254.27 431.27,-249.49"/>
</g>
<!-- Node10 -->
<g id="node11" class="node">
<title>Node10</title>
<g id="a_node11"><a xlink:href="classcom_1_1tw_1_1paintbots_1_1_items_1_1_refill_place_base.xhtml" target="_top" xlink:title=" ">
<polygon fill="white" stroke="black" points="724.5,-431.5 724.5,-461.5 864.5,-461.5 864.5,-431.5 724.5,-431.5"/>
<text text-anchor="start" x="732.5" y="-449.5" font-family="Helvetica,sans-Serif" font-size="10.00">com.tw.paintbots.Items.Refill</text>
<text text-anchor="middle" x="794.5" y="-438.5" font-family="Helvetica,sans-Serif" font-size="10.00">PlaceBase</text>
</a>
</g>
</g>
<!-- Node9&#45;&gt;Node10 -->
<g id="edge10" class="edge">
<title>Node9&#45;&gt;Node10</title>
<path fill="none" stroke="midnightblue" d="M683.78,-445.34C697.24,-445.48 711.14,-445.63 724.33,-445.77"/>
<polygon fill="midnightblue" stroke="midnightblue" points="683.62,-441.83 673.59,-445.23 683.55,-448.83 683.62,-441.83"/>
</g>
<!-- Node12 -->
<g id="node13" class="node">
<title>Node12</title>
<g id="a_node13"><a xlink:href="classcom_1_1tw_1_1paintbots_1_1_renderables_1_1_direction_indicator.xhtml" target="_top" xlink:title=" ">
<polygon fill="white" stroke="black" points="720,-382.5 720,-412.5 869,-412.5 869,-382.5 720,-382.5"/>
<text text-anchor="start" x="728" y="-400.5" font-family="Helvetica,sans-Serif" font-size="10.00">com.tw.paintbots.Renderables.</text>
<text text-anchor="middle" x="794.5" y="-389.5" font-family="Helvetica,sans-Serif" font-size="10.00">DirectionIndicator</text>
</a>
</g>
</g>
<!-- Node11&#45;&gt;Node12 -->
<g id="edge12" class="edge">
<title>Node11&#45;&gt;Node12</title>
<path fill="none" stroke="midnightblue" d="M688.93,-397.5C699.24,-397.5 709.72,-397.5 719.86,-397.5"/>
<polygon fill="midnightblue" stroke="midnightblue" points="688.69,-394 678.69,-397.5 688.69,-401 688.69,-394"/>
</g>
<!-- Node13 -->
<g id="node14" class="node">
<title>Node13</title>
<g id="a_node14"><a xlink:href="classcom_1_1tw_1_1paintbots_1_1_renderables_1_1_player_animation.xhtml" target="_top" xlink:title=" ">
<polygon fill="white" stroke="black" points="720,-333.5 720,-363.5 869,-363.5 869,-333.5 720,-333.5"/>
<text text-anchor="start" x="728" y="-351.5" font-family="Helvetica,sans-Serif" font-size="10.00">com.tw.paintbots.Renderables.</text>
<text text-anchor="middle" x="794.5" y="-340.5" font-family="Helvetica,sans-Serif" font-size="10.00">PlayerAnimation</text>
</a>
</g>
</g>
<!-- Node11&#45;&gt;Node13 -->
<g id="edge13" class="edge">
<title>Node11&#45;&gt;Node13</title>
<path fill="none" stroke="midnightblue" d="M672.79,-379.88C693.42,-374.52 715.88,-368.68 735.77,-363.51"/>
<polygon fill="midnightblue" stroke="midnightblue" points="671.64,-376.56 662.84,-382.47 673.4,-383.34 671.64,-376.56"/>
</g>
<!-- Node20 -->
<g id="node21" class="node">
<title>Node20</title>
<g id="a_node21"><a xlink:href="classcom_1_1tw_1_1paintbots_1_1_items_1_1_power_up.xhtml" target="_top" xlink:title=" ">
<polygon fill="white" stroke="black" points="524,-99 524,-118 684,-118 684,-99 524,-99"/>
<text text-anchor="middle" x="604" y="-106" font-family="Helvetica,sans-Serif" font-size="10.00">com.tw.paintbots.Items.PowerUp</text>
</a>
</g>
</g>
<!-- Node19&#45;&gt;Node20 -->
<g id="edge20" class="edge">
<title>Node19&#45;&gt;Node20</title>
<path fill="none" stroke="midnightblue" d="M497.03,-96.2C505.94,-97.23 514.99,-98.28 523.86,-99.31"/>
<polygon fill="midnightblue" stroke="midnightblue" points="497.37,-92.71 487.04,-95.04 496.57,-99.67 497.37,-92.71"/>
</g>
<!-- Node21 -->
<g id="node22" class="node">
<title>Node21</title>
<g id="a_node22"><a xlink:href="classcom_1_1tw_1_1paintbots_1_1_renderables_1_1_u_i_color_bar.xhtml" target="_top" xlink:title=" ">
<polygon fill="white" stroke="black" points="529.5,-49.5 529.5,-79.5 678.5,-79.5 678.5,-49.5 529.5,-49.5"/>
<text text-anchor="start" x="537.5" y="-67.5" font-family="Helvetica,sans-Serif" font-size="10.00">com.tw.paintbots.Renderables.</text>
<text text-anchor="middle" x="604" y="-56.5" font-family="Helvetica,sans-Serif" font-size="10.00">UIColorBar</text>
</a>
</g>
</g>
<!-- Node19&#45;&gt;Node21 -->
<g id="edge21" class="edge">
<title>Node19&#45;&gt;Node21</title>
<path fill="none" stroke="midnightblue" d="M497.18,-76.78C507.85,-75.55 518.7,-74.29 529.19,-73.07"/>
<polygon fill="midnightblue" stroke="midnightblue" points="496.57,-73.33 487.04,-77.96 497.37,-80.29 496.57,-73.33"/>
</g>
<!-- Node22 -->
<g id="node23" class="node">
<title>Node22</title>
<g id="a_node23"><a xlink:href="classcom_1_1tw_1_1paintbots_1_1_renderables_1_1_u_i_digit.xhtml" target="_top" xlink:title=" ">
<polygon fill="white" stroke="black" points="529.5,-0.5 529.5,-30.5 678.5,-30.5 678.5,-0.5 529.5,-0.5"/>
<text text-anchor="start" x="537.5" y="-18.5" font-family="Helvetica,sans-Serif" font-size="10.00">com.tw.paintbots.Renderables.</text>
<text text-anchor="middle" x="604" y="-7.5" font-family="Helvetica,sans-Serif" font-size="10.00">UIDigit</text>
</a>
</g>
</g>
<!-- Node19&#45;&gt;Node22 -->
<g id="edge22" class="edge">
<title>Node19&#45;&gt;Node22</title>
<path fill="none" stroke="midnightblue" d="M455.82,-67.24C476.22,-58.28 501.16,-47.8 524,-39.5 532.49,-36.42 541.58,-33.4 550.47,-30.6"/>
<polygon fill="midnightblue" stroke="midnightblue" points="454.22,-64.12 446.49,-71.37 457.06,-70.52 454.22,-64.12"/>
</g>
<!-- Node23 -->
<g id="node24" class="node">
<title>Node23</title>
<g id="a_node24"><a xlink:href="classcom_1_1tw_1_1paintbots_1_1_renderables_1_1_start_timer.xhtml" target="_top" xlink:title=" ">
<polygon fill="white" stroke="black" points="720,-0.5 720,-30.5 869,-30.5 869,-0.5 720,-0.5"/>
<text text-anchor="start" x="728" y="-18.5" font-family="Helvetica,sans-Serif" font-size="10.00">com.tw.paintbots.Renderables.</text>
<text text-anchor="middle" x="794.5" y="-7.5" font-family="Helvetica,sans-Serif" font-size="10.00">StartTimer</text>
</a>
</g>
</g>
<!-- Node22&#45;&gt;Node23 -->
<g id="edge23" class="edge">
<title>Node22&#45;&gt;Node23</title>
<path fill="none" stroke="midnightblue" d="M688.93,-15.5C699.24,-15.5 709.72,-15.5 719.86,-15.5"/>
<polygon fill="midnightblue" stroke="midnightblue" points="688.69,-12 678.69,-15.5 688.69,-19 688.69,-12"/>
</g>
</g>
</svg>
