<?xml version="1.0" encoding="UTF-8" standalone="no"?>
<!DOCTYPE svg PUBLIC "-//W3C//DTD SVG 1.1//EN"
 "http://www.w3.org/Graphics/SVG/1.1/DTD/svg11.dtd">
<!-- Generated by graphviz version 2.49.3 (20211027.1534)
 -->
<!-- Title: Graphical Class Hierarchy Pages: 1 -->
<svg width="866pt" height="448pt"
 viewBox="0.00 0.00 866.00 447.50" xmlns="http://www.w3.org/2000/svg" xmlns:xlink="http://www.w3.org/1999/xlink">
<g id="graph0" class="graph" transform="scale(1 1) rotate(0) translate(4 443.5)">
<title>Graphical Class Hierarchy</title>
<polygon fill="white" stroke="transparent" points="-4,4 -4,-443.5 862,-443.5 862,4 -4,4"/>
<!-- Node0 -->
<g id="node1" class="node">
<title>Node0</title>
<g id="a_node1"><a xlink:href="classcom_1_1tw_1_1paintbots_1_1_entity.xhtml" target="_top" xlink:title=" ">
<polygon fill="white" stroke="black" points="0,-297 0,-316 116,-316 116,-297 0,-297"/>
<text text-anchor="middle" x="58" y="-304" font-family="Helvetica,sans-Serif" font-size="10.00">com.tw.paintbots.Entity</text>
</a>
</g>
</g>
<!-- Node1 -->
<g id="node2" class="node">
<title>Node1</title>
<g id="a_node2"><a xlink:href="classcom_1_1tw_1_1paintbots_1_1_player.xhtml" target="_top" xlink:title=" ">
<polygon fill="white" stroke="black" points="167,-363 167,-382 286,-382 286,-363 167,-363"/>
<text text-anchor="middle" x="226.5" y="-370" font-family="Helvetica,sans-Serif" font-size="10.00">com.tw.paintbots.Player</text>
</a>
</g>
</g>
<!-- Node0&#45;&gt;Node1 -->
<g id="edge1" class="edge">
<title>Node0&#45;&gt;Node1</title>
<path fill="none" stroke="midnightblue" d="M92.69,-319.86C125,-332.66 172.95,-351.67 201.53,-363"/>
<polygon fill="midnightblue" stroke="midnightblue" points="93.8,-316.53 83.21,-316.1 91.22,-323.04 93.8,-316.53"/>
</g>
<!-- Node5 -->
<g id="node6" class="node">
<title>Node5</title>
<g id="a_node6"><a xlink:href="classcom_1_1tw_1_1paintbots_1_1_renderables_1_1_renderable.xhtml" target="_top" xlink:title=" ">
<polygon fill="white" stroke="black" points="152,-245.5 152,-275.5 301,-275.5 301,-245.5 152,-245.5"/>
<text text-anchor="start" x="160" y="-263.5" font-family="Helvetica,sans-Serif" font-size="10.00">com.tw.paintbots.Renderables.</text>
<text text-anchor="middle" x="226.5" y="-252.5" font-family="Helvetica,sans-Serif" font-size="10.00">Renderable</text>
</a>
</g>
</g>
<!-- Node0&#45;&gt;Node5 -->
<g id="edge5" class="edge">
<title>Node0&#45;&gt;Node5</title>
<path fill="none" stroke="midnightblue" d="M103.34,-294.25C124.14,-288.5 149.12,-281.6 171.05,-275.54"/>
<polygon fill="midnightblue" stroke="midnightblue" points="102.21,-290.93 93.5,-296.97 104.07,-297.68 102.21,-290.93"/>
</g>
<!-- Node2 -->
<g id="node3" class="node">
<title>Node2</title>
<g id="a_node3"><a xlink:href="classcom_1_1tw_1_1paintbots_1_1_a_i_player.xhtml" target="_top" xlink:title=" ">
<polygon fill="white" stroke="black" points="348,-420 348,-439 477,-439 477,-420 348,-420"/>
<text text-anchor="middle" x="412.5" y="-427" font-family="Helvetica,sans-Serif" font-size="10.00">com.tw.paintbots.AIPlayer</text>
</a>
</g>
</g>
<!-- Node1&#45;&gt;Node2 -->
<g id="edge2" class="edge">
<title>Node1&#45;&gt;Node2</title>
<path fill="none" stroke="midnightblue" d="M262.58,-385.52C283.95,-393.24 311.88,-402.95 337,-410.5 348.12,-413.84 360.29,-417.11 371.51,-419.96"/>
<polygon fill="midnightblue" stroke="midnightblue" points="263.56,-382.15 252.97,-382.02 261.17,-388.73 263.56,-382.15"/>
</g>
<!-- Node3 -->
<g id="node4" class="node">
<title>Node3</title>
<g id="a_node4"><a xlink:href="classcom_1_1tw_1_1paintbots_1_1_human_player.xhtml" target="_top" xlink:title=" ">
<polygon fill="white" stroke="black" points="337,-382 337,-401 488,-401 488,-382 337,-382"/>
<text text-anchor="middle" x="412.5" y="-389" font-family="Helvetica,sans-Serif" font-size="10.00">com.tw.paintbots.HumanPlayer</text>
</a>
</g>
</g>
<!-- Node1&#45;&gt;Node3 -->
<g id="edge3" class="edge">
<title>Node1&#45;&gt;Node3</title>
<path fill="none" stroke="midnightblue" d="M296.2,-379.59C309.46,-380.96 323.4,-382.4 336.83,-383.79"/>
<polygon fill="midnightblue" stroke="midnightblue" points="296.53,-376.11 286.22,-378.56 295.81,-383.07 296.53,-376.11"/>
</g>
<!-- Node4 -->
<g id="node5" class="node">
<title>Node4</title>
<g id="a_node5"><a xlink:href="classcom_1_1tw_1_1paintbots_1_1_none_player.xhtml" target="_top" xlink:title=" ">
<polygon fill="white" stroke="black" points="341,-344 341,-363 484,-363 484,-344 341,-344"/>
<text text-anchor="middle" x="412.5" y="-351" font-family="Helvetica,sans-Serif" font-size="10.00">com.tw.paintbots.NonePlayer</text>
</a>
</g>
</g>
<!-- Node1&#45;&gt;Node4 -->
<g id="edge4" class="edge">
<title>Node1&#45;&gt;Node4</title>
<path fill="none" stroke="midnightblue" d="M296.58,-365.37C311.03,-363.88 326.28,-362.3 340.78,-360.8"/>
<polygon fill="midnightblue" stroke="midnightblue" points="295.81,-361.93 286.22,-366.44 296.53,-368.89 295.81,-361.93"/>
</g>
<!-- Node6 -->
<g id="node7" class="node">
<title>Node6</title>
<g id="a_node7"><a xlink:href="classcom_1_1tw_1_1paintbots_1_1_renderables_1_1_canvas.xhtml" target="_top" xlink:title=" ">
<polygon fill="white" stroke="black" points="338,-294.5 338,-324.5 487,-324.5 487,-294.5 338,-294.5"/>
<text text-anchor="start" x="346" y="-312.5" font-family="Helvetica,sans-Serif" font-size="10.00">com.tw.paintbots.Renderables.</text>
<text text-anchor="middle" x="412.5" y="-301.5" font-family="Helvetica,sans-Serif" font-size="10.00">Canvas</text>
</a>
</g>
</g>
<!-- Node5&#45;&gt;Node6 -->
<g id="edge6" class="edge">
<title>Node5&#45;&gt;Node6</title>
<path fill="none" stroke="midnightblue" d="M293.68,-278.12C313.81,-283.48 335.73,-289.32 355.15,-294.49"/>
<polygon fill="midnightblue" stroke="midnightblue" points="294.52,-274.73 283.96,-275.53 292.72,-281.49 294.52,-274.73"/>
</g>
<!-- Node7 -->
<g id="node8" class="node">
<title>Node7</title>
<g id="a_node8"><a xlink:href="classcom_1_1tw_1_1paintbots_1_1_renderables_1_1_multi_layer_renderable.xhtml" target="_top" xlink:title=" ">
<polygon fill="white" stroke="black" points="338,-245.5 338,-275.5 487,-275.5 487,-245.5 338,-245.5"/>
<text text-anchor="start" x="346" y="-263.5" font-family="Helvetica,sans-Serif" font-size="10.00">com.tw.paintbots.Renderables.</text>
<text text-anchor="middle" x="412.5" y="-252.5" font-family="Helvetica,sans-Serif" font-size="10.00">MultiLayerRenderable</text>
</a>
</g>
</g>
<!-- Node5&#45;&gt;Node7 -->
<g id="edge7" class="edge">
<title>Node5&#45;&gt;Node7</title>
<path fill="none" stroke="midnightblue" d="M311.03,-260.5C319.96,-260.5 329,-260.5 337.8,-260.5"/>
<polygon fill="midnightblue" stroke="midnightblue" points="311.01,-257 301.01,-260.5 311.01,-264 311.01,-257"/>
</g>
<!-- Node8 -->
<g id="node9" class="node">
<title>Node8</title>
<g id="a_node9"><a xlink:href="classcom_1_1tw_1_1paintbots_1_1_renderables_1_1_simple_renderable.xhtml" target="_top" xlink:title=" ">
<polygon fill="white" stroke="black" points="338,-196.5 338,-226.5 487,-226.5 487,-196.5 338,-196.5"/>
<text text-anchor="start" x="346" y="-214.5" font-family="Helvetica,sans-Serif" font-size="10.00">com.tw.paintbots.Renderables.</text>
<text text-anchor="middle" x="412.5" y="-203.5" font-family="Helvetica,sans-Serif" font-size="10.00">SimpleRenderable</text>
</a>
</g>
</g>
<!-- Node5&#45;&gt;Node8 -->
<g id="edge8" class="edge">
<title>Node5&#45;&gt;Node8</title>
<path fill="none" stroke="midnightblue" d="M293.68,-242.88C313.81,-237.52 335.73,-231.68 355.15,-226.51"/>
<polygon fill="midnightblue" stroke="midnightblue" points="292.72,-239.51 283.96,-245.47 294.52,-246.27 292.72,-239.51"/>
</g>
<!-- Node18 -->
<g id="node19" class="node">
<title>Node18</title>
<g id="a_node19"><a xlink:href="classcom_1_1tw_1_1paintbots_1_1_renderables_1_1_texture_grid.xhtml" target="_top" xlink:title=" ">
<polygon fill="white" stroke="black" points="338,-49.5 338,-79.5 487,-79.5 487,-49.5 338,-49.5"/>
<text text-anchor="start" x="346" y="-67.5" font-family="Helvetica,sans-Serif" font-size="10.00">com.tw.paintbots.Renderables.</text>
<text text-anchor="middle" x="412.5" y="-56.5" font-family="Helvetica,sans-Serif" font-size="10.00">TextureGrid</text>
</a>
</g>
</g>
<!-- Node5&#45;&gt;Node18 -->
<g id="edge18" class="edge">
<title>Node5&#45;&gt;Node18</title>
<path fill="none" stroke="midnightblue" d="M248.65,-237.97C286.57,-197.58 365.16,-113.86 397.32,-79.61"/>
<polygon fill="midnightblue" stroke="midnightblue" points="245.93,-235.76 241.63,-245.45 251.03,-240.55 245.93,-235.76"/>
</g>
<!-- Node9 -->
<g id="node10" class="node">
<title>Node9</title>
<g id="a_node10"><a xlink:href="classcom_1_1tw_1_1paintbots_1_1_items_1_1_item.xhtml" target="_top" xlink:title=" ">
<polygon fill="white" stroke="black" points="529,-347 529,-366 668,-366 668,-347 529,-347"/>
<text text-anchor="middle" x="598.5" y="-354" font-family="Helvetica,sans-Serif" font-size="10.00">com.tw.paintbots.Items.Item</text>
</a>
</g>
</g>
<!-- Node8&#45;&gt;Node9 -->
<g id="edge9" class="edge">
<title>Node8&#45;&gt;Node9</title>
<path fill="none" stroke="midnightblue" d="M482.82,-232.04C484.64,-233.43 486.37,-234.92 488,-236.5 521.27,-268.84 490.2,-302.71 524,-334.5 529.63,-339.79 536.48,-343.82 543.71,-346.88"/>
<polygon fill="midnightblue" stroke="midnightblue" points="484.68,-229.07 474.39,-226.53 480.85,-234.93 484.68,-229.07"/>
</g>
<!-- Node11 -->
<g id="node12" class="node">
<title>Node11</title>
<g id="a_node12"><a xlink:href="classcom_1_1tw_1_1paintbots_1_1_renderables_1_1_animated_renderable.xhtml" target="_top" xlink:title=" ">
<polygon fill="white" stroke="black" points="524,-294.5 524,-324.5 673,-324.5 673,-294.5 524,-294.5"/>
<text text-anchor="start" x="532" y="-312.5" font-family="Helvetica,sans-Serif" font-size="10.00">com.tw.paintbots.Renderables.</text>
<text text-anchor="middle" x="598.5" y="-301.5" font-family="Helvetica,sans-Serif" font-size="10.00">AnimatedRenderable</text>
</a>
</g>
</g>
<!-- Node8&#45;&gt;Node11 -->
<g id="edge11" class="edge">
<title>Node8&#45;&gt;Node11</title>
<path fill="none" stroke="midnightblue" d="M479.64,-231.13C482.55,-232.78 485.36,-234.57 488,-236.5 509.83,-252.43 502.11,-269.66 524,-285.5 528.68,-288.88 533.86,-291.81 539.24,-294.33"/>
<polygon fill="midnightblue" stroke="midnightblue" points="481.15,-227.97 470.65,-226.55 477.97,-234.2 481.15,-227.97"/>
</g>
<!-- Node14 -->
<g id="node15" class="node">
<title>Node14</title>
<g id="a_node15"><a xlink:href="classcom_1_1tw_1_1paintbots_1_1_renderables_1_1_repeated_renderable.xhtml" target="_top" xlink:title=" ">
<polygon fill="white" stroke="black" points="524,-245.5 524,-275.5 673,-275.5 673,-245.5 524,-245.5"/>
<text text-anchor="start" x="532" y="-263.5" font-family="Helvetica,sans-Serif" font-size="10.00">com.tw.paintbots.Renderables.</text>
<text text-anchor="middle" x="598.5" y="-252.5" font-family="Helvetica,sans-Serif" font-size="10.00">RepeatedRenderable</text>
</a>
</g>
</g>
<!-- Node8&#45;&gt;Node14 -->
<g id="edge14" class="edge">
<title>Node8&#45;&gt;Node14</title>
<path fill="none" stroke="midnightblue" d="M479.68,-229.12C499.81,-234.48 521.73,-240.32 541.15,-245.49"/>
<polygon fill="midnightblue" stroke="midnightblue" points="480.52,-225.73 469.96,-226.53 478.72,-232.49 480.52,-225.73"/>
</g>
<!-- Node15 -->
<g id="node16" class="node">
<title>Node15</title>
<g id="a_node16"><a xlink:href="classcom_1_1tw_1_1paintbots_1_1_renderables_1_1_u_i_menu_item.xhtml" target="_top" xlink:title=" ">
<polygon fill="white" stroke="black" points="524,-196.5 524,-226.5 673,-226.5 673,-196.5 524,-196.5"/>
<text text-anchor="start" x="532" y="-214.5" font-family="Helvetica,sans-Serif" font-size="10.00">com.tw.paintbots.Renderables.</text>
<text text-anchor="middle" x="598.5" y="-203.5" font-family="Helvetica,sans-Serif" font-size="10.00">UIMenuItem</text>
</a>
</g>
</g>
<!-- Node8&#45;&gt;Node15 -->
<g id="edge15" class="edge">
<title>Node8&#45;&gt;Node15</title>
<path fill="none" stroke="midnightblue" d="M497.03,-211.5C505.96,-211.5 515,-211.5 523.8,-211.5"/>
<polygon fill="midnightblue" stroke="midnightblue" points="497.01,-208 487.01,-211.5 497.01,-215 497.01,-208"/>
</g>
<!-- Node16 -->
<g id="node17" class="node">
<title>Node16</title>
<g id="a_node17"><a xlink:href="classcom_1_1tw_1_1paintbots_1_1_renderables_1_1_u_i_player_board.xhtml" target="_top" xlink:title=" ">
<polygon fill="white" stroke="black" points="524,-147.5 524,-177.5 673,-177.5 673,-147.5 524,-147.5"/>
<text text-anchor="start" x="532" y="-165.5" font-family="Helvetica,sans-Serif" font-size="10.00">com.tw.paintbots.Renderables.</text>
<text text-anchor="middle" x="598.5" y="-154.5" font-family="Helvetica,sans-Serif" font-size="10.00">UIPlayerBoard</text>
</a>
</g>
</g>
<!-- Node8&#45;&gt;Node16 -->
<g id="edge16" class="edge">
<title>Node8&#45;&gt;Node16</title>
<path fill="none" stroke="midnightblue" d="M479.68,-193.88C499.81,-188.52 521.73,-182.68 541.15,-177.51"/>
<polygon fill="midnightblue" stroke="midnightblue" points="478.72,-190.51 469.96,-196.47 480.52,-197.27 478.72,-190.51"/>
</g>
<!-- Node17 -->
<g id="node18" class="node">
<title>Node17</title>
<g id="a_node18"><a xlink:href="classcom_1_1tw_1_1paintbots_1_1_renderables_1_1_u_i_timer.xhtml" target="_top" xlink:title=" ">
<polygon fill="white" stroke="black" points="524,-98.5 524,-128.5 673,-128.5 673,-98.5 524,-98.5"/>
<text text-anchor="start" x="532" y="-116.5" font-family="Helvetica,sans-Serif" font-size="10.00">com.tw.paintbots.Renderables.</text>
<text text-anchor="middle" x="598.5" y="-105.5" font-family="Helvetica,sans-Serif" font-size="10.00">UITimer</text>
</a>
</g>
</g>
<!-- Node8&#45;&gt;Node17 -->
<g id="edge17" class="edge">
<title>Node8&#45;&gt;Node17</title>
<path fill="none" stroke="midnightblue" d="M441.02,-190.43C462.69,-174.58 494.11,-153.15 524,-138.5 531.38,-134.88 539.42,-131.57 547.38,-128.62"/>
<polygon fill="midnightblue" stroke="midnightblue" points="438.89,-187.66 432.94,-196.42 443.06,-193.28 438.89,-187.66"/>
</g>
<!-- Node10 -->
<g id="node11" class="node">
<title>Node10</title>
<g id="a_node11"><a xlink:href="classcom_1_1tw_1_1paintbots_1_1_items_1_1_refill_place_base.xhtml" target="_top" xlink:title=" ">
<polygon fill="white" stroke="black" points="713.5,-343.5 713.5,-373.5 853.5,-373.5 853.5,-343.5 713.5,-343.5"/>
<text text-anchor="start" x="721.5" y="-361.5" font-family="Helvetica,sans-Serif" font-size="10.00">com.tw.paintbots.Items.Refill</text>
<text text-anchor="middle" x="783.5" y="-350.5" font-family="Helvetica,sans-Serif" font-size="10.00">PlaceBase</text>
</a>
</g>
</g>
<!-- Node9&#45;&gt;Node10 -->
<g id="edge10" class="edge">
<title>Node9&#45;&gt;Node10</title>
<path fill="none" stroke="midnightblue" d="M678.34,-357.36C690.02,-357.49 701.99,-357.62 713.45,-357.75"/>
<polygon fill="midnightblue" stroke="midnightblue" points="678.2,-353.86 668.16,-357.25 678.12,-360.86 678.2,-353.86"/>
</g>
<!-- Node12 -->
<g id="node13" class="node">
<title>Node12</title>
<g id="a_node13"><a xlink:href="classcom_1_1tw_1_1paintbots_1_1_renderables_1_1_direction_indicator.xhtml" target="_top" xlink:title=" ">
<polygon fill="white" stroke="black" points="709,-294.5 709,-324.5 858,-324.5 858,-294.5 709,-294.5"/>
<text text-anchor="start" x="717" y="-312.5" font-family="Helvetica,sans-Serif" font-size="10.00">com.tw.paintbots.Renderables.</text>
<text text-anchor="middle" x="783.5" y="-301.5" font-family="Helvetica,sans-Serif" font-size="10.00">DirectionIndicator</text>
</a>
</g>
</g>
<!-- Node11&#45;&gt;Node12 -->
<g id="edge12" class="edge">
<title>Node11&#45;&gt;Node12</title>
<path fill="none" stroke="midnightblue" d="M683.39,-309.5C691.84,-309.5 700.38,-309.5 708.71,-309.5"/>
<polygon fill="midnightblue" stroke="midnightblue" points="683.14,-306 673.14,-309.5 683.14,-313 683.14,-306"/>
</g>
<!-- Node13 -->
<g id="node14" class="node">
<title>Node13</title>
<g id="a_node14"><a xlink:href="classcom_1_1tw_1_1paintbots_1_1_renderables_1_1_player_animation.xhtml" target="_top" xlink:title=" ">
<polygon fill="white" stroke="black" points="709,-245.5 709,-275.5 858,-275.5 858,-245.5 709,-245.5"/>
<text text-anchor="start" x="717" y="-263.5" font-family="Helvetica,sans-Serif" font-size="10.00">com.tw.paintbots.Renderables.</text>
<text text-anchor="middle" x="783.5" y="-252.5" font-family="Helvetica,sans-Serif" font-size="10.00">PlayerAnimation</text>
</a>
</g>
</g>
<!-- Node11&#45;&gt;Node13 -->
<g id="edge13" class="edge">
<title>Node11&#45;&gt;Node13</title>
<path fill="none" stroke="midnightblue" d="M665.79,-291.75C685.62,-286.44 707.17,-280.67 726.29,-275.55"/>
<polygon fill="midnightblue" stroke="midnightblue" points="664.65,-288.43 655.9,-294.4 666.46,-295.19 664.65,-288.43"/>
</g>
<!-- Node19 -->
<g id="node20" class="node">
<title>Node19</title>
<g id="a_node20"><a xlink:href="classcom_1_1tw_1_1paintbots_1_1_renderables_1_1_u_i_color_bar.xhtml" target="_top" xlink:title=" ">
<polygon fill="white" stroke="black" points="524,-49.5 524,-79.5 673,-79.5 673,-49.5 524,-49.5"/>
<text text-anchor="start" x="532" y="-67.5" font-family="Helvetica,sans-Serif" font-size="10.00">com.tw.paintbots.Renderables.</text>
<text text-anchor="middle" x="598.5" y="-56.5" font-family="Helvetica,sans-Serif" font-size="10.00">UIColorBar</text>
</a>
</g>
</g>
<!-- Node18&#45;&gt;Node19 -->
<g id="edge19" class="edge">
<title>Node18&#45;&gt;Node19</title>
<path fill="none" stroke="midnightblue" d="M497.03,-64.5C505.96,-64.5 515,-64.5 523.8,-64.5"/>
<polygon fill="midnightblue" stroke="midnightblue" points="497.01,-61 487.01,-64.5 497.01,-68 497.01,-61"/>
</g>
<!-- Node20 -->
<g id="node21" class="node">
<title>Node20</title>
<g id="a_node21"><a xlink:href="classcom_1_1tw_1_1paintbots_1_1_renderables_1_1_u_i_digit.xhtml" target="_top" xlink:title=" ">
<polygon fill="white" stroke="black" points="524,-0.5 524,-30.5 673,-30.5 673,-0.5 524,-0.5"/>
<text text-anchor="start" x="532" y="-18.5" font-family="Helvetica,sans-Serif" font-size="10.00">com.tw.paintbots.Renderables.</text>
<text text-anchor="middle" x="598.5" y="-7.5" font-family="Helvetica,sans-Serif" font-size="10.00">UIDigit</text>
</a>
</g>
</g>
<!-- Node18&#45;&gt;Node20 -->
<g id="edge20" class="edge">
<title>Node18&#45;&gt;Node20</title>
<path fill="none" stroke="midnightblue" d="M479.68,-46.88C499.81,-41.52 521.73,-35.68 541.15,-30.51"/>
<polygon fill="midnightblue" stroke="midnightblue" points="478.72,-43.51 469.96,-49.47 480.52,-50.27 478.72,-43.51"/>
</g>
<!-- Node21 -->
<g id="node22" class="node">
<title>Node21</title>
<g id="a_node22"><a xlink:href="classcom_1_1tw_1_1paintbots_1_1_renderables_1_1_start_timer.xhtml" target="_top" xlink:title=" ">
<polygon fill="white" stroke="black" points="709,-0.5 709,-30.5 858,-30.5 858,-0.5 709,-0.5"/>
<text text-anchor="start" x="717" y="-18.5" font-family="Helvetica,sans-Serif" font-size="10.00">com.tw.paintbots.Renderables.</text>
<text text-anchor="middle" x="783.5" y="-7.5" font-family="Helvetica,sans-Serif" font-size="10.00">StartTimer</text>
</a>
</g>
</g>
<!-- Node20&#45;&gt;Node21 -->
<g id="edge21" class="edge">
<title>Node20&#45;&gt;Node21</title>
<path fill="none" stroke="midnightblue" d="M683.39,-15.5C691.84,-15.5 700.38,-15.5 708.71,-15.5"/>
<polygon fill="midnightblue" stroke="midnightblue" points="683.14,-12 673.14,-15.5 683.14,-19 683.14,-12"/>
</g>
</g>
</svg>
