<?xml version="1.0" encoding="UTF-8" standalone="no"?>
<!DOCTYPE svg PUBLIC "-//W3C//DTD SVG 1.1//EN"
 "http://www.w3.org/Graphics/SVG/1.1/DTD/svg11.dtd">
<!-- Generated by graphviz version 2.49.3 (20211027.1534)
 -->
<!-- Title: Graphical Class Hierarchy Pages: 1 -->
<svg width="866pt" height="472pt"
 viewBox="0.00 0.00 866.00 471.50" xmlns="http://www.w3.org/2000/svg" xmlns:xlink="http://www.w3.org/1999/xlink">
<g id="graph0" class="graph" transform="scale(1 1) rotate(0) translate(4 467.5)">
<title>Graphical Class Hierarchy</title>
<polygon fill="white" stroke="transparent" points="-4,4 -4,-467.5 862,-467.5 862,4 -4,4"/>
<!-- Node0 -->
<g id="node1" class="node">
<title>Node0</title>
<g id="a_node1"><a xlink:href="classcom_1_1tw_1_1paintbots_1_1_entity.xhtml" target="_top" xlink:title=" ">
<polygon fill="white" stroke="black" points="0,-321 0,-340 116,-340 116,-321 0,-321"/>
<text text-anchor="middle" x="58" y="-328" font-family="Helvetica,sans-Serif" font-size="10.00">com.tw.paintbots.Entity</text>
</a>
</g>
</g>
<!-- Node1 -->
<g id="node2" class="node">
<title>Node1</title>
<g id="a_node2"><a xlink:href="classcom_1_1tw_1_1paintbots_1_1_player.xhtml" target="_top" xlink:title=" ">
<polygon fill="white" stroke="black" points="167,-387 167,-406 286,-406 286,-387 167,-387"/>
<text text-anchor="middle" x="226.5" y="-394" font-family="Helvetica,sans-Serif" font-size="10.00">com.tw.paintbots.Player</text>
</a>
</g>
</g>
<!-- Node0&#45;&gt;Node1 -->
<g id="edge1" class="edge">
<title>Node0&#45;&gt;Node1</title>
<path fill="none" stroke="midnightblue" d="M92.69,-343.86C125,-356.66 172.95,-375.67 201.53,-387"/>
<polygon fill="midnightblue" stroke="midnightblue" points="93.8,-340.53 83.21,-340.1 91.22,-347.04 93.8,-340.53"/>
</g>
<!-- Node5 -->
<g id="node6" class="node">
<title>Node5</title>
<g id="a_node6"><a xlink:href="classcom_1_1tw_1_1paintbots_1_1_renderables_1_1_renderable.xhtml" target="_top" xlink:title=" ">
<polygon fill="white" stroke="black" points="152,-269.5 152,-299.5 301,-299.5 301,-269.5 152,-269.5"/>
<text text-anchor="start" x="160" y="-287.5" font-family="Helvetica,sans-Serif" font-size="10.00">com.tw.paintbots.Renderables.</text>
<text text-anchor="middle" x="226.5" y="-276.5" font-family="Helvetica,sans-Serif" font-size="10.00">Renderable</text>
</a>
</g>
</g>
<!-- Node0&#45;&gt;Node5 -->
<g id="edge5" class="edge">
<title>Node0&#45;&gt;Node5</title>
<path fill="none" stroke="midnightblue" d="M103.34,-318.25C124.14,-312.5 149.12,-305.6 171.05,-299.54"/>
<polygon fill="midnightblue" stroke="midnightblue" points="102.21,-314.93 93.5,-320.97 104.07,-321.68 102.21,-314.93"/>
</g>
<!-- Node2 -->
<g id="node3" class="node">
<title>Node2</title>
<g id="a_node3"><a xlink:href="classcom_1_1tw_1_1paintbots_1_1_a_i_player.xhtml" target="_top" xlink:title=" ">
<polygon fill="white" stroke="black" points="348,-444 348,-463 477,-463 477,-444 348,-444"/>
<text text-anchor="middle" x="412.5" y="-451" font-family="Helvetica,sans-Serif" font-size="10.00">com.tw.paintbots.AIPlayer</text>
</a>
</g>
</g>
<!-- Node1&#45;&gt;Node2 -->
<g id="edge2" class="edge">
<title>Node1&#45;&gt;Node2</title>
<path fill="none" stroke="midnightblue" d="M262.58,-409.52C283.95,-417.24 311.88,-426.95 337,-434.5 348.12,-437.84 360.29,-441.11 371.51,-443.96"/>
<polygon fill="midnightblue" stroke="midnightblue" points="263.56,-406.15 252.97,-406.02 261.17,-412.73 263.56,-406.15"/>
</g>
<!-- Node3 -->
<g id="node4" class="node">
<title>Node3</title>
<g id="a_node4"><a xlink:href="classcom_1_1tw_1_1paintbots_1_1_human_player.xhtml" target="_top" xlink:title=" ">
<polygon fill="white" stroke="black" points="337,-406 337,-425 488,-425 488,-406 337,-406"/>
<text text-anchor="middle" x="412.5" y="-413" font-family="Helvetica,sans-Serif" font-size="10.00">com.tw.paintbots.HumanPlayer</text>
</a>
</g>
</g>
<!-- Node1&#45;&gt;Node3 -->
<g id="edge3" class="edge">
<title>Node1&#45;&gt;Node3</title>
<path fill="none" stroke="midnightblue" d="M296.2,-403.59C309.46,-404.96 323.4,-406.4 336.83,-407.79"/>
<polygon fill="midnightblue" stroke="midnightblue" points="296.53,-400.11 286.22,-402.56 295.81,-407.07 296.53,-400.11"/>
</g>
<!-- Node4 -->
<g id="node5" class="node">
<title>Node4</title>
<g id="a_node5"><a xlink:href="classcom_1_1tw_1_1paintbots_1_1_none_player.xhtml" target="_top" xlink:title=" ">
<polygon fill="white" stroke="black" points="341,-368 341,-387 484,-387 484,-368 341,-368"/>
<text text-anchor="middle" x="412.5" y="-375" font-family="Helvetica,sans-Serif" font-size="10.00">com.tw.paintbots.NonePlayer</text>
</a>
</g>
</g>
<!-- Node1&#45;&gt;Node4 -->
<g id="edge4" class="edge">
<title>Node1&#45;&gt;Node4</title>
<path fill="none" stroke="midnightblue" d="M296.58,-389.37C311.03,-387.88 326.28,-386.3 340.78,-384.8"/>
<polygon fill="midnightblue" stroke="midnightblue" points="295.81,-385.93 286.22,-390.44 296.53,-392.89 295.81,-385.93"/>
</g>
<!-- Node6 -->
<g id="node7" class="node">
<title>Node6</title>
<g id="a_node7"><a xlink:href="classcom_1_1tw_1_1paintbots_1_1_renderables_1_1_canvas.xhtml" target="_top" xlink:title=" ">
<polygon fill="white" stroke="black" points="338,-318.5 338,-348.5 487,-348.5 487,-318.5 338,-318.5"/>
<text text-anchor="start" x="346" y="-336.5" font-family="Helvetica,sans-Serif" font-size="10.00">com.tw.paintbots.Renderables.</text>
<text text-anchor="middle" x="412.5" y="-325.5" font-family="Helvetica,sans-Serif" font-size="10.00">Canvas</text>
</a>
</g>
</g>
<!-- Node5&#45;&gt;Node6 -->
<g id="edge6" class="edge">
<title>Node5&#45;&gt;Node6</title>
<path fill="none" stroke="midnightblue" d="M293.68,-302.12C313.81,-307.48 335.73,-313.32 355.15,-318.49"/>
<polygon fill="midnightblue" stroke="midnightblue" points="294.52,-298.73 283.96,-299.53 292.72,-305.49 294.52,-298.73"/>
</g>
<!-- Node7 -->
<g id="node8" class="node">
<title>Node7</title>
<g id="a_node8"><a xlink:href="classcom_1_1tw_1_1paintbots_1_1_renderables_1_1_multi_layer_renderable.xhtml" target="_top" xlink:title=" ">
<polygon fill="white" stroke="black" points="338,-269.5 338,-299.5 487,-299.5 487,-269.5 338,-269.5"/>
<text text-anchor="start" x="346" y="-287.5" font-family="Helvetica,sans-Serif" font-size="10.00">com.tw.paintbots.Renderables.</text>
<text text-anchor="middle" x="412.5" y="-276.5" font-family="Helvetica,sans-Serif" font-size="10.00">MultiLayerRenderable</text>
</a>
</g>
</g>
<!-- Node5&#45;&gt;Node7 -->
<g id="edge7" class="edge">
<title>Node5&#45;&gt;Node7</title>
<path fill="none" stroke="midnightblue" d="M311.03,-284.5C319.96,-284.5 329,-284.5 337.8,-284.5"/>
<polygon fill="midnightblue" stroke="midnightblue" points="311.01,-281 301.01,-284.5 311.01,-288 311.01,-281"/>
</g>
<!-- Node8 -->
<g id="node9" class="node">
<title>Node8</title>
<g id="a_node9"><a xlink:href="classcom_1_1tw_1_1paintbots_1_1_renderables_1_1_simple_renderable.xhtml" target="_top" xlink:title=" ">
<polygon fill="white" stroke="black" points="338,-220.5 338,-250.5 487,-250.5 487,-220.5 338,-220.5"/>
<text text-anchor="start" x="346" y="-238.5" font-family="Helvetica,sans-Serif" font-size="10.00">com.tw.paintbots.Renderables.</text>
<text text-anchor="middle" x="412.5" y="-227.5" font-family="Helvetica,sans-Serif" font-size="10.00">SimpleRenderable</text>
</a>
</g>
</g>
<!-- Node5&#45;&gt;Node8 -->
<g id="edge8" class="edge">
<title>Node5&#45;&gt;Node8</title>
<path fill="none" stroke="midnightblue" d="M293.68,-266.88C313.81,-261.52 335.73,-255.68 355.15,-250.51"/>
<polygon fill="midnightblue" stroke="midnightblue" points="292.72,-263.51 283.96,-269.47 294.52,-270.27 292.72,-263.51"/>
</g>
<!-- Node19 -->
<g id="node20" class="node">
<title>Node19</title>
<g id="a_node20"><a xlink:href="classcom_1_1tw_1_1paintbots_1_1_renderables_1_1_texture_grid.xhtml" target="_top" xlink:title=" ">
<polygon fill="white" stroke="black" points="338,-49.5 338,-79.5 487,-79.5 487,-49.5 338,-49.5"/>
<text text-anchor="start" x="346" y="-67.5" font-family="Helvetica,sans-Serif" font-size="10.00">com.tw.paintbots.Renderables.</text>
<text text-anchor="middle" x="412.5" y="-56.5" font-family="Helvetica,sans-Serif" font-size="10.00">TextureGrid</text>
</a>
</g>
</g>
<!-- Node5&#45;&gt;Node19 -->
<g id="edge19" class="edge">
<title>Node5&#45;&gt;Node19</title>
<path fill="none" stroke="midnightblue" d="M246.63,-261.63C284.26,-216.63 367.03,-117.68 398.76,-79.73"/>
<polygon fill="midnightblue" stroke="midnightblue" points="243.88,-259.46 240.15,-269.38 249.25,-263.95 243.88,-259.46"/>
</g>
<!-- Node9 -->
<g id="node10" class="node">
<title>Node9</title>
<g id="a_node10"><a xlink:href="classcom_1_1tw_1_1paintbots_1_1_items_1_1_item.xhtml" target="_top" xlink:title=" ">
<polygon fill="white" stroke="black" points="529,-396 529,-415 668,-415 668,-396 529,-396"/>
<text text-anchor="middle" x="598.5" y="-403" font-family="Helvetica,sans-Serif" font-size="10.00">com.tw.paintbots.Items.Item</text>
</a>
</g>
</g>
<!-- Node8&#45;&gt;Node9 -->
<g id="edge9" class="edge">
<title>Node8&#45;&gt;Node9</title>
<path fill="none" stroke="midnightblue" d="M483.61,-256.43C485.15,-257.71 486.62,-259.06 488,-260.5 527.48,-301.56 483.85,-343.1 524,-383.5 529.26,-388.79 535.73,-392.82 542.64,-395.88"/>
<polygon fill="midnightblue" stroke="midnightblue" points="485.59,-253.54 475.39,-250.67 481.57,-259.27 485.59,-253.54"/>
</g>
<!-- Node11 -->
<g id="node12" class="node">
<title>Node11</title>
<g id="a_node12"><a xlink:href="classcom_1_1tw_1_1paintbots_1_1_renderables_1_1_animated_renderable.xhtml" target="_top" xlink:title=" ">
<polygon fill="white" stroke="black" points="524,-343.5 524,-373.5 673,-373.5 673,-343.5 524,-343.5"/>
<text text-anchor="start" x="532" y="-361.5" font-family="Helvetica,sans-Serif" font-size="10.00">com.tw.paintbots.Renderables.</text>
<text text-anchor="middle" x="598.5" y="-350.5" font-family="Helvetica,sans-Serif" font-size="10.00">AnimatedRenderable</text>
</a>
</g>
</g>
<!-- Node8&#45;&gt;Node11 -->
<g id="edge11" class="edge">
<title>Node8&#45;&gt;Node11</title>
<path fill="none" stroke="midnightblue" d="M481.89,-255.75C484.02,-257.23 486.07,-258.81 488,-260.5 515.48,-284.64 496.43,-310.47 524,-334.5 527.95,-337.94 532.4,-340.89 537.11,-343.42"/>
<polygon fill="midnightblue" stroke="midnightblue" points="483.63,-252.71 473.25,-250.58 480.03,-258.72 483.63,-252.71"/>
</g>
<!-- Node14 -->
<g id="node15" class="node">
<title>Node14</title>
<g id="a_node15"><a xlink:href="classcom_1_1tw_1_1paintbots_1_1_renderables_1_1_repeated_renderable.xhtml" target="_top" xlink:title=" ">
<polygon fill="white" stroke="black" points="524,-294.5 524,-324.5 673,-324.5 673,-294.5 524,-294.5"/>
<text text-anchor="start" x="532" y="-312.5" font-family="Helvetica,sans-Serif" font-size="10.00">com.tw.paintbots.Renderables.</text>
<text text-anchor="middle" x="598.5" y="-301.5" font-family="Helvetica,sans-Serif" font-size="10.00">RepeatedRenderable</text>
</a>
</g>
</g>
<!-- Node8&#45;&gt;Node14 -->
<g id="edge14" class="edge">
<title>Node8&#45;&gt;Node14</title>
<path fill="none" stroke="midnightblue" d="M474.42,-254.33C479.08,-256.26 483.66,-258.32 488,-260.5 505.41,-269.24 506.56,-276.83 524,-285.5 530.61,-288.79 537.77,-291.77 544.95,-294.42"/>
<polygon fill="midnightblue" stroke="midnightblue" points="475.36,-250.95 464.78,-250.56 472.82,-257.47 475.36,-250.95"/>
</g>
<!-- Node15 -->
<g id="node16" class="node">
<title>Node15</title>
<g id="a_node16"><a xlink:href="classcom_1_1tw_1_1paintbots_1_1_renderables_1_1_u_i_menu_item.xhtml" target="_top" xlink:title=" ">
<polygon fill="white" stroke="black" points="524,-245.5 524,-275.5 673,-275.5 673,-245.5 524,-245.5"/>
<text text-anchor="start" x="532" y="-263.5" font-family="Helvetica,sans-Serif" font-size="10.00">com.tw.paintbots.Renderables.</text>
<text text-anchor="middle" x="598.5" y="-252.5" font-family="Helvetica,sans-Serif" font-size="10.00">UIMenuItem</text>
</a>
</g>
</g>
<!-- Node8&#45;&gt;Node15 -->
<g id="edge15" class="edge">
<title>Node8&#45;&gt;Node15</title>
<path fill="none" stroke="midnightblue" d="M497.03,-246.85C505.96,-248.06 515,-249.29 523.8,-250.49"/>
<polygon fill="midnightblue" stroke="midnightblue" points="497.4,-243.37 487.01,-245.49 496.45,-250.3 497.4,-243.37"/>
</g>
<!-- Node16 -->
<g id="node17" class="node">
<title>Node16</title>
<g id="a_node17"><a xlink:href="classcom_1_1tw_1_1paintbots_1_1_renderables_1_1_u_i_player_board.xhtml" target="_top" xlink:title=" ">
<polygon fill="white" stroke="black" points="524,-196.5 524,-226.5 673,-226.5 673,-196.5 524,-196.5"/>
<text text-anchor="start" x="532" y="-214.5" font-family="Helvetica,sans-Serif" font-size="10.00">com.tw.paintbots.Renderables.</text>
<text text-anchor="middle" x="598.5" y="-203.5" font-family="Helvetica,sans-Serif" font-size="10.00">UIPlayerBoard</text>
</a>
</g>
</g>
<!-- Node8&#45;&gt;Node16 -->
<g id="edge16" class="edge">
<title>Node8&#45;&gt;Node16</title>
<path fill="none" stroke="midnightblue" d="M497.03,-224.6C505.96,-223.44 515,-222.26 523.8,-221.11"/>
<polygon fill="midnightblue" stroke="midnightblue" points="496.48,-221.15 487.01,-225.91 497.38,-228.09 496.48,-221.15"/>
</g>
<!-- Node17 -->
<g id="node18" class="node">
<title>Node17</title>
<g id="a_node18"><a xlink:href="classcom_1_1tw_1_1paintbots_1_1_renderables_1_1_u_i_result_board.xhtml" target="_top" xlink:title=" ">
<polygon fill="white" stroke="black" points="524,-147.5 524,-177.5 673,-177.5 673,-147.5 524,-147.5"/>
<text text-anchor="start" x="532" y="-165.5" font-family="Helvetica,sans-Serif" font-size="10.00">com.tw.paintbots.Renderables.</text>
<text text-anchor="middle" x="598.5" y="-154.5" font-family="Helvetica,sans-Serif" font-size="10.00">UIResultBoard</text>
</a>
</g>
</g>
<!-- Node8&#45;&gt;Node17 -->
<g id="edge17" class="edge">
<title>Node8&#45;&gt;Node17</title>
<path fill="none" stroke="midnightblue" d="M455.91,-216.11C476.33,-207.02 501.26,-196.29 524,-187.5 532.8,-184.1 542.28,-180.69 551.42,-177.53"/>
<polygon fill="midnightblue" stroke="midnightblue" points="454.27,-213.01 446.57,-220.29 457.13,-219.4 454.27,-213.01"/>
</g>
<!-- Node18 -->
<g id="node19" class="node">
<title>Node18</title>
<g id="a_node19"><a xlink:href="classcom_1_1tw_1_1paintbots_1_1_renderables_1_1_u_i_timer.xhtml" target="_top" xlink:title=" ">
<polygon fill="white" stroke="black" points="524,-98.5 524,-128.5 673,-128.5 673,-98.5 524,-98.5"/>
<text text-anchor="start" x="532" y="-116.5" font-family="Helvetica,sans-Serif" font-size="10.00">com.tw.paintbots.Renderables.</text>
<text text-anchor="middle" x="598.5" y="-105.5" font-family="Helvetica,sans-Serif" font-size="10.00">UITimer</text>
</a>
</g>
</g>
<!-- Node8&#45;&gt;Node18 -->
<g id="edge18" class="edge">
<title>Node8&#45;&gt;Node18</title>
<path fill="none" stroke="midnightblue" d="M434.12,-212.83C454.95,-191.12 488.96,-158.75 524,-138.5 530.53,-134.72 537.73,-131.4 544.98,-128.52"/>
<polygon fill="midnightblue" stroke="midnightblue" points="431.39,-210.63 427.07,-220.31 436.48,-215.43 431.39,-210.63"/>
</g>
<!-- Node10 -->
<g id="node11" class="node">
<title>Node10</title>
<g id="a_node11"><a xlink:href="classcom_1_1tw_1_1paintbots_1_1_items_1_1_refill_place_base.xhtml" target="_top" xlink:title=" ">
<polygon fill="white" stroke="black" points="713.5,-392.5 713.5,-422.5 853.5,-422.5 853.5,-392.5 713.5,-392.5"/>
<text text-anchor="start" x="721.5" y="-410.5" font-family="Helvetica,sans-Serif" font-size="10.00">com.tw.paintbots.Items.Refill</text>
<text text-anchor="middle" x="783.5" y="-399.5" font-family="Helvetica,sans-Serif" font-size="10.00">PlaceBase</text>
</a>
</g>
</g>
<!-- Node9&#45;&gt;Node10 -->
<g id="edge10" class="edge">
<title>Node9&#45;&gt;Node10</title>
<path fill="none" stroke="midnightblue" d="M678.34,-406.36C690.02,-406.49 701.99,-406.62 713.45,-406.75"/>
<polygon fill="midnightblue" stroke="midnightblue" points="678.2,-402.86 668.16,-406.25 678.12,-409.86 678.2,-402.86"/>
</g>
<!-- Node12 -->
<g id="node13" class="node">
<title>Node12</title>
<g id="a_node13"><a xlink:href="classcom_1_1tw_1_1paintbots_1_1_renderables_1_1_direction_indicator.xhtml" target="_top" xlink:title=" ">
<polygon fill="white" stroke="black" points="709,-343.5 709,-373.5 858,-373.5 858,-343.5 709,-343.5"/>
<text text-anchor="start" x="717" y="-361.5" font-family="Helvetica,sans-Serif" font-size="10.00">com.tw.paintbots.Renderables.</text>
<text text-anchor="middle" x="783.5" y="-350.5" font-family="Helvetica,sans-Serif" font-size="10.00">DirectionIndicator</text>
</a>
</g>
</g>
<!-- Node11&#45;&gt;Node12 -->
<g id="edge12" class="edge">
<title>Node11&#45;&gt;Node12</title>
<path fill="none" stroke="midnightblue" d="M683.39,-358.5C691.84,-358.5 700.38,-358.5 708.71,-358.5"/>
<polygon fill="midnightblue" stroke="midnightblue" points="683.14,-355 673.14,-358.5 683.14,-362 683.14,-355"/>
</g>
<!-- Node13 -->
<g id="node14" class="node">
<title>Node13</title>
<g id="a_node14"><a xlink:href="classcom_1_1tw_1_1paintbots_1_1_renderables_1_1_player_animation.xhtml" target="_top" xlink:title=" ">
<polygon fill="white" stroke="black" points="709,-294.5 709,-324.5 858,-324.5 858,-294.5 709,-294.5"/>
<text text-anchor="start" x="717" y="-312.5" font-family="Helvetica,sans-Serif" font-size="10.00">com.tw.paintbots.Renderables.</text>
<text text-anchor="middle" x="783.5" y="-301.5" font-family="Helvetica,sans-Serif" font-size="10.00">PlayerAnimation</text>
</a>
</g>
</g>
<!-- Node11&#45;&gt;Node13 -->
<g id="edge13" class="edge">
<title>Node11&#45;&gt;Node13</title>
<path fill="none" stroke="midnightblue" d="M665.79,-340.75C685.62,-335.44 707.17,-329.67 726.29,-324.55"/>
<polygon fill="midnightblue" stroke="midnightblue" points="664.65,-337.43 655.9,-343.4 666.46,-344.19 664.65,-337.43"/>
</g>
<!-- Node20 -->
<g id="node21" class="node">
<title>Node20</title>
<g id="a_node21"><a xlink:href="classcom_1_1tw_1_1paintbots_1_1_renderables_1_1_u_i_color_bar.xhtml" target="_top" xlink:title=" ">
<polygon fill="white" stroke="black" points="524,-49.5 524,-79.5 673,-79.5 673,-49.5 524,-49.5"/>
<text text-anchor="start" x="532" y="-67.5" font-family="Helvetica,sans-Serif" font-size="10.00">com.tw.paintbots.Renderables.</text>
<text text-anchor="middle" x="598.5" y="-56.5" font-family="Helvetica,sans-Serif" font-size="10.00">UIColorBar</text>
</a>
</g>
</g>
<!-- Node19&#45;&gt;Node20 -->
<g id="edge20" class="edge">
<title>Node19&#45;&gt;Node20</title>
<path fill="none" stroke="midnightblue" d="M497.03,-64.5C505.96,-64.5 515,-64.5 523.8,-64.5"/>
<polygon fill="midnightblue" stroke="midnightblue" points="497.01,-61 487.01,-64.5 497.01,-68 497.01,-61"/>
</g>
<!-- Node21 -->
<g id="node22" class="node">
<title>Node21</title>
<g id="a_node22"><a xlink:href="classcom_1_1tw_1_1paintbots_1_1_renderables_1_1_u_i_digit.xhtml" target="_top" xlink:title=" ">
<polygon fill="white" stroke="black" points="524,-0.5 524,-30.5 673,-30.5 673,-0.5 524,-0.5"/>
<text text-anchor="start" x="532" y="-18.5" font-family="Helvetica,sans-Serif" font-size="10.00">com.tw.paintbots.Renderables.</text>
<text text-anchor="middle" x="598.5" y="-7.5" font-family="Helvetica,sans-Serif" font-size="10.00">UIDigit</text>
</a>
</g>
</g>
<!-- Node19&#45;&gt;Node21 -->
<g id="edge21" class="edge">
<title>Node19&#45;&gt;Node21</title>
<path fill="none" stroke="midnightblue" d="M479.68,-46.88C499.81,-41.52 521.73,-35.68 541.15,-30.51"/>
<polygon fill="midnightblue" stroke="midnightblue" points="478.72,-43.51 469.96,-49.47 480.52,-50.27 478.72,-43.51"/>
</g>
<!-- Node22 -->
<g id="node23" class="node">
<title>Node22</title>
<g id="a_node23"><a xlink:href="classcom_1_1tw_1_1paintbots_1_1_renderables_1_1_start_timer.xhtml" target="_top" xlink:title=" ">
<polygon fill="white" stroke="black" points="709,-0.5 709,-30.5 858,-30.5 858,-0.5 709,-0.5"/>
<text text-anchor="start" x="717" y="-18.5" font-family="Helvetica,sans-Serif" font-size="10.00">com.tw.paintbots.Renderables.</text>
<text text-anchor="middle" x="783.5" y="-7.5" font-family="Helvetica,sans-Serif" font-size="10.00">StartTimer</text>
</a>
</g>
</g>
<!-- Node21&#45;&gt;Node22 -->
<g id="edge22" class="edge">
<title>Node21&#45;&gt;Node22</title>
<path fill="none" stroke="midnightblue" d="M683.39,-15.5C691.84,-15.5 700.38,-15.5 708.71,-15.5"/>
<polygon fill="midnightblue" stroke="midnightblue" points="683.14,-12 673.14,-15.5 683.14,-19 683.14,-12"/>
</g>
</g>
</svg>
