<?xml version="1.0" encoding="UTF-8" standalone="no"?>
<!DOCTYPE svg PUBLIC "-//W3C//DTD SVG 1.1//EN"
 "http://www.w3.org/Graphics/SVG/1.1/DTD/svg11.dtd">
<!-- Generated by graphviz version 2.49.3 (20211027.1534)
 -->
<!-- Title: Graphical Class Hierarchy Pages: 1 -->
<svg width="252pt" height="78pt"
 viewBox="0.00 0.00 252.00 77.50" xmlns="http://www.w3.org/2000/svg" xmlns:xlink="http://www.w3.org/1999/xlink">
<g id="graph0" class="graph" transform="scale(1 1) rotate(0) translate(4 73.5)">
<title>Graphical Class Hierarchy</title>
<polygon fill="white" stroke="transparent" points="-4,4 -4,-73.5 248,-73.5 248,4 -4,4"/>
<!-- Node4 -->
<g id="node1" class="node">
<title>Node4</title>
<g id="a_node1"><a xlink:title=" ">
<polygon fill="white" stroke="#bfbfbf" points="0,-28 0,-47 71,-47 71,-28 0,-28"/>
<text text-anchor="middle" x="35.5" y="-35" font-family="Helvetica,sans-Serif" font-size="10.00">ClassLoader</text>
</a>
</g>
</g>
<!-- Node0 -->
<g id="node2" class="node">
<title>Node0</title>
<g id="a_node2"><a xlink:href="classcom_1_1tw_1_1paintbots_1_1_bot_loader.xhtml" target="_top" xlink:title=" ">
<polygon fill="white" stroke="black" points="107,-50 107,-69 244,-69 244,-50 107,-50"/>
<text text-anchor="middle" x="175.5" y="-57" font-family="Helvetica,sans-Serif" font-size="10.00">com.tw.paintbots.BotLoader</text>
</a>
</g>
</g>
<!-- Node4&#45;&gt;Node0 -->
<g id="edge1" class="edge">
<title>Node4&#45;&gt;Node0</title>
<path fill="none" stroke="midnightblue" d="M81.25,-44.63C91.92,-46.34 103.49,-48.18 114.72,-49.97"/>
<polygon fill="midnightblue" stroke="midnightblue" points="81.75,-41.17 71.32,-43.05 80.65,-48.08 81.75,-41.17"/>
</g>
<!-- Node6 -->
<g id="node3" class="node">
<title>Node6</title>
<g id="a_node3"><a xlink:href="classcom_1_1tw_1_1paintbots_1_1_settings_loader.xhtml" target="_top" xlink:title=" ">
<polygon fill="white" stroke="black" points="111.5,-0.5 111.5,-30.5 239.5,-30.5 239.5,-0.5 111.5,-0.5"/>
<text text-anchor="start" x="119.5" y="-18.5" font-family="Helvetica,sans-Serif" font-size="10.00">com.tw.paintbots.Settings</text>
<text text-anchor="middle" x="175.5" y="-7.5" font-family="Helvetica,sans-Serif" font-size="10.00">Loader</text>
</a>
</g>
</g>
<!-- Node4&#45;&gt;Node6 -->
<g id="edge2" class="edge">
<title>Node4&#45;&gt;Node6</title>
<path fill="none" stroke="midnightblue" d="M81.42,-30.34C91.02,-28.81 101.34,-27.16 111.48,-25.55"/>
<polygon fill="midnightblue" stroke="midnightblue" points="80.65,-26.92 71.32,-31.95 81.75,-33.83 80.65,-26.92"/>
</g>
</g>
</svg>
