<?xml version="1.0" encoding="UTF-8" standalone="no"?>
<!DOCTYPE svg PUBLIC "-//W3C//DTD SVG 1.1//EN"
 "http://www.w3.org/Graphics/SVG/1.1/DTD/svg11.dtd">
<!-- Generated by graphviz version 2.49.3 (20211027.1534)
 -->
<!-- Title: Graphical Class Hierarchy Pages: 1 -->
<svg width="264pt" height="78pt"
 viewBox="0.00 0.00 264.00 77.50" xmlns="http://www.w3.org/2000/svg" xmlns:xlink="http://www.w3.org/1999/xlink">
<g id="graph0" class="graph" transform="scale(1 1) rotate(0) translate(4 73.5)">
<title>Graphical Class Hierarchy</title>
<polygon fill="white" stroke="transparent" points="-4,4 -4,-73.5 260,-73.5 260,4 -4,4"/>
<!-- Node32 -->
<g id="node1" class="node">
<title>Node32</title>
<g id="a_node1"><a xlink:title=" ">
<polygon fill="white" stroke="#bfbfbf" points="0,-22.5 0,-41.5 59,-41.5 59,-22.5 0,-22.5"/>
<text text-anchor="middle" x="29.5" y="-29.5" font-family="Helvetica,sans-Serif" font-size="10.00">Exception</text>
</a>
</g>
</g>
<!-- Node0 -->
<g id="node2" class="node">
<title>Node0</title>
<g id="a_node2"><a xlink:href="classcom_1_1tw_1_1paintbots_1_1_game_manger_exception.xhtml" target="_top" xlink:title=" ">
<polygon fill="white" stroke="black" points="100,-39 100,-69 251,-69 251,-39 100,-39"/>
<text text-anchor="start" x="108" y="-57" font-family="Helvetica,sans-Serif" font-size="10.00">com.tw.paintbots.GameManger</text>
<text text-anchor="middle" x="175.5" y="-46" font-family="Helvetica,sans-Serif" font-size="10.00">Exception</text>
</a>
</g>
</g>
<!-- Node32&#45;&gt;Node0 -->
<g id="edge1" class="edge">
<title>Node32&#45;&gt;Node0</title>
<path fill="none" stroke="midnightblue" d="M69.19,-37.91C78.71,-39.37 89.23,-40.97 99.82,-42.59"/>
<polygon fill="midnightblue" stroke="midnightblue" points="69.71,-34.45 59.29,-36.4 68.65,-41.37 69.71,-34.45"/>
</g>
<!-- Node34 -->
<g id="node3" class="node">
<title>Node34</title>
<g id="a_node3"><a xlink:href="classcom_1_1tw_1_1paintbots_1_1_player_exception.xhtml" target="_top" xlink:title=" ">
<polygon fill="white" stroke="black" points="95,-0.5 95,-19.5 256,-19.5 256,-0.5 95,-0.5"/>
<text text-anchor="middle" x="175.5" y="-7.5" font-family="Helvetica,sans-Serif" font-size="10.00">com.tw.paintbots.PlayerException</text>
</a>
</g>
</g>
<!-- Node32&#45;&gt;Node34 -->
<g id="edge2" class="edge">
<title>Node32&#45;&gt;Node34</title>
<path fill="none" stroke="midnightblue" d="M69.4,-26.06C82.56,-24.05 97.61,-21.75 112.13,-19.53"/>
<polygon fill="midnightblue" stroke="midnightblue" points="68.65,-22.63 59.29,-27.6 69.71,-29.55 68.65,-22.63"/>
</g>
</g>
</svg>
